<svg width="286" height="180" viewBox="0 0 286 180" fill="none" xmlns="http://www.w3.org/2000/svg">
<g clip-path="url(#clip0_1143_8892)">
<path d="M286 0H0V180H286V0Z" fill="#F2F0F0"/>
<path d="M118.28 76C118.05 76 117.81 76 117.58 76H117.41H70.0001H69.3801C67.479 76.0503 65.587 75.7194 63.8159 75.0267C62.0448 74.334 60.4303 73.2935 59.0679 71.9667C57.7054 70.6399 56.6225 69.0536 55.8831 67.3014C55.1437 65.5492 54.7628 63.6667 54.7628 61.765C54.7628 59.8632 55.1437 57.9807 55.8831 56.2285C56.6225 54.4763 57.7054 52.89 59.0679 51.5632C60.4303 50.2364 62.0448 49.1959 63.8159 48.5032C65.587 47.8105 67.479 47.4796 69.3801 47.53C71.2258 47.5252 73.0542 47.8854 74.7601 48.59C76.3524 44.2729 79.3606 40.623 83.2941 38.2356C87.2276 35.8482 91.854 34.8643 96.4186 35.4444C100.983 36.0246 105.216 38.1345 108.428 41.43C111.639 44.7254 113.638 49.0119 114.1 53.59C115.692 52.9619 117.404 52.6937 119.112 52.8046C120.82 52.9155 122.483 53.4028 123.981 54.2314C125.478 55.0601 126.774 56.2097 127.776 57.598C128.777 58.9862 129.459 60.5787 129.773 62.2614C130.087 63.9441 130.025 65.6754 129.591 67.3313C129.158 68.9872 128.363 70.5267 127.265 71.8397C126.167 73.1526 124.791 74.2064 123.238 74.9256C121.685 75.6449 119.992 76.0117 118.28 76ZM117.43 75.4599C117.74 75.4599 118.01 75.4599 118.28 75.4599C119.931 75.4648 121.563 75.1017 123.057 74.3971C124.55 73.6925 125.868 72.6641 126.915 71.3866C127.961 70.1091 128.71 68.6145 129.107 67.0114C129.504 65.4084 129.538 63.7371 129.208 62.1189C128.879 60.5008 128.192 58.9764 127.2 57.6566C126.207 56.3367 124.933 55.2545 123.47 54.4885C122.007 53.7225 120.392 53.292 118.742 53.2283C117.092 53.1645 115.448 53.4691 113.93 54.12L113.61 54.25V53.91C113.234 49.378 111.314 45.1126 108.17 41.827C105.026 38.5415 100.849 36.435 96.3379 35.86C91.8269 35.285 87.2553 36.2763 83.3876 38.6682C79.52 41.06 76.5908 44.7072 75.0901 49L75.0001 49.25L74.7601 49.15C72.8861 48.3391 70.855 47.956 68.8144 48.0287C66.7739 48.1014 64.7751 48.6279 62.9636 49.5701C61.1521 50.5122 59.5734 51.8463 58.3422 53.4752C57.111 55.1041 56.2583 56.987 55.8462 58.9868C55.4341 60.9867 55.4729 63.0532 55.9598 65.0362C56.4466 67.0192 57.3693 68.8687 58.6608 70.4503C59.9522 72.0319 61.5799 73.3057 63.4255 74.1792C65.2711 75.0527 67.2882 75.5039 69.3301 75.5C69.5401 75.5 69.7601 75.5 69.9701 75.5H70.4501V75.5599H117.16L117.43 75.4599Z" fill="#293241"/>
<g opacity="0.2">
<path opacity="0.2" d="M111.11 80.1602C110.91 80.1602 110.72 80.1602 110.51 80.1602H71.3901C71.2101 80.1602 71.0201 80.1602 70.8301 80.1602C67.8007 80.0714 64.9252 78.8056 62.8138 76.6314C60.7024 74.4572 59.5214 71.5459 59.5214 68.5152C59.5214 65.4845 60.7024 62.5731 62.8138 60.3989C64.9252 58.2248 67.8007 56.959 70.8301 56.8702C72.3687 56.8661 73.8924 57.1722 75.3101 57.7702C76.2474 55.1839 77.8102 52.8699 79.859 51.0343C81.9079 49.1987 84.3792 47.8987 87.0525 47.2502C89.7258 46.6016 92.5181 46.6248 95.1803 47.3175C97.8425 48.0102 100.292 49.3509 102.31 51.2202C105.334 53.9947 107.219 57.7939 107.6 61.8802C108.898 61.3519 110.297 61.1177 111.697 61.1944C113.096 61.2711 114.461 61.6568 115.693 62.3237C116.926 62.9907 117.996 63.9224 118.825 65.0518C119.655 66.1813 120.224 67.4805 120.492 68.8561C120.76 70.2317 120.72 71.6496 120.375 73.0079C120.03 74.3662 119.388 75.6311 118.496 76.7119C117.603 77.7926 116.483 78.6624 115.214 79.2586C113.946 79.8548 112.562 80.1627 111.16 80.1602H111.11ZM110.26 79.8602H110.4C110.65 79.8602 110.88 79.8602 111.11 79.8602C113.507 79.7813 115.779 78.7738 117.446 77.0505C119.114 75.3272 120.046 73.0232 120.046 70.6252C120.046 68.2272 119.114 65.9232 117.446 64.1999C115.779 62.4766 113.507 61.4691 111.11 61.3902C109.867 61.3907 108.636 61.6389 107.49 62.1202L107.33 62.1902V62.0202C107.004 58.278 105.406 54.7604 102.802 52.0534C100.198 49.3464 96.7448 47.6135 93.0181 47.1434C89.2913 46.6733 85.516 47.4945 82.3211 49.47C79.1262 51.4455 76.7047 54.4561 75.4601 58.0002V58.1202L75.3401 58.0702C73.9167 57.4534 72.3814 57.1368 70.8301 57.1402C67.8664 57.228 65.0535 58.467 62.9882 60.5944C60.9229 62.7218 59.7677 65.5702 59.7677 68.5352C59.7677 71.5002 60.9229 74.3485 62.9882 76.4759C65.0535 78.6033 67.8664 79.8424 70.8301 79.9302C71.0201 79.9302 71.1901 79.9302 71.3701 79.9302H71.6801H110.3L110.26 79.8602Z" fill="#125BC9"/>
</g>
<path d="M190.44 57.6002H190.04H189.9H160C158.826 57.6002 157.664 57.3689 156.579 56.9196C155.494 56.4704 154.509 55.8119 153.679 54.9817C152.848 54.1515 152.19 53.166 151.741 52.0814C151.291 50.9967 151.06 49.8342 151.06 48.6602C151.06 47.4861 151.291 46.3236 151.741 45.239C152.19 44.1543 152.848 43.1688 153.679 42.3386C154.509 41.5085 155.494 40.85 156.579 40.4007C157.664 39.9514 158.826 39.7202 160 39.7202C161.127 39.7183 162.244 39.9322 163.29 40.3502C164.304 37.6791 166.186 35.4263 168.635 33.9538C171.083 32.4814 173.956 31.8747 176.79 32.2312C179.625 32.5877 182.258 33.8867 184.265 35.9196C186.273 37.9525 187.539 40.6012 187.86 43.4402C188.675 43.1328 189.539 42.9769 190.41 42.9802C192.349 42.9802 194.208 43.7503 195.579 45.1212C196.95 46.4921 197.72 48.3514 197.72 50.2902C197.72 52.2289 196.95 54.0882 195.579 55.4591C194.208 56.83 192.349 57.6002 190.41 57.6002H190.44ZM189.92 57.0702C190.09 57.0702 190.26 57.0702 190.44 57.0702C191.451 57.0718 192.449 56.8484 193.363 56.4161C194.277 55.9839 195.083 55.3536 195.723 54.5711C196.363 53.7886 196.821 52.8734 197.063 51.892C197.305 50.9106 197.326 49.8875 197.123 48.8971C196.921 47.9067 196.501 46.9738 195.893 46.166C195.285 45.3582 194.505 44.6959 193.61 44.227C192.714 43.7582 191.726 43.4945 190.716 43.4553C189.705 43.4161 188.699 43.6022 187.77 44.0002L187.46 44.1402V43.7902C187.221 41.0042 186.036 38.3839 184.101 36.3653C182.166 34.3467 179.598 33.0514 176.825 32.695C174.052 32.3385 171.24 32.9424 168.857 34.4061C166.475 35.8698 164.666 38.1051 163.73 40.7402L163.64 40.9902L163.4 40.8902C162.346 40.4331 161.209 40.1982 160.06 40.2002C157.822 40.2002 155.675 41.0894 154.092 42.6722C152.509 44.255 151.62 46.4017 151.62 48.6402C151.62 50.8786 152.509 53.0253 154.092 54.6081C155.675 56.191 157.822 57.0802 160.06 57.0802H160.48H160.85V57.1302L189.92 57.0702Z" fill="#293241"/>
<g opacity="0.2">
<path opacity="0.2" d="M186 60.1601H185.64H185.56H161.28H160.96C159.881 60.166 158.815 59.932 157.837 59.4752C156.86 59.0184 155.997 58.3501 155.309 57.5187C154.622 56.6873 154.128 55.7135 153.863 54.6677C153.598 53.622 153.569 52.5305 153.778 51.4721C153.986 50.4137 154.428 49.4149 155.07 48.548C155.712 47.681 156.538 46.9676 157.49 46.4592C158.441 45.9508 159.494 45.6603 160.571 45.6086C161.649 45.5568 162.724 45.7452 163.72 46.1601C164.536 43.9542 166.074 42.0895 168.085 40.8697C170.095 39.6498 172.46 39.1468 174.793 39.4425C177.126 39.7382 179.29 40.8152 180.933 42.4981C182.576 44.1809 183.601 46.3705 183.84 48.7101C184.655 48.3821 185.532 48.2389 186.409 48.2907C187.286 48.3426 188.14 48.5882 188.91 49.0098C189.681 49.4315 190.348 50.0188 190.864 50.7294C191.38 51.44 191.732 52.2562 191.895 53.1192C192.058 53.9823 192.028 54.8707 191.806 55.7205C191.584 56.5703 191.176 57.3603 190.613 58.0337C190.049 58.7071 189.343 59.247 188.545 59.6147C187.747 59.9824 186.878 60.1687 186 60.1601ZM185.57 59.8801C185.713 59.89 185.857 59.89 186 59.8801C187.509 59.8801 188.956 59.2806 190.023 58.2135C191.091 57.1464 191.69 55.6992 191.69 54.1901C191.69 52.681 191.091 51.2337 190.023 50.1666C188.956 49.0996 187.509 48.5001 186 48.5001C185.237 48.4976 184.482 48.6507 183.78 48.9501L183.62 49.0201V48.8501C183.418 46.541 182.432 44.3704 180.827 42.6985C179.222 41.0266 177.093 39.9539 174.794 39.6585C172.495 39.3631 170.164 39.8627 168.188 41.0744C166.212 42.2861 164.709 44.137 163.93 46.3201V46.4401H163.81C162.859 46.0565 161.835 45.8866 160.811 45.9423C159.787 45.998 158.788 46.278 157.884 46.7625C156.981 47.247 156.194 47.9242 155.581 48.7462C154.968 49.5681 154.543 50.5147 154.336 51.5191C154.129 52.5234 154.145 53.561 154.383 54.5584C154.622 55.5558 155.076 56.4887 155.715 57.2911C156.353 58.0934 157.16 58.7457 158.079 59.2017C158.997 59.6577 160.005 59.9064 161.03 59.9301H161.35H161.6L185.57 59.8801Z" fill="#125BC9"/>
</g>
<path d="M211.83 113.57C211.647 113.58 211.463 113.58 211.28 113.57H211.22H171.59C171.387 113.58 171.183 113.58 170.98 113.57C169.563 113.57 168.163 113.257 166.881 112.652C165.598 112.047 164.466 111.167 163.564 110.073C162.663 108.979 162.014 107.7 161.665 106.326C161.316 104.952 161.276 103.518 161.546 102.126C161.817 100.735 162.391 99.4206 163.23 98.2775C164.068 97.1343 165.149 96.1908 166.394 95.5145C167.64 94.8382 169.02 94.4458 170.435 94.3655C171.85 94.2852 173.266 94.519 174.58 95.0501C174.944 91.2308 176.597 87.6491 179.267 84.8939C181.937 82.1387 185.466 80.374 189.272 79.8899C193.078 79.4059 196.935 80.2313 200.21 82.2305C203.484 84.2296 205.981 87.2835 207.29 90.8901C208.727 90.285 210.271 89.9755 211.83 89.9801C214.899 90.0695 217.812 91.3513 219.951 93.5536C222.09 95.7558 223.287 98.705 223.287 101.775C223.287 104.845 222.09 107.794 219.951 109.997C217.812 112.199 214.899 113.481 211.83 113.57ZM210.97 113.28H211.3H211.83C213.375 113.326 214.913 113.061 216.353 112.501C217.794 111.941 219.107 111.098 220.216 110.021C221.325 108.945 222.206 107.657 222.808 106.233C223.41 104.81 223.72 103.28 223.72 101.735C223.72 100.19 223.41 98.6601 222.808 97.2367C222.206 95.8134 221.325 94.5253 220.216 93.4487C219.107 92.3722 217.794 91.5291 216.353 90.9693C214.913 90.4096 213.375 90.1446 211.83 90.1901C210.261 90.1849 208.709 90.505 207.27 91.1301H207.14V91.0101C205.868 87.4255 203.406 84.3847 200.165 82.3935C196.924 80.4024 193.099 79.581 189.326 80.066C185.554 80.5511 182.061 82.3133 179.429 85.0594C176.797 87.8056 175.184 91.3702 174.86 95.1601V95.3301L174.71 95.2601C173.434 94.7287 172.057 94.4864 170.677 94.5504C169.296 94.6145 167.947 94.9834 166.727 95.6306C165.506 96.2779 164.443 97.1874 163.616 98.2939C162.788 99.4004 162.215 100.676 161.939 102.03C161.663 103.384 161.69 104.783 162.019 106.125C162.347 107.467 162.969 108.72 163.839 109.794C164.709 110.867 165.806 111.735 167.051 112.334C168.296 112.933 169.658 113.25 171.04 113.26C171.28 113.26 171.53 113.26 171.76 113.26H171.9H211L210.97 113.28Z" fill="#293241"/>
<g opacity="0.2">
<path opacity="0.2" d="M210.61 117.17H210.13H210.04H177.44C177.284 117.18 177.127 117.18 176.97 117.17C175.803 117.167 174.652 116.906 173.597 116.406C172.543 115.907 171.612 115.181 170.871 114.28C170.129 113.379 169.595 112.326 169.308 111.195C169.02 110.065 168.986 108.884 169.206 107.739C169.427 106.593 169.898 105.51 170.586 104.568C171.273 103.625 172.16 102.846 173.183 102.285C174.207 101.725 175.341 101.397 176.505 101.325C177.67 101.253 178.836 101.439 179.92 101.87C180.212 98.7114 181.572 95.7468 183.777 93.4658C185.981 91.1848 188.897 89.7238 192.044 89.3241C195.191 88.9243 198.38 89.6097 201.085 91.2671C203.789 92.9245 205.848 95.4548 206.92 98.44C208.251 97.8852 209.688 97.6327 211.129 97.7009C212.569 97.7691 213.976 98.1563 215.249 98.8344C216.521 99.5125 217.627 100.465 218.487 101.622C219.347 102.78 219.939 104.114 220.22 105.528C220.502 106.942 220.466 108.401 220.115 109.799C219.765 111.198 219.108 112.501 218.192 113.615C217.277 114.729 216.125 115.626 214.821 116.24C213.516 116.855 212.092 117.173 210.65 117.17H210.61ZM210.01 116.89H210.15H210.61C213.13 116.89 215.546 115.889 217.328 114.108C219.109 112.326 220.11 109.91 220.11 107.39C220.11 104.87 219.109 102.454 217.328 100.673C215.546 98.8909 213.13 97.89 210.61 97.89C209.319 97.887 208.042 98.1526 206.86 98.67H206.73V98.54C205.683 95.5935 203.66 93.0941 200.995 91.4574C198.331 89.8208 195.187 89.1456 192.085 89.5441C188.984 89.9425 186.112 91.3907 183.948 93.6477C181.784 95.9048 180.458 98.8346 180.19 101.95V102.13L180.03 102.06C179.082 101.656 178.061 101.448 177.03 101.45C174.993 101.45 173.04 102.259 171.6 103.699C170.159 105.14 169.35 107.093 169.35 109.13C169.35 111.167 170.159 113.12 171.6 114.561C173.04 116.001 174.993 116.81 177.03 116.81H177.62H177.75H209.94L210.01 116.89Z" fill="#125BC9"/>
</g>
<path d="M134.83 147.7C134.64 147.7 134.46 147.7 134.27 147.7H94.4601H93.9801C92.5481 147.704 91.1329 147.391 89.8354 146.786C88.5378 146.18 87.3898 145.295 86.4731 144.195C85.5564 143.095 84.8935 141.806 84.5317 140.421C84.17 139.035 84.1181 137.587 84.3799 136.179C84.6418 134.771 85.2108 133.439 86.0465 132.276C86.8822 131.113 87.9641 130.149 89.215 129.452C90.4659 128.755 91.8551 128.342 93.2837 128.243C94.7123 128.144 96.1451 128.362 97.4801 128.88C97.8615 125.05 99.5315 121.462 102.217 118.705C104.902 115.947 108.444 114.182 112.263 113.699C116.081 113.216 119.951 114.043 123.238 116.045C126.526 118.047 129.037 121.106 130.36 124.72C131.988 124.074 133.739 123.795 135.488 123.903C137.236 124.01 138.939 124.502 140.476 125.343C142.013 126.184 143.346 127.353 144.379 128.767C145.413 130.182 146.122 131.807 146.456 133.526C146.79 135.246 146.741 137.018 146.313 138.716C145.884 140.415 145.086 141.998 143.976 143.353C142.866 144.709 141.471 145.802 139.89 146.557C138.31 147.312 136.582 147.709 134.83 147.72V147.7ZM134.11 147.16H134.31C134.48 147.16 134.65 147.16 134.83 147.16C136.529 147.164 138.207 146.79 139.743 146.064C141.279 145.338 142.634 144.279 143.709 142.963C144.784 141.648 145.553 140.109 145.958 138.46C146.364 136.81 146.397 135.091 146.055 133.427C145.712 131.763 145.003 130.196 143.979 128.84C142.955 127.485 141.642 126.374 140.135 125.59C138.628 124.806 136.965 124.368 135.267 124.307C133.569 124.247 131.879 124.565 130.32 125.24L130.07 125.35L129.98 125.1C128.699 121.568 126.253 118.577 123.044 116.621C119.836 114.665 116.056 113.861 112.33 114.341C108.603 114.821 105.151 116.556 102.542 119.261C99.9337 121.966 98.3246 125.478 97.9801 129.22V129.56L97.6701 129.43C96.4152 128.916 95.0626 128.685 93.7084 128.753C92.3542 128.821 91.0316 129.187 89.8347 129.824C88.6378 130.462 87.5961 131.355 86.7834 132.44C85.9708 133.526 85.4074 134.777 85.1331 136.105C84.8589 137.433 84.8806 138.805 85.1967 140.123C85.5128 141.442 86.1155 142.675 86.962 143.734C87.8085 144.793 88.878 145.653 90.0944 146.252C91.3109 146.851 92.6443 147.175 94.0001 147.2C94.2401 147.2 94.4801 147.2 94.7101 147.2H94.9801V147.26L134.11 147.16Z" fill="#293241"/>
<g opacity="0.2">
<path opacity="0.2" d="M133.61 151.17H133.13H133.04H100.44C100.284 151.18 100.127 151.18 99.97 151.17C98.8056 151.159 97.6578 150.892 96.6082 150.388C95.5587 149.883 94.6331 149.154 93.8973 148.251C93.1615 147.348 92.6335 146.295 92.3509 145.165C92.0682 144.035 92.0379 142.857 92.262 141.715C92.486 140.572 92.959 139.492 93.6474 138.553C94.3357 137.614 95.2224 136.838 96.2446 136.28C97.2668 135.722 98.3993 135.396 99.5616 135.325C100.724 135.254 101.888 135.44 102.97 135.87C103.262 132.711 104.622 129.747 106.827 127.466C109.031 125.185 111.947 123.724 115.094 123.324C118.241 122.924 121.43 123.61 124.134 125.267C126.839 126.925 128.898 129.455 129.97 132.44C131.301 131.885 132.738 131.633 134.179 131.701C135.619 131.769 137.026 132.156 138.299 132.834C139.571 133.512 140.677 134.465 141.537 135.622C142.397 136.78 142.989 138.114 143.27 139.528C143.552 140.942 143.516 142.401 143.165 143.799C142.815 145.198 142.158 146.501 141.242 147.615C140.326 148.729 139.175 149.626 137.871 150.24C136.566 150.855 135.142 151.173 133.7 151.17H133.61ZM133.01 150.89H133.15H133.61C136.13 150.89 138.546 149.889 140.328 148.108C142.109 146.326 143.11 143.91 143.11 141.39C143.11 138.87 142.109 136.454 140.328 134.673C138.546 132.891 136.13 131.89 133.61 131.89C132.319 131.887 131.042 132.153 129.86 132.67L129.73 132.72V132.59C128.683 129.644 126.66 127.144 123.995 125.507C121.331 123.871 118.186 123.196 115.085 123.594C111.984 123.993 109.112 125.441 106.948 127.698C104.784 129.955 103.458 132.885 103.19 136V136.18L103.03 136.11C102.082 135.706 101.061 135.498 100.03 135.5C97.9932 135.5 96.0397 136.309 94.5994 137.749C93.1592 139.19 92.35 141.143 92.35 143.18C92.35 145.217 93.1592 147.17 94.5994 148.611C96.0397 150.051 97.9932 150.86 100.03 150.86H100.62H100.75H132.94L133.01 150.89Z" fill="#125BC9"/>
</g>
<g opacity="0.22">
<path opacity="0.22" d="M242.64 61.38C242.606 61.38 242.573 61.3663 242.548 61.3419C242.524 61.3175 242.51 61.2845 242.51 61.25V-0.250004C242.51 -0.284482 242.524 -0.317548 242.548 -0.341928C242.573 -0.366308 242.606 -0.380004 242.64 -0.380004C242.657 -0.380062 242.673 -0.37666 242.688 -0.370014C242.704 -0.363368 242.717 -0.353623 242.729 -0.341398C242.74 -0.329174 242.749 -0.314736 242.754 -0.299003C242.759 -0.283269 242.761 -0.266583 242.76 -0.250004V61.25C242.761 61.2666 242.759 61.2833 242.754 61.299C242.749 61.3147 242.74 61.3292 242.729 61.3414C242.717 61.3536 242.704 61.3634 242.688 61.37C242.673 61.3767 242.657 61.3801 242.64 61.38Z" fill="#125BC9"/>
</g>
<path d="M242.5 62.5C243.605 62.5 244.5 61.6046 244.5 60.5C244.5 59.3954 243.605 58.5 242.5 58.5C241.395 58.5 240.5 59.3954 240.5 60.5C240.5 61.6046 241.395 62.5 242.5 62.5Z" fill="white"/>
<path d="M242.5 62.6201C242.081 62.6201 241.671 62.4958 241.322 62.2628C240.974 62.0299 240.702 61.6988 240.541 61.3114C240.381 60.924 240.339 60.4978 240.421 60.0865C240.503 59.6753 240.705 59.2976 241.001 59.0011C241.297 58.7046 241.675 58.5027 242.086 58.4209C242.498 58.3391 242.924 58.381 243.311 58.5415C243.699 58.702 244.03 58.9737 244.263 59.3223C244.496 59.671 244.62 60.0808 244.62 60.5001C244.62 61.0624 244.397 61.6016 243.999 61.9992C243.602 62.3968 243.062 62.6201 242.5 62.6201ZM242.5 58.6201C242.128 58.6201 241.765 58.7304 241.456 58.937C241.146 59.1435 240.905 59.4372 240.763 59.7807C240.621 60.1242 240.584 60.5022 240.656 60.8669C240.729 61.2316 240.908 61.5666 241.171 61.8295C241.434 62.0924 241.769 62.2715 242.133 62.344C242.498 62.4165 242.876 62.3793 243.22 62.237C243.563 62.0947 243.857 61.8538 244.063 61.5446C244.27 61.2354 244.38 60.872 244.38 60.5001C244.377 60.0023 244.179 59.5257 243.827 59.1737C243.475 58.8217 242.998 58.6228 242.5 58.6201Z" fill="#125BC9"/>
<path d="M242.75 17.25C243.302 17.25 243.75 16.8023 243.75 16.25C243.75 15.6977 243.302 15.25 242.75 15.25C242.198 15.25 241.75 15.6977 241.75 16.25C241.75 16.8023 242.198 17.25 242.75 17.25Z" fill="white"/>
<path d="M242.75 17.3801C242.527 17.3801 242.308 17.3138 242.122 17.1897C241.936 17.0655 241.792 16.889 241.706 16.6826C241.621 16.4761 241.598 16.2489 241.642 16.0297C241.685 15.8105 241.793 15.6091 241.951 15.4511C242.109 15.2931 242.31 15.1854 242.53 15.1418C242.749 15.0982 242.976 15.1206 243.182 15.2061C243.389 15.2917 243.565 15.4365 243.69 15.6223C243.814 15.8082 243.88 16.0266 243.88 16.2501C243.877 16.549 243.758 16.8349 243.546 17.0463C243.335 17.2576 243.049 17.3775 242.75 17.3801ZM242.75 15.3801C242.578 15.3801 242.41 15.4311 242.267 15.5267C242.124 15.6223 242.012 15.7582 241.946 15.9172C241.88 16.0762 241.863 16.2511 241.897 16.4198C241.93 16.5886 242.013 16.7436 242.135 16.8653C242.257 16.987 242.412 17.0698 242.58 17.1034C242.749 17.137 242.924 17.1197 243.083 17.0539C243.242 16.988 243.378 16.8765 243.473 16.7335C243.569 16.5904 243.62 16.4222 243.62 16.2501C243.62 16.0194 243.528 15.7981 243.365 15.6349C243.202 15.4718 242.981 15.3801 242.75 15.3801Z" fill="#125BC9"/>
<path d="M242.5 39.5C243.052 39.5 243.5 39.0523 243.5 38.5C243.5 37.9477 243.052 37.5 242.5 37.5C241.948 37.5 241.5 37.9477 241.5 38.5C241.5 39.0523 241.948 39.5 242.5 39.5Z" fill="white"/>
<path d="M242.5 39.6201C242.279 39.6201 242.062 39.5544 241.878 39.4314C241.694 39.3083 241.55 39.1334 241.465 38.9287C241.381 38.7241 241.358 38.4989 241.402 38.2816C241.445 38.0644 241.551 37.8648 241.708 37.7082C241.865 37.5515 242.064 37.4449 242.282 37.4016C242.499 37.3584 242.724 37.3806 242.929 37.4654C243.133 37.5502 243.308 37.6937 243.431 37.8779C243.554 38.0621 243.62 38.2786 243.62 38.5001C243.62 38.7972 243.502 39.082 243.292 39.2921C243.082 39.5021 242.797 39.6201 242.5 39.6201ZM242.5 37.6201C242.326 37.6201 242.156 37.6717 242.011 37.7684C241.866 37.8651 241.754 38.0026 241.687 38.1634C241.62 38.3242 241.603 38.5011 241.637 38.6718C241.671 38.8425 241.755 38.9993 241.878 39.1224C242.001 39.2455 242.158 39.3293 242.328 39.3632C242.499 39.3972 242.676 39.3797 242.837 39.3131C242.998 39.2465 243.135 39.1337 243.232 38.989C243.328 38.8443 243.38 38.6742 243.38 38.5001C243.377 38.2675 243.284 38.0452 243.119 37.8807C242.955 37.7163 242.733 37.6227 242.5 37.6201Z" fill="#125BC9"/>
<g opacity="0.22">
<path opacity="0.22" d="M181.5 23.63C181.483 23.6301 181.467 23.6267 181.452 23.62C181.436 23.6134 181.423 23.6036 181.411 23.5914C181.4 23.5792 181.392 23.5647 181.386 23.549C181.381 23.5333 181.379 23.5166 181.38 23.5V-0.499995C181.38 -0.531821 181.393 -0.562344 181.415 -0.584848C181.438 -0.607352 181.468 -0.619995 181.5 -0.619995C181.532 -0.619995 181.562 -0.607352 181.585 -0.584848C181.607 -0.562344 181.62 -0.531821 181.62 -0.499995V23.5C181.621 23.5166 181.619 23.5333 181.614 23.549C181.609 23.5647 181.6 23.5792 181.589 23.5914C181.577 23.6036 181.564 23.6134 181.548 23.62C181.533 23.6267 181.517 23.6301 181.5 23.63Z" fill="#125BC9"/>
</g>
<path d="M181.5 25.5C182.052 25.5 182.5 25.0523 182.5 24.5C182.5 23.9477 182.052 23.5 181.5 23.5C180.948 23.5 180.5 23.9477 180.5 24.5C180.5 25.0523 180.948 25.5 181.5 25.5Z" fill="#125BC9"/>
<g opacity="0.22">
<path opacity="0.22" d="M115.62 20.6301C115.587 20.6275 115.557 20.6127 115.535 20.5886C115.512 20.5645 115.5 20.5329 115.5 20.5001V-0.499944C115.5 -0.53177 115.513 -0.562292 115.535 -0.584797C115.558 -0.607301 115.588 -0.619944 115.62 -0.619944C115.637 -0.62133 115.653 -0.619254 115.669 -0.613848C115.685 -0.608441 115.699 -0.599822 115.711 -0.588538C115.724 -0.577253 115.733 -0.56355 115.74 -0.548299C115.747 -0.533047 115.75 -0.51658 115.75 -0.499944V20.5001C115.75 20.5345 115.736 20.5676 115.712 20.592C115.688 20.6164 115.655 20.6301 115.62 20.6301Z" fill="#125BC9"/>
</g>
<path d="M115.63 22.5C116.182 22.5 116.63 22.0523 116.63 21.5C116.63 20.9477 116.182 20.5 115.63 20.5C115.078 20.5 114.63 20.9477 114.63 21.5C114.63 22.0523 115.078 22.5 115.63 22.5Z" fill="#125BC9"/>
<g opacity="0.22">
<path opacity="0.22" d="M28.74 44.3301C28.7234 44.3301 28.7069 44.3267 28.6917 44.3201C28.6764 44.3134 28.6627 44.3037 28.6515 44.2915C28.6402 44.2792 28.6315 44.2648 28.6261 44.2491C28.6207 44.2333 28.6187 44.2166 28.62 44.2001V0.500056C28.62 0.46823 28.6327 0.437708 28.6552 0.415203C28.6777 0.392699 28.7082 0.380056 28.74 0.380056C28.7566 0.37867 28.7733 0.380746 28.789 0.386152C28.8048 0.391559 28.8192 0.400178 28.8314 0.411462C28.8437 0.422747 28.8534 0.43645 28.8601 0.451701C28.8667 0.466953 28.8701 0.48342 28.87 0.500056V44.2001C28.87 44.2345 28.8563 44.2676 28.832 44.292C28.8076 44.3164 28.7745 44.3301 28.74 44.3301Z" fill="#125BC9"/>
</g>
<path d="M28.7401 46.5C29.3752 46.5 29.8901 45.9851 29.8901 45.3499C29.8901 44.7148 29.3752 44.2 28.7401 44.2C28.105 44.2 27.5901 44.7148 27.5901 45.3499C27.5901 45.9851 28.105 46.5 28.7401 46.5Z" fill="#125BC9"/>
<path d="M89.74 103.5C90.3752 103.5 90.89 102.985 90.89 102.35C90.89 101.715 90.3752 101.2 89.74 101.2C89.1049 101.2 88.59 101.715 88.59 102.35C88.59 102.985 89.1049 103.5 89.74 103.5Z" fill="#125BC9"/>
<path d="M91.74 117.5C92.3752 117.5 92.89 116.985 92.89 116.35C92.89 115.715 92.3752 115.2 91.74 115.2C91.1049 115.2 90.59 115.715 90.59 116.35C90.59 116.985 91.1049 117.5 91.74 117.5Z" fill="#293241"/>
<path d="M211.74 71.5C212.375 71.5 212.89 70.9851 212.89 70.35C212.89 69.7148 212.375 69.2 211.74 69.2C211.105 69.2 210.59 69.7148 210.59 70.35C210.59 70.9851 211.105 71.5 211.74 71.5Z" fill="#EE6C4D"/>
<path d="M90.74 89.5C91.3752 89.5 91.89 88.9851 91.89 88.35C91.89 87.7148 91.3752 87.2 90.74 87.2C90.1049 87.2 89.59 87.7148 89.59 88.35C89.59 88.9851 90.1049 89.5 90.74 89.5Z" fill="#293241"/>
<path d="M50.7401 23.5C51.3752 23.5 51.8901 22.9851 51.8901 22.35C51.8901 21.7148 51.3752 21.2 50.7401 21.2C50.105 21.2 49.5901 21.7148 49.5901 22.35C49.5901 22.9851 50.105 23.5 50.7401 23.5Z" fill="#EE6C4D"/>
<path d="M57.7401 23.5C58.3752 23.5 58.8901 22.9851 58.8901 22.35C58.8901 21.7148 58.3752 21.2 57.7401 21.2C57.105 21.2 56.5901 21.7148 56.5901 22.35C56.5901 22.9851 57.105 23.5 57.7401 23.5Z" fill="#125BC9"/>
<path d="M63.7401 23.5C64.3752 23.5 64.8901 22.9851 64.8901 22.35C64.8901 21.7148 64.3752 21.2 63.7401 21.2C63.105 21.2 62.5901 21.7148 62.5901 22.35C62.5901 22.9851 63.105 23.5 63.7401 23.5Z" fill="#16A3B9"/>
<g opacity="0.22">
<path opacity="0.22" d="M74.5001 166.74H-1.49994C-1.51658 166.74 -1.53305 166.737 -1.5483 166.73C-1.56355 166.723 -1.57725 166.714 -1.58854 166.701C-1.59982 166.689 -1.60844 166.675 -1.61385 166.659C-1.61925 166.643 -1.62133 166.627 -1.61994 166.61C-1.61994 166.578 -1.6073 166.548 -1.5848 166.525C-1.56229 166.503 -1.53177 166.49 -1.49994 166.49H74.5001C74.5319 166.49 74.5624 166.503 74.5849 166.525C74.6074 166.548 74.6201 166.578 74.6201 166.61C74.6214 166.627 74.6194 166.643 74.614 166.659C74.6086 166.675 74.5999 166.689 74.5886 166.701C74.5774 166.714 74.5637 166.723 74.5484 166.73C74.5332 166.737 74.5167 166.74 74.5001 166.74Z" fill="#125BC9"/>
</g>
<g opacity="0.22">
<path opacity="0.22" d="M47.5001 135.74H-0.999944C-1.01658 135.74 -1.03305 135.737 -1.0483 135.73C-1.06355 135.723 -1.07725 135.714 -1.08854 135.701C-1.09982 135.689 -1.10844 135.675 -1.11385 135.659C-1.11925 135.643 -1.12133 135.627 -1.11994 135.61C-1.11994 135.594 -1.11684 135.579 -1.11081 135.564C-1.10478 135.549 -1.09594 135.536 -1.0848 135.525C-1.07365 135.514 -1.06042 135.505 -1.04587 135.499C-1.03131 135.493 -1.0157 135.49 -0.999944 135.49H47.5001C47.5319 135.49 47.5624 135.503 47.5849 135.525C47.6074 135.548 47.6201 135.578 47.6201 135.61C47.6214 135.627 47.6194 135.643 47.614 135.659C47.6086 135.675 47.5999 135.689 47.5886 135.701C47.5774 135.714 47.5637 135.723 47.5484 135.73C47.5332 135.737 47.5167 135.74 47.5001 135.74Z" fill="#125BC9"/>
</g>
<path d="M15.5 136.5C16.0523 136.5 16.5 136.052 16.5 135.5C16.5 134.948 16.0523 134.5 15.5 134.5C14.9477 134.5 14.5 134.948 14.5 135.5C14.5 136.052 14.9477 136.5 15.5 136.5Z" fill="white"/>
<path d="M15.5 136.62C15.2785 136.62 15.0619 136.554 14.8778 136.431C14.6936 136.308 14.55 136.133 14.4653 135.929C14.3805 135.724 14.3583 135.499 14.4015 135.282C14.4447 135.064 14.5514 134.865 14.708 134.708C14.8647 134.552 15.0642 134.445 15.2815 134.402C15.4988 134.358 15.724 134.381 15.9286 134.465C16.1333 134.55 16.3082 134.694 16.4313 134.878C16.5543 135.062 16.62 135.279 16.62 135.5C16.62 135.797 16.502 136.082 16.292 136.292C16.0819 136.502 15.797 136.62 15.5 136.62ZM15.5 134.62C15.326 134.62 15.1558 134.672 15.0111 134.768C14.8664 134.865 14.7536 135.003 14.687 135.163C14.6204 135.324 14.603 135.501 14.6369 135.672C14.6709 135.843 14.7547 135.999 14.8778 136.122C15.0008 136.245 15.1576 136.329 15.3283 136.363C15.499 136.397 15.676 136.38 15.8368 136.313C15.9976 136.247 16.135 136.134 16.2317 135.989C16.3284 135.844 16.38 135.674 16.38 135.5C16.3774 135.268 16.2839 135.045 16.1194 134.881C15.9549 134.716 15.7326 134.623 15.5 134.62Z" fill="#125BC9"/>
<path d="M47.5001 137.5C48.6046 137.5 49.5001 136.605 49.5001 135.5C49.5001 134.395 48.6046 133.5 47.5001 133.5C46.3955 133.5 45.5001 134.395 45.5001 135.5C45.5001 136.605 46.3955 137.5 47.5001 137.5Z" fill="white"/>
<path d="M47.5001 137.62C47.0808 137.62 46.6709 137.496 46.3223 137.263C45.9736 137.03 45.7019 136.699 45.5414 136.311C45.381 135.924 45.339 135.498 45.4208 135.087C45.5026 134.675 45.7045 134.298 46.001 134.001C46.2975 133.705 46.6752 133.503 47.0865 133.421C47.4977 133.339 47.924 133.381 48.3114 133.542C48.6987 133.702 49.0298 133.974 49.2628 134.322C49.4957 134.671 49.6201 135.081 49.6201 135.5C49.6201 135.779 49.5652 136.054 49.4587 136.311C49.3522 136.569 49.196 136.802 48.9991 136.999C48.8023 137.196 48.5686 137.352 48.3114 137.459C48.0541 137.565 47.7785 137.62 47.5001 137.62ZM47.5001 133.62C47.1282 133.62 46.7648 133.73 46.4556 133.937C46.1464 134.144 45.9055 134.437 45.7632 134.781C45.6209 135.124 45.5837 135.502 45.6562 135.867C45.7287 136.232 45.9078 136.567 46.1707 136.829C46.4336 137.092 46.7686 137.271 47.1333 137.344C47.498 137.417 47.876 137.379 48.2195 137.237C48.563 137.095 48.8567 136.854 49.0632 136.545C49.2698 136.235 49.3801 135.872 49.3801 135.5C49.3774 135.002 49.1785 134.526 48.8265 134.174C48.4745 133.822 47.9979 133.623 47.5001 133.62Z" fill="#125BC9"/>
<g opacity="0.22">
<path opacity="0.22" d="M286.5 155.74H238C237.983 155.74 237.967 155.737 237.952 155.73C237.936 155.723 237.923 155.714 237.911 155.701C237.9 155.689 237.892 155.675 237.886 155.659C237.881 155.643 237.879 155.627 237.88 155.61C237.88 155.578 237.893 155.548 237.915 155.525C237.938 155.503 237.968 155.49 238 155.49H286.5C286.532 155.49 286.562 155.503 286.585 155.525C286.607 155.548 286.62 155.578 286.62 155.61C286.621 155.627 286.619 155.643 286.614 155.659C286.609 155.675 286.6 155.689 286.589 155.701C286.577 155.714 286.564 155.723 286.548 155.73C286.533 155.737 286.517 155.74 286.5 155.74Z" fill="#125BC9"/>
</g>
<path d="M270 156.5C270.552 156.5 271 156.052 271 155.5C271 154.948 270.552 154.5 270 154.5C269.448 154.5 269 154.948 269 155.5C269 156.052 269.448 156.5 270 156.5Z" fill="white"/>
<path d="M270 156.62C269.779 156.62 269.562 156.554 269.378 156.431C269.194 156.308 269.05 156.133 268.965 155.929C268.881 155.724 268.858 155.499 268.902 155.282C268.945 155.064 269.051 154.865 269.208 154.708C269.365 154.552 269.564 154.445 269.782 154.402C269.999 154.358 270.224 154.381 270.429 154.465C270.633 154.55 270.808 154.694 270.931 154.878C271.054 155.062 271.12 155.279 271.12 155.5C271.12 155.647 271.091 155.793 271.035 155.929C270.979 156.065 270.896 156.188 270.792 156.292C270.688 156.396 270.565 156.479 270.429 156.535C270.293 156.591 270.147 156.62 270 156.62ZM270 154.62C269.826 154.62 269.656 154.672 269.511 154.768C269.366 154.865 269.254 155.003 269.187 155.163C269.12 155.324 269.103 155.501 269.137 155.672C269.171 155.843 269.255 155.999 269.378 156.122C269.501 156.245 269.658 156.329 269.828 156.363C269.999 156.397 270.176 156.38 270.337 156.313C270.498 156.247 270.635 156.134 270.732 155.989C270.828 155.844 270.88 155.674 270.88 155.5C270.877 155.268 270.784 155.045 270.619 154.881C270.455 154.716 270.233 154.623 270 154.62Z" fill="#125BC9"/>
<path d="M238 157.5C239.105 157.5 240 156.605 240 155.5C240 154.395 239.105 153.5 238 153.5C236.895 153.5 236 154.395 236 155.5C236 156.605 236.895 157.5 238 157.5Z" fill="white"/>
<path d="M238 157.62C237.581 157.62 237.171 157.496 236.822 157.263C236.474 157.03 236.202 156.699 236.041 156.311C235.881 155.924 235.839 155.498 235.921 155.087C236.003 154.675 236.205 154.298 236.501 154.001C236.797 153.705 237.175 153.503 237.586 153.421C237.998 153.339 238.424 153.381 238.811 153.542C239.199 153.702 239.53 153.974 239.763 154.322C239.996 154.671 240.12 155.081 240.12 155.5C240.12 156.062 239.897 156.602 239.499 156.999C239.102 157.397 238.562 157.62 238 157.62ZM238 153.62C237.628 153.62 237.265 153.73 236.956 153.937C236.646 154.144 236.405 154.437 236.263 154.781C236.121 155.124 236.084 155.502 236.156 155.867C236.229 156.232 236.408 156.567 236.671 156.829C236.934 157.092 237.269 157.271 237.633 157.344C237.998 157.417 238.376 157.379 238.72 157.237C239.063 157.095 239.357 156.854 239.563 156.545C239.77 156.235 239.88 155.872 239.88 155.5C239.877 155.002 239.679 154.526 239.327 154.174C238.975 153.822 238.498 153.623 238 153.62Z" fill="#125BC9"/>
<path d="M21.5 79.5C22.0523 79.5 22.5 79.0523 22.5 78.5C22.5 77.9477 22.0523 77.5 21.5 77.5C20.9477 77.5 20.5 77.9477 20.5 78.5C20.5 79.0523 20.9477 79.5 21.5 79.5Z" fill="#125BC9"/>
<path d="M74.5001 167.5C75.0523 167.5 75.5001 167.052 75.5001 166.5C75.5001 165.948 75.0523 165.5 74.5001 165.5C73.9478 165.5 73.5001 165.948 73.5001 166.5C73.5001 167.052 73.9478 167.5 74.5001 167.5Z" fill="#125BC9"/>
<g opacity="0.22">
<path opacity="0.22" d="M21.7601 114H5.61327e-05C-0.0317698 114 -0.0622923 113.987 -0.0847967 113.965C-0.107301 113.942 -0.119944 113.912 -0.119944 113.88C-0.12133 113.864 -0.119254 113.847 -0.113848 113.831C-0.108441 113.815 -0.0998221 113.801 -0.0885377 113.789C-0.0772534 113.776 -0.0635504 113.767 -0.0482989 113.76C-0.0330473 113.753 -0.0165804 113.75 5.61327e-05 113.75H21.5101V78.7501C21.5087 78.7335 21.5107 78.7169 21.5162 78.7011C21.5216 78.6854 21.5302 78.6709 21.5415 78.6587C21.5527 78.6465 21.5664 78.6368 21.5817 78.6301C21.597 78.6235 21.6134 78.6201 21.6301 78.6201C21.6645 78.6201 21.6976 78.6338 21.722 78.6582C21.7464 78.6826 21.7601 78.7156 21.7601 78.7501V114Z" fill="#125BC9"/>
</g>
<g opacity="0.22">
<path opacity="0.22" d="M262.5 101.74H224C223.983 101.74 223.967 101.737 223.952 101.73C223.936 101.723 223.923 101.714 223.911 101.701C223.9 101.689 223.892 101.675 223.886 101.659C223.881 101.643 223.879 101.627 223.88 101.61C223.88 101.578 223.893 101.548 223.915 101.525C223.938 101.503 223.968 101.49 224 101.49H262.5C262.532 101.49 262.562 101.503 262.585 101.525C262.607 101.548 262.62 101.578 262.62 101.61C262.621 101.627 262.619 101.643 262.614 101.659C262.609 101.675 262.6 101.689 262.589 101.701C262.577 101.714 262.564 101.723 262.548 101.73C262.533 101.737 262.517 101.74 262.5 101.74Z" fill="#125BC9"/>
</g>
<path d="M263.5 102.5C264.052 102.5 264.5 102.052 264.5 101.5C264.5 100.948 264.052 100.5 263.5 100.5C262.948 100.5 262.5 100.948 262.5 101.5C262.5 102.052 262.948 102.5 263.5 102.5Z" fill="#125BC9"/>
<g opacity="0.22">
<path opacity="0.22" d="M221.5 49.74H197C196.983 49.74 196.967 49.7366 196.952 49.73C196.936 49.7234 196.923 49.7136 196.911 49.7014C196.9 49.6892 196.892 49.6747 196.886 49.659C196.881 49.6433 196.879 49.6266 196.88 49.61C196.88 49.5782 196.893 49.5476 196.915 49.5251C196.938 49.5026 196.968 49.49 197 49.49H221.5C221.532 49.49 221.562 49.5026 221.585 49.5251C221.607 49.5476 221.62 49.5782 221.62 49.61C221.621 49.6266 221.619 49.6433 221.614 49.659C221.609 49.6747 221.6 49.6892 221.589 49.7014C221.577 49.7136 221.564 49.7234 221.548 49.73C221.533 49.7366 221.517 49.74 221.5 49.74Z" fill="#125BC9"/>
</g>
<path d="M222.5 50.5C223.052 50.5 223.5 50.0523 223.5 49.5C223.5 48.9477 223.052 48.5 222.5 48.5C221.948 48.5 221.5 48.9477 221.5 49.5C221.5 50.0523 221.948 50.5 222.5 50.5Z" fill="#125BC9"/>
<path d="M55.5001 60.8601H38.0001C37.9338 60.8601 37.8702 60.8338 37.8233 60.7869C37.7764 60.74 37.7501 60.6764 37.7501 60.6101C37.7501 60.5438 37.7764 60.4802 37.8233 60.4333C37.8702 60.3864 37.9338 60.3601 38.0001 60.3601H55.5001C55.5664 60.3601 55.63 60.3864 55.6768 60.4333C55.7237 60.4802 55.7501 60.5438 55.7501 60.6101C55.7501 60.6764 55.7237 60.74 55.6768 60.7869C55.63 60.8338 55.5664 60.8601 55.5001 60.8601Z" fill="#293241"/>
<path d="M37.0001 61.5C37.5523 61.5 38.0001 61.0523 38.0001 60.5C38.0001 59.9477 37.5523 59.5 37.0001 59.5C36.4478 59.5 36.0001 59.9477 36.0001 60.5C36.0001 61.0523 36.4478 61.5 37.0001 61.5Z" fill="#125BC9"/>
<path d="M265 24.5C265.552 24.5 266 24.0523 266 23.5C266 22.9477 265.552 22.5 265 22.5C264.448 22.5 264 22.9477 264 23.5C264 24.0523 264.448 24.5 265 24.5Z" fill="#125BC9"/>
<g opacity="0.22">
<path opacity="0.22" d="M286.5 59.0001H264.74V23.7501C264.74 23.7156 264.754 23.6826 264.778 23.6582C264.803 23.6338 264.836 23.6201 264.87 23.6201C264.887 23.6201 264.903 23.6235 264.918 23.6301C264.934 23.6368 264.947 23.6465 264.959 23.6587C264.97 23.6709 264.979 23.6854 264.984 23.7011C264.989 23.7169 264.991 23.7335 264.99 23.7501V58.7501H286.5C286.517 58.7501 286.533 58.7535 286.548 58.7601C286.564 58.7668 286.577 58.7765 286.589 58.7887C286.6 58.8009 286.609 58.8154 286.614 58.8311C286.619 58.8469 286.621 58.8635 286.62 58.8801C286.62 58.9119 286.607 58.9425 286.585 58.965C286.562 58.9875 286.532 59.0001 286.5 59.0001Z" fill="#125BC9"/>
</g>
<path d="M64.5501 148.23H43.4501C42.9254 148.23 42.5001 148.653 42.5001 149.175C42.5001 149.697 42.9254 150.12 43.4501 150.12H64.5501C65.0747 150.12 65.5001 149.697 65.5001 149.175C65.5001 148.653 65.0747 148.23 64.5501 148.23Z" fill="#EE6C4D"/>
<path d="M254.55 78.23H233.45C232.925 78.23 232.5 78.6531 232.5 79.175C232.5 79.6969 232.925 80.12 233.45 80.12H254.55C255.075 80.12 255.5 79.6969 255.5 79.175C255.5 78.6531 255.075 78.23 254.55 78.23Z" fill="#16A3B9"/>
<path d="M234.75 98.1301H217.25C215.179 98.1301 213.5 99.8091 213.5 101.88C213.5 103.951 215.179 105.63 217.25 105.63H234.75C236.821 105.63 238.5 103.951 238.5 101.88C238.5 99.8091 236.821 98.1301 234.75 98.1301Z" fill="#125BC9"/>
<path d="M234.33 104.37C235.711 104.37 236.83 103.251 236.83 101.87C236.83 100.489 235.711 99.3701 234.33 99.3701C232.949 99.3701 231.83 100.489 231.83 101.87C231.83 103.251 232.949 104.37 234.33 104.37Z" fill="white"/>
<path d="M63.2901 107.63H48.7101C47.4895 107.63 46.5001 108.62 46.5001 109.84V109.92C46.5001 111.141 47.4895 112.13 48.7101 112.13H63.2901C64.5106 112.13 65.5001 111.141 65.5001 109.92V109.84C65.5001 108.62 64.5106 107.63 63.2901 107.63Z" fill="#293241"/>
<path d="M63.0001 111.37C63.8285 111.37 64.5001 110.699 64.5001 109.87C64.5001 109.042 63.8285 108.37 63.0001 108.37C62.1716 108.37 61.5001 109.042 61.5001 109.87C61.5001 110.699 62.1716 111.37 63.0001 111.37Z" fill="white"/>
<path d="M244.59 130.13H221C220.724 130.13 220.5 130.354 220.5 130.63C220.5 130.906 220.724 131.13 221 131.13H244.59C244.866 131.13 245.09 130.906 245.09 130.63C245.09 130.354 244.866 130.13 244.59 130.13Z" fill="#F9ACA2"/>
<path d="M220.5 131.63C221.052 131.63 221.5 131.182 221.5 130.63C221.5 130.078 221.052 129.63 220.5 129.63C219.948 129.63 219.5 130.078 219.5 130.63C219.5 131.182 219.948 131.63 220.5 131.63Z" fill="#EE6C4D"/>
<path d="M229.5 131.13C229.776 131.13 230 130.906 230 130.63C230 130.354 229.776 130.13 229.5 130.13C229.224 130.13 229 130.354 229 130.63C229 130.906 229.224 131.13 229.5 131.13Z" fill="#EE6C4D"/>
<path d="M239.5 131.13C239.776 131.13 240 130.906 240 130.63C240 130.354 239.776 130.13 239.5 130.13C239.224 130.13 239 130.354 239 130.63C239 130.906 239.224 131.13 239.5 131.13Z" fill="#BF3B21"/>
<path d="M137.5 99.1101H-0.889893V120.89H126.69L137.5 99.1101Z" fill="url(#paint0_linear_1143_8892)"/>
<path d="M195.73 180.5H117.13C116.75 175.29 116.54 171.76 116.54 171.76C116.54 171.76 116.26 167.51 115.09 151.05C115 149.91 114.92 148.71 114.83 147.44C114.41 141.67 113.9 134.61 113.28 126.01C113.28 125.31 113.18 124.61 113.15 123.91C113.1 122.91 113.06 121.91 113.05 120.91C113.05 119.74 113.05 118.57 113.05 117.41V117.31C113.05 116.19 113.05 115.08 113.13 113.97C113.19 112.63 113.26 111.3 113.36 109.97C113.36 109.76 113.36 109.54 113.36 109.33C113.48 107.85 113.62 106.38 113.8 104.92C113.893 104.087 113.993 103.267 114.1 102.46C114.1 102.33 114.1 102.21 114.15 102.08L114.24 101.43C114.245 101.404 114.245 101.377 114.24 101.35C114.245 101.324 114.245 101.297 114.24 101.27L114.57 99.1201C114.74 98.0101 114.93 96.9201 115.13 95.8401C115.13 95.8401 115.13 95.8401 115.13 95.7701C115.13 95.7001 115.13 95.7101 115.13 95.6901C115.19 95.3501 115.25 95.0101 115.32 94.6901C116.588 88.2092 118.258 81.8135 120.32 75.5401C122.079 70.106 124.115 64.7656 126.42 59.5401C126.74 58.8201 127.04 58.1501 127.32 57.5401C128.66 54.6301 129.53 53.0201 129.53 53.0201C130.08 51.9301 133.35 52.4801 133.35 52.4801C134.019 49.2617 135.115 46.1474 136.61 43.2201C138.79 39.4101 143.15 42.1301 143.15 42.1301C144.78 37.7701 148.05 37.7701 148.05 37.7701C151.92 37.2501 153.72 39.4301 154.53 41.8601C155.079 43.7104 155.283 45.6461 155.13 47.5701C155.67 45.9401 157.85 45.4001 157.85 45.4001C158.83 45.1785 159.856 45.2839 160.77 45.7001C164 47.1601 165 52.0001 165 52.0001L165.47 57.4001L165.7 60.0801L168.27 89.5801L170.45 86.8501C170.87 86.1834 171.29 85.5168 171.71 84.8501C179.01 74.1001 185.71 73.2401 189.37 73.8501C189.737 73.9161 190.085 74.0634 190.387 74.2811C190.69 74.4989 190.94 74.7816 191.119 75.1085C191.299 75.4354 191.403 75.7983 191.423 76.1706C191.444 76.5429 191.382 76.9152 191.24 77.2601L190.15 79.9401L186.24 89.5301C185.636 90.6231 185.092 91.7481 184.61 92.9001C182.07 98.8301 179.68 107.41 178.14 113.44C177.84 114.62 177.58 115.7 177.35 116.65C177.35 116.78 177.29 116.91 177.27 117.04C176.666 119.734 176.594 122.519 177.06 125.24C178.046 130.629 179.362 135.952 181 141.18L181.28 142.12V142.2C181.28 142.2 181.28 142.25 181.28 142.27C181.66 143.51 182.06 144.75 182.47 146C182.61 146.43 182.75 146.86 182.9 147.29C182.897 147.313 182.897 147.337 182.9 147.36C182.896 147.38 182.896 147.4 182.9 147.42C183 147.73 183.1 148.04 183.21 148.35C183.45 149.083 183.7 149.813 183.96 150.54C184.547 152.26 185.153 153.977 185.78 155.69C186.92 158.84 188.1 161.95 189.28 164.96C191.6 170.68 193.81 176 195.73 180.5Z" fill="url(#paint1_linear_1143_8892)"/>
<path d="M142.41 108.27C142.31 108.271 142.211 108.239 142.13 108.18C142.075 108.143 142.028 108.095 141.992 108.04C141.956 107.984 141.931 107.922 141.919 107.857C141.907 107.792 141.908 107.725 141.922 107.66C141.935 107.596 141.962 107.534 142 107.48C142.08 107.38 149.84 96.48 163.92 94.78L167.92 89.24C167.997 89.1313 168.114 89.0576 168.245 89.0351C168.376 89.0126 168.511 89.0431 168.62 89.12C168.729 89.1969 168.803 89.3139 168.825 89.4452C168.848 89.5764 168.817 89.7113 168.74 89.82L164.52 95.72H164.3C150.53 97.31 142.95 107.93 142.87 108.04C142.823 108.118 142.755 108.181 142.673 108.222C142.592 108.263 142.501 108.279 142.41 108.27Z" fill="#125BC9"/>
<path d="M131 94.1101C130.875 94.113 130.754 94.0681 130.661 93.9844C130.568 93.9008 130.51 93.7847 130.5 93.6601C129.94 87.5701 134.84 67.9701 137.06 61.3201C139.06 55.3201 133.5 53.0601 133.26 52.9601C133.199 52.9358 133.143 52.8997 133.096 52.8539C133.049 52.8081 133.011 52.7534 132.985 52.6931C132.959 52.6327 132.946 52.5678 132.945 52.5021C132.944 52.4364 132.956 52.3711 132.98 52.3101C133.004 52.249 133.04 52.1933 133.086 52.1462C133.132 52.0991 133.187 52.0615 133.247 52.0355C133.307 52.0095 133.372 51.9956 133.438 51.9947C133.504 51.9938 133.569 52.0058 133.63 52.0301C133.7 52.0301 140.31 54.7301 138.01 61.6401C135.87 68.0401 130.96 87.7101 131.49 93.5701C131.497 93.6353 131.491 93.7012 131.472 93.7639C131.453 93.8266 131.421 93.8848 131.379 93.9352C131.337 93.9855 131.286 94.027 131.227 94.057C131.169 94.087 131.105 94.1051 131.04 94.1101H131Z" fill="#125BC9"/>
<path d="M138 86.15C137.909 86.1493 137.82 86.1237 137.743 86.0762C137.665 86.0286 137.602 85.9608 137.56 85.88C137.5 85.7616 137.488 85.6243 137.527 85.4973C137.566 85.3703 137.653 85.2636 137.77 85.2C138.14 85.01 146.91 80.6 159.49 84.97C159.556 84.9917 159.616 85.026 159.669 85.0712C159.721 85.1163 159.764 85.1714 159.795 85.2331C159.826 85.2949 159.845 85.3621 159.85 85.4311C159.855 85.5 159.847 85.5693 159.825 85.635C159.803 85.7007 159.769 85.7614 159.724 85.8138C159.679 85.8661 159.624 85.9091 159.562 85.9402C159.5 85.9713 159.433 85.99 159.364 85.9951C159.295 86.0002 159.226 85.9917 159.16 85.97C147.01 81.74 138.32 86.1 138.23 86.14C138.155 86.1628 138.076 86.1662 138 86.15Z" fill="#125BC9"/>
<path d="M140.23 83.22C140.097 83.22 139.97 83.1673 139.876 83.0736C139.783 82.9798 139.73 82.8526 139.73 82.72C139.73 78.89 143.47 60.09 145.46 52.37C147.24 45.45 143 42.6 142.96 42.57C142.856 42.4952 142.785 42.3833 142.761 42.2576C142.737 42.1318 142.762 42.0016 142.832 41.8939C142.901 41.7862 143.009 41.7092 143.133 41.6787C143.258 41.6482 143.389 41.6666 143.5 41.73C143.7 41.86 148.39 45.01 146.42 52.62C144.45 60.23 140.73 79.03 140.73 82.72C140.73 82.8526 140.677 82.9798 140.584 83.0736C140.49 83.1673 140.363 83.22 140.23 83.22Z" fill="#125BC9"/>
<path d="M153.85 82.6801C153.718 82.6724 153.595 82.6139 153.505 82.5169C153.416 82.4199 153.367 82.292 153.37 82.1601L154.73 47.5801C154.735 47.45 154.79 47.3268 154.883 47.2357C154.976 47.1447 155.1 47.0925 155.23 47.0901C155.362 47.0978 155.485 47.1563 155.575 47.2533C155.664 47.3503 155.713 47.4782 155.71 47.6101L154.35 82.2001C154.345 82.3292 154.29 82.4513 154.197 82.5408C154.104 82.6303 153.979 82.6802 153.85 82.6801Z" fill="#125BC9"/>
<path d="M186 84.5C185.888 84.4993 185.779 84.4617 185.691 84.393C185.602 84.3243 185.539 84.2283 185.51 84.12C185.34 83.5299 185.294 82.9112 185.373 82.3023C185.453 81.6935 185.658 81.1077 185.974 80.5813C186.29 80.0549 186.711 79.5994 187.211 79.243C187.711 78.8866 188.279 78.6371 188.88 78.51C189.009 78.4799 189.144 78.5019 189.256 78.5712C189.369 78.6406 189.449 78.7515 189.48 78.88C189.497 78.943 189.5 79.0087 189.491 79.0732C189.482 79.1377 189.46 79.1997 189.426 79.2556C189.393 79.3114 189.348 79.36 189.296 79.3986C189.243 79.4371 189.183 79.4648 189.12 79.48C188.652 79.5844 188.21 79.7832 187.821 80.0642C187.432 80.3451 187.105 80.7024 186.859 81.1142C186.612 81.526 186.453 81.9836 186.389 82.4591C186.326 82.9347 186.36 83.4181 186.49 83.88C186.52 84.0098 186.499 84.1464 186.43 84.2604C186.36 84.3745 186.249 84.4568 186.12 84.49L186 84.5Z" fill="#125BC9"/>
<g opacity="0.15">
<path opacity="0.15" d="M158.042 110.769C163.303 107.731 166.496 103.412 165.173 101.121C163.85 98.8297 158.513 99.4348 153.252 102.472C147.991 105.51 144.798 109.83 146.121 112.121C147.443 114.412 152.781 113.807 158.042 110.769Z" fill="#F4F3EE"/>
</g>
<g opacity="0.15">
<path opacity="0.15" d="M147.859 93.5722C153.898 92.9087 158.628 90.8666 158.424 89.011C158.22 87.1555 153.16 86.1891 147.121 86.8526C141.082 87.5161 136.352 89.5582 136.556 91.4137C136.76 93.2693 141.82 94.2356 147.859 93.5722Z" fill="#F4F3EE"/>
</g>
<g opacity="0.1">
<path opacity="0.1" d="M159.49 83.21C161.357 83.21 162.87 78.2851 162.87 72.21C162.87 66.1348 161.357 61.21 159.49 61.21C157.623 61.21 156.11 66.1348 156.11 72.21C156.11 78.2851 157.623 83.21 159.49 83.21Z" fill="#F4F3EE"/>
</g>
<g opacity="0.1">
<path opacity="0.1" d="M152.855 69.4884C153.463 63.4438 152.763 58.4235 151.29 58.2752C149.817 58.1269 148.13 62.9068 147.522 68.9513C146.913 74.9959 147.613 80.0162 149.086 80.1645C150.559 80.3128 152.246 75.5329 152.855 69.4884Z" fill="#F4F3EE"/>
</g>
<g opacity="0.1">
<path opacity="0.1" d="M140.886 69.567C141.695 65.6793 141.583 62.3681 140.637 62.1713C139.691 61.9744 138.268 64.9665 137.459 68.8542C136.651 72.7419 136.762 76.0531 137.708 76.2499C138.655 76.4467 140.077 73.4547 140.886 69.567Z" fill="#F4F3EE"/>
</g>
<g opacity="0.1">
<path opacity="0.1" d="M131.778 78.8908C133.015 72.9429 132.865 67.8815 131.443 67.5857C130.021 67.2899 127.865 71.8718 126.628 77.8196C125.391 83.7674 125.541 88.8289 126.963 89.1247C128.385 89.4205 130.54 84.8386 131.778 78.8908Z" fill="#F4F3EE"/>
</g>
<g opacity="0.15">
<path opacity="0.15" d="M183.34 80.4579C185.442 79.021 186.545 76.9765 185.803 75.8914C185.061 74.8063 182.756 75.0916 180.654 76.5285C178.552 77.9655 177.45 80.01 178.192 81.0951C178.933 82.1802 181.239 81.8949 183.34 80.4579Z" fill="#F4F3EE"/>
</g>
<g opacity="0.15">
<path opacity="0.15" d="M134.222 60.548C135.472 60.2911 136.206 58.7277 135.862 57.0561C135.519 55.3845 134.227 54.2377 132.977 54.4947C131.728 54.7516 130.993 56.315 131.337 57.9866C131.681 59.6582 132.972 60.805 134.222 60.548Z" fill="#F4F3EE"/>
</g>
<g opacity="0.15">
<path opacity="0.15" d="M142.222 49.5522C143.472 49.2952 144.206 47.7318 143.863 46.0602C143.519 44.3886 142.227 43.2419 140.978 43.4988C139.728 43.7558 138.994 45.3192 139.337 46.9908C139.681 48.6624 140.973 49.8091 142.222 49.5522Z" fill="#F4F3EE"/>
</g>
<g opacity="0.15">
<path opacity="0.15" d="M151.224 46.5509C152.473 46.294 153.208 44.7306 152.864 43.059C152.52 41.3874 151.229 40.2406 149.979 40.4976C148.729 40.7546 147.995 42.318 148.339 43.9896C148.682 45.6611 149.974 46.8079 151.224 46.5509Z" fill="#F4F3EE"/>
</g>
<g opacity="0.15">
<path opacity="0.15" d="M160.221 54.5541C161.47 54.2972 162.205 52.7338 161.861 51.0622C161.517 49.3906 160.225 48.2438 158.976 48.5008C157.726 48.7577 156.992 50.3212 157.336 51.9927C157.679 53.6643 158.971 54.8111 160.221 54.5541Z" fill="#F4F3EE"/>
</g>
<g opacity="0.5">
<path opacity="0.5" d="M171.72 152V0H192.5V140.45L171.72 152Z" fill="url(#paint2_linear_1143_8892)"/>
</g>
<g opacity="0.5">
<path opacity="0.5" d="M126.5 103.5V0.5H104.72V95.45L126.5 103.5Z" fill="url(#paint3_linear_1143_8892)"/>
</g>
<path d="M191 138.74L192.2 140.45C192.356 140.741 192.437 141.065 192.437 141.395C192.437 141.725 192.356 142.049 192.2 142.34C192.204 142.373 192.204 142.407 192.2 142.44C191.349 144.113 190.188 145.609 188.78 146.85L188.71 146.91L188.22 147.37L188.15 147.43C187.067 148.393 185.929 149.291 184.74 150.12C182.081 152.118 179.048 153.56 175.82 154.36H175.72L175.18 154.43H174.5C174.349 154.421 174.198 154.401 174.05 154.37H173.91C173.578 154.295 173.283 154.104 173.08 153.83L171.88 152.12L171.79 152.01C170.64 150.37 174.01 146.01 179.31 142.35C184.61 138.69 189.83 136.99 190.98 138.63C190.989 138.666 190.996 138.703 191 138.74Z" fill="white"/>
<path d="M174.65 154.59H174.41C174.255 154.589 174.101 154.572 173.95 154.54H173.8C173.438 154.459 173.116 154.254 172.89 153.96L171.63 152.15C171.04 151.3 171.52 149.81 172.97 147.93C174.761 145.77 176.853 143.878 179.18 142.31C184.62 138.52 189.82 136.89 191.02 138.62L192.28 140.42C192.447 140.727 192.535 141.071 192.535 141.42C192.535 141.769 192.447 142.113 192.28 142.42V142.53C191.421 144.218 190.251 145.728 188.83 146.98L188.76 147.04C188.6 147.2 188.43 147.35 188.26 147.5C187.175 148.468 186.033 149.369 184.84 150.2C182.151 152.204 179.093 153.655 175.84 154.47H175.76C175.55 154.47 175.37 154.53 175.19 154.54H174.73L174.65 154.59ZM172 152.15L173.13 153.76C173.319 154.011 173.593 154.185 173.9 154.25H174.03C174.168 154.281 174.309 154.298 174.45 154.3H175.12L175.65 154.24H175.74C178.949 153.433 181.967 151.999 184.62 150.02C185.802 149.195 186.934 148.3 188.01 147.34H188.06L188.56 146.88L188.62 146.82C190.021 145.593 191.175 144.109 192.02 142.45V142.35C192.165 142.077 192.24 141.774 192.24 141.465C192.24 141.156 192.165 140.853 192.02 140.58L190.9 138.98L190.82 138.85L190.76 138.74C189.67 137.19 184.41 138.9 179.26 142.49C176.954 144.047 174.883 145.926 173.11 148.07C171.75 149.82 171.26 151.25 171.77 151.98L171.85 152.08L171.94 152.18L172 152.15Z" fill="#125BC9"/>
<path d="M172.54 151.6L174.54 154.47H174.42L172.42 151.67L172.54 151.6Z" fill="#B2B6BF"/>
<path d="M173.33 151.9L175.1 154.45H175L173.25 151.95L173.33 151.9Z" fill="#B2B6BF"/>
<path d="M173.8 151.58L175.74 154.36H175.64L173.72 151.61L173.8 151.58Z" fill="#B2B6BF"/>
<path d="M185.42 143.47L188.14 147.37L188.07 147.43L185.34 143.53L185.42 143.47Z" fill="#B2B6BF"/>
<path d="M172 151.5L174 154.4H173.86L171.86 151.59L172 151.5Z" fill="#B2B6BF"/>
<path d="M186 143L188.66 146.81L188.59 146.87L186 143.09V143Z" fill="#B2B6BF"/>
<path d="M189.37 138.33L192.16 142.33C192.164 142.363 192.164 142.397 192.16 142.43L189.34 138.38L189.37 138.33Z" fill="#B2B6BF"/>
<path d="M183.384 148.278C188.684 144.582 192.051 140.253 190.905 138.609C189.758 136.964 184.531 138.627 179.231 142.323C173.931 146.02 170.564 150.349 171.711 151.993C172.857 153.638 178.084 151.975 183.384 148.278Z" fill="white"/>
<path d="M173.4 152.76C173.07 152.799 172.736 152.758 172.426 152.639C172.116 152.521 171.84 152.329 171.62 152.08C171.03 151.23 171.51 149.74 172.96 147.86C174.751 145.7 176.843 143.808 179.17 142.24C184.61 138.45 189.81 136.82 191.01 138.55C191.6 139.39 191.12 140.89 189.66 142.76C187.878 144.928 185.789 146.825 183.46 148.39C179.5 151.16 175.65 152.76 173.4 152.76ZM189.26 138.12C187.08 138.12 183.16 139.76 179.31 142.44C177.004 143.997 174.933 145.876 173.16 148.02C171.8 149.77 171.31 151.2 171.82 151.93C172.91 153.49 178.17 151.77 183.32 148.19C185.624 146.63 187.694 144.752 189.47 142.61C190.83 140.86 191.32 139.43 190.81 138.69C190.616 138.478 190.374 138.316 190.104 138.217C189.835 138.118 189.545 138.084 189.26 138.12Z" fill="#125BC9"/>
<g opacity="0.22">
<path opacity="0.22" d="M175.58 150.73C175.338 150.758 175.092 150.727 174.864 150.64C174.636 150.553 174.432 150.412 174.27 150.23C173.83 149.6 174.18 148.51 175.27 147.14C176.563 145.571 178.075 144.197 179.76 143.06C183.71 140.31 187.5 139.14 188.38 140.4C188.81 141.02 188.47 142.12 187.38 143.49C186.087 145.059 184.575 146.433 182.89 147.57C180 149.57 177.23 150.73 175.58 150.73ZM187.06 140.14C185.5 140.14 182.67 141.32 179.88 143.26C178.218 144.377 176.724 145.723 175.44 147.26C174.44 148.52 174.11 149.53 174.44 150.05C175.22 151.16 179 149.92 182.71 147.33C184.379 146.219 185.878 144.872 187.16 143.33C188.16 142.07 188.49 141.05 188.16 140.53C188.021 140.382 187.849 140.269 187.658 140.201C187.466 140.133 187.261 140.112 187.06 140.14Z" fill="#125BC9"/>
</g>
<g opacity="0.26">
<path opacity="0.26" d="M188.3 140.45C187.54 139.37 184.61 140.11 181.3 142.12C180.8 142.42 180.3 142.75 179.79 143.12C175.88 145.85 173.49 148.96 174.35 150.2C174.418 150.291 174.503 150.369 174.6 150.43C175.79 151.25 179.26 150.06 182.87 147.54L183.01 147.44C184.151 146.642 185.221 145.749 186.21 144.77L186.28 144.7C186.45 144.53 186.61 144.36 186.75 144.2L186.81 144.13C187.067 143.847 187.307 143.55 187.53 143.24C188.39 142 188.71 141 188.3 140.45ZM174.68 150.35C174.57 150.306 174.475 150.229 174.41 150.13C173.62 148.99 176.11 145.83 179.85 143.22C180.34 142.88 180.85 142.55 181.33 142.27C184.56 140.27 187.53 139.51 188.22 140.5C188.61 141.07 188.22 142.14 187.22 143.4C187.07 143.59 186.9 143.79 186.72 143.99C186.706 144.018 186.686 144.042 186.66 144.06C186.52 144.23 186.36 144.39 186.2 144.56L186.13 144.63C185.156 145.607 184.099 146.497 182.97 147.29L182.8 147.41C179.35 149.8 175.86 151 174.68 150.35Z" fill="#B2B6BF"/>
</g>
<g opacity="0.5">
<path opacity="0.5" d="M189.37 165C183.17 167.35 177.74 167.53 176.73 165.27C175.72 163.01 179.73 158.83 185.87 155.73C187 158.84 188.19 162 189.37 165Z" fill="#293241"/>
</g>
<path d="M128.22 103.48L127.46 105.61C127.302 105.929 127.066 106.204 126.774 106.408C126.482 106.612 126.144 106.74 125.79 106.78H125.67C123.672 107.078 121.636 106.993 119.67 106.53H119.57L118.86 106.39H118.76C117.23 106.052 115.723 105.614 114.25 105.08C110.1 103.61 106.68 101.65 104.9 99.8901L104.82 99.8101C104.68 99.6701 104.55 99.5201 104.43 99.3801L104.35 99.2901C104.24 99.1601 104.14 99.0201 104.05 98.9001C104.033 98.8599 104.009 98.8228 103.98 98.7901C103.894 98.652 103.817 98.5084 103.75 98.3601L103.69 98.2201C103.561 97.8716 103.561 97.4886 103.69 97.1401L104.45 95.0101C104.446 94.9602 104.446 94.91 104.45 94.8601C105.18 92.8601 111.11 93.0701 117.69 95.4101C124.27 97.7501 129.03 101.32 128.3 103.41C128.276 103.436 128.249 103.459 128.22 103.48Z" fill="white"/>
<path d="M123.69 107.12C122.327 107.099 120.968 106.955 119.63 106.69H119.53L118.81 106.54H118.71C117.178 106.194 115.668 105.753 114.19 105.22C110.19 103.79 106.66 101.84 104.79 100L104.73 99.9401C104.582 99.7944 104.442 99.6408 104.31 99.4801L104.23 99.3901C104.12 99.2501 104.01 99.1101 103.93 98.9901L103.86 98.8701C103.77 98.729 103.69 98.582 103.62 98.4301L103.56 98.3001C103.403 97.9258 103.382 97.5084 103.5 97.1201L104.31 94.8601C104.68 93.8601 106.31 93.2901 108.86 93.4101C111.891 93.6231 114.875 94.2731 117.72 95.3401C124.47 97.7401 129.16 101.34 128.4 103.44L127.6 105.69C127.432 106.026 127.184 106.316 126.876 106.532C126.569 106.748 126.213 106.885 125.84 106.93H125.76C125.079 107.071 124.385 107.135 123.69 107.12ZM104.45 95.1201L103.74 97.1201C103.63 97.4478 103.648 97.805 103.79 98.1201C103.806 98.1682 103.826 98.215 103.85 98.2601C103.914 98.4018 103.987 98.5388 104.07 98.6701L104.14 98.7801C104.22 98.8901 104.32 99.0301 104.43 99.1601L104.5 99.2501C104.622 99.3971 104.752 99.5373 104.89 99.6701L104.97 99.7501C106.81 101.57 110.29 103.5 114.27 104.92C115.739 105.444 117.238 105.878 118.76 106.22H118.83L119.54 106.37H119.64C121.607 106.831 123.643 106.912 125.64 106.61H125.75C126.62 106.39 127.16 106.03 127.34 105.52L128.06 103.52L128.11 103.39L128.17 103.26C128.87 101.26 124.17 97.8001 117.63 95.4801C114.811 94.4234 111.853 93.7801 108.85 93.5701C106.44 93.4701 104.85 93.9401 104.55 94.8601C104.544 94.9033 104.544 94.947 104.55 94.9901V95.1301L104.45 95.1201Z" fill="#125BC9"/>
<path d="M105.3 95.31L104 98.88C103.983 98.8399 103.959 98.8027 103.93 98.77L105.17 95.28L105.3 95.31Z" fill="#B2B6BF"/>
<path d="M105.53 96.2001L104.41 99.3602L104.33 99.2701L105.44 96.1602L105.53 96.2001Z" fill="#B2B6BF"/>
<path d="M106.11 96.4101L104.88 99.8701L104.8 99.7901L106 96.3701L106.11 96.4101Z" fill="#B2B6BF"/>
<path d="M120.56 101.55L118.84 106.4H118.74L120.47 101.55H120.56Z" fill="#B2B6BF"/>
<path d="M105 94.73L103.71 98.34L103.65 98.2L104.9 94.7L105 94.73Z" fill="#B2B6BF"/>
<path d="M121.34 101.83L119.65 106.56H119.55L121.24 101.81L121.34 101.83Z" fill="#B2B6BF"/>
<path d="M127.57 101.8L125.8 106.8H125.68L127.48 101.8H127.57Z" fill="#B2B6BF"/>
<path d="M128.288 103.339C129.014 101.299 124.263 97.7446 117.677 95.3992C111.09 93.0537 105.161 92.8057 104.435 94.8452C103.709 96.8847 108.46 100.439 115.047 102.785C121.633 105.13 127.562 105.378 128.288 103.339Z" fill="white"/>
<path d="M124.48 104.86C121.233 104.709 118.032 104.033 115 102.86C112.123 101.887 109.401 100.502 106.92 98.75C104.92 97.22 103.92 95.75 104.31 94.75C104.7 93.75 106.31 93.18 108.86 93.3C111.891 93.5129 114.875 94.163 117.72 95.23C124.47 97.63 129.16 101.23 128.4 103.33C128.05 104.37 126.6 104.86 124.48 104.86ZM108.23 93.59C106.17 93.59 104.85 94.05 104.55 94.89C104.25 95.73 105.14 97.16 107.07 98.6C109.526 100.336 112.221 101.707 115.07 102.67C121.59 104.99 127.46 105.27 128.16 103.3C128.86 101.3 124.16 97.83 117.62 95.51C114.801 94.4533 111.843 93.81 108.84 93.6L108.23 93.59Z" fill="#125BC9"/>
<g opacity="0.22">
<path opacity="0.22" d="M122.24 103.29H121.78C119.583 103.138 117.42 102.667 115.36 101.89C113.276 101.176 111.306 100.166 109.51 98.89C108.01 97.77 107.33 96.73 107.61 95.96C107.89 95.19 109.05 94.81 110.93 94.88C115.329 95.266 119.556 96.7703 123.21 99.25C124.71 100.37 125.38 101.42 125.11 102.19C124.85 102.91 123.84 103.29 122.24 103.29ZM110.47 95.14C109 95.14 108.06 95.47 107.85 96.06C107.64 96.65 108.27 97.68 109.66 98.71C113.27 101.155 117.446 102.632 121.79 103C123.51 103.07 124.64 102.74 124.87 102.09C125.1 101.44 124.44 100.48 123.06 99.44C121.28 98.1887 119.33 97.1986 117.27 96.5C115.229 95.744 113.091 95.2795 110.92 95.12L110.47 95.14Z" fill="#125BC9"/>
</g>
<g opacity="0.26">
<path opacity="0.26" d="M122.92 99.1101C121.188 97.9494 119.312 97.0183 117.34 96.3401C116.62 96.0801 115.91 95.8601 115.22 95.6801C111.29 94.6001 108.15 94.6801 107.68 96.0001C107.632 96.1735 107.632 96.3566 107.68 96.5301C107.79 97.2801 108.6 98.1901 109.9 99.1101C111.28 100.041 112.759 100.816 114.31 101.42L115.42 101.84C116.896 102.378 118.42 102.776 119.97 103.03H120.07C120.32 103.03 120.56 103.11 120.8 103.13H120.9C122.135 103.377 123.415 103.241 124.57 102.74C124.806 102.612 124.987 102.402 125.08 102.15C125.33 101.36 124.5 100.24 122.92 99.1101ZM124.92 102.11C124.871 102.238 124.796 102.355 124.699 102.453C124.603 102.552 124.488 102.629 124.36 102.68C123.252 103.078 122.059 103.178 120.9 102.97H120.79L120.06 102.87H120C118.451 102.611 116.928 102.213 115.45 101.68C115.06 101.54 114.68 101.4 114.31 101.24C112.856 100.676 111.468 99.9547 110.17 99.0901C109.117 98.5356 108.279 97.6451 107.79 96.5601C107.735 96.3843 107.735 96.1958 107.79 96.0201C108.21 94.8201 111.4 94.7801 115.2 95.8101C115.88 96.0001 116.58 96.2201 117.29 96.4701C119.174 97.1138 120.968 97.9942 122.63 99.0901C124.29 100.25 125.21 101.38 124.94 102.15L124.92 102.11Z" fill="#B2B6BF"/>
</g>
<g opacity="0.5">
<path opacity="0.5" d="M125.26 115.84C124.81 118.01 119.4 118.71 113.19 117.42H113.03C113.03 114.92 113.16 112.42 113.34 109.99C113.34 109.78 113.34 109.56 113.34 109.35C113.81 109.42 114.28 109.51 114.76 109.61C121 110.88 125.71 113.68 125.26 115.84Z" fill="#293241"/>
</g>
<g opacity="0.2">
<path opacity="0.2" d="M125.318 116.257C125.836 114.149 121.168 111.191 114.893 109.649C108.618 108.108 103.111 108.567 102.593 110.675C102.076 112.783 106.743 115.741 113.018 117.282C119.293 118.824 124.8 118.364 125.318 116.257Z" fill="#293241"/>
</g>
</g>
<defs>
<linearGradient id="paint0_linear_1143_8892" x1="18.8601" y1="110.08" x2="138.5" y2="109.73" gradientUnits="userSpaceOnUse">
<stop stop-color="#EE6C4D" stop-opacity="0.2"/>
<stop offset="0.11" stop-color="#E46E52" stop-opacity="0.24"/>
<stop offset="0.29" stop-color="#CA755F" stop-opacity="0.33"/>
<stop offset="0.5" stop-color="#9E8075" stop-opacity="0.49"/>
<stop offset="0.74" stop-color="#629093" stop-opacity="0.72"/>
<stop offset="1" stop-color="#16A3B9"/>
</linearGradient>
<linearGradient id="paint1_linear_1143_8892" x1="148" y1="-4" x2="155.2" y2="162.22" gradientUnits="userSpaceOnUse">
<stop stop-color="#0B7E8F"/>
<stop offset="0.28" stop-color="#1593BD"/>
<stop offset="0.666037" stop-color="#1368C6"/>
<stop offset="1" stop-color="#125BC9"/>
</linearGradient>
<linearGradient id="paint2_linear_1143_8892" x1="182.25" y1="21.73" x2="181.87" y2="153.13" gradientUnits="userSpaceOnUse">
<stop stop-color="#EE6C4D" stop-opacity="0.5"/>
<stop offset="0.12" stop-color="#E46B53" stop-opacity="0.52"/>
<stop offset="0.3" stop-color="#C86963" stop-opacity="0.59"/>
<stop offset="0.51" stop-color="#99657D" stop-opacity="0.69"/>
<stop offset="0.76" stop-color="#5A61A0" stop-opacity="0.84"/>
<stop offset="1" stop-color="#125BC9"/>
</linearGradient>
<linearGradient id="paint3_linear_1143_8892" x1="-10269.1" y1="1568.16" x2="-10147.3" y2="10739.8" gradientUnits="userSpaceOnUse">
<stop stop-color="#EE6C4D" stop-opacity="0.5"/>
<stop offset="0.12" stop-color="#E46B53" stop-opacity="0.52"/>
<stop offset="0.3" stop-color="#C86963" stop-opacity="0.59"/>
<stop offset="0.51" stop-color="#99657D" stop-opacity="0.69"/>
<stop offset="0.76" stop-color="#5A61A0" stop-opacity="0.84"/>
<stop offset="1" stop-color="#125BC9"/>
</linearGradient>
<clipPath id="clip0_1143_8892">
<rect width="286" height="180" rx="8" fill="white"/>
</clipPath>
</defs>
</svg>
