<svg width="286" height="180" viewBox="0 0 286 180" fill="none" xmlns="http://www.w3.org/2000/svg">
<g clip-path="url(#clip0_1143_8784)">
<path d="M286 0H0V180H286V0Z" fill="#E5EFFF"/>
<g opacity="0.2">
<path opacity="0.2" d="M214.25 131.05H68.75C66.531 131.047 64.4035 130.165 62.8344 128.596C61.2653 127.026 60.3827 124.899 60.38 122.68V40.32C60.3958 38.1096 61.2843 35.995 62.852 34.4367C64.4197 32.8784 66.5396 32.0026 68.75 32H214.25C216.469 32.0026 218.596 32.8853 220.166 34.4544C221.735 36.0235 222.617 38.1509 222.62 40.37V122.73C222.604 124.94 221.716 127.055 220.148 128.613C218.58 130.172 216.46 131.047 214.25 131.05ZM68.75 32.2C66.5955 32.2 64.5291 33.0552 63.0048 34.5777C61.4804 36.1002 60.6227 38.1655 60.62 40.32V122.68C60.6227 124.834 61.4804 126.9 63.0048 128.422C64.5291 129.945 66.5955 130.8 68.75 130.8H214.25C216.404 130.8 218.471 129.945 219.995 128.422C221.52 126.9 222.377 124.834 222.38 122.68V40.32C222.377 38.1655 221.52 36.1002 219.995 34.5777C218.471 33.0552 216.404 32.2 214.25 32.2H68.75Z" fill="#125BC9"/>
</g>
<g opacity="0.4">
<path opacity="0.4" d="M205.25 119.62H79.9401C78.8409 119.62 77.7525 119.403 76.737 118.983C75.7215 118.562 74.7988 117.946 74.0216 117.168C73.2444 116.391 72.6278 115.468 72.2072 114.453C71.7866 113.437 71.5701 112.349 71.5701 111.25V65.7499C71.5701 64.6507 71.7866 63.5623 72.2072 62.5468C72.6278 61.5313 73.2444 60.6086 74.0216 59.8314C74.7988 59.0542 75.7215 58.4376 76.737 58.017C77.7525 57.5964 78.8409 57.3799 79.9401 57.3799H205.25C207.47 57.3799 209.599 58.2617 211.169 59.8314C212.738 61.4011 213.62 63.53 213.62 65.7499V111.25C213.62 112.349 213.404 113.437 212.983 114.453C212.562 115.468 211.946 116.391 211.169 117.168C210.391 117.946 209.469 118.562 208.453 118.983C207.438 119.403 206.349 119.62 205.25 119.62ZM79.9401 57.6199C77.7856 57.6225 75.7203 58.4803 74.1978 60.0046C72.6752 61.529 71.8201 63.5954 71.8201 65.7499V111.25C71.8201 113.404 72.6752 115.471 74.1978 116.995C75.7203 118.52 77.7856 119.377 79.9401 119.38H205.25C207.405 119.377 209.472 118.52 210.996 116.996C212.52 115.472 213.377 113.405 213.38 111.25V65.7499C213.377 63.5945 212.52 61.5281 210.996 60.004C209.472 58.4799 207.405 57.6225 205.25 57.6199H79.9401Z" fill="#125BC9"/>
</g>
<g opacity="0.4">
<path opacity="0.4" d="M211.5 43.6199H91.6901C91.1278 43.6199 90.5886 43.3965 90.191 42.9989C89.7934 42.6014 89.5701 42.0621 89.5701 41.4999C89.5701 40.9376 89.7934 40.3984 90.191 40.0008C90.5886 39.6032 91.1278 39.3799 91.6901 39.3799H211.5C212.062 39.3799 212.602 39.6032 212.999 40.0008C213.397 40.3984 213.62 40.9376 213.62 41.4999C213.62 42.0621 213.397 42.6014 212.999 42.9989C212.602 43.3965 212.062 43.6199 211.5 43.6199ZM91.6901 39.6199C91.1915 39.6199 90.7133 39.818 90.3607 40.1705C90.0081 40.5231 89.8101 41.0013 89.8101 41.4999C89.8101 41.9985 90.0081 42.4767 90.3607 42.8292C90.7133 43.1818 91.1915 43.3799 91.6901 43.3799H211.5C211.999 43.3799 212.477 43.1818 212.829 42.8292C213.182 42.4767 213.38 41.9985 213.38 41.4999C213.38 41.0013 213.182 40.5231 212.829 40.1705C212.477 39.818 211.999 39.6199 211.5 39.6199H91.6901Z" fill="#125BC9"/>
</g>
<g opacity="0.5">
<path opacity="0.5" d="M217.75 125.55H74.25C72.031 125.547 69.9036 124.665 68.3344 123.096C66.7653 121.526 65.8827 119.399 65.88 117.18V34.82C65.8827 32.6009 66.7653 30.4735 68.3344 28.9044C69.9036 27.3353 72.031 26.4526 74.25 26.45H217.75C219.969 26.4526 222.096 27.3353 223.666 28.9044C225.235 30.4735 226.117 32.6009 226.12 34.82V117.18C226.117 119.399 225.235 121.526 223.666 123.096C222.096 124.665 219.969 125.547 217.75 125.55ZM74.25 26.7C72.0955 26.6999 70.0291 27.5551 68.5048 29.0776C66.9804 30.6001 66.1227 32.6655 66.12 34.82V117.18C66.1227 119.334 66.9804 121.4 68.5048 122.922C70.0291 124.445 72.0955 125.3 74.25 125.3H217.75C219.904 125.3 221.971 124.445 223.495 122.922C225.02 121.4 225.877 119.334 225.88 117.18V34.82C225.877 32.6655 225.02 30.6001 223.495 29.0776C221.971 27.5551 219.904 26.6999 217.75 26.7H74.25Z" fill="#125BC9"/>
</g>
<path d="M213.53 128.73H69.47C67.8212 128.727 66.2406 128.071 65.0747 126.905C63.9088 125.739 63.2526 124.159 63.25 122.51V40.51C63.2526 38.8612 63.9088 37.2807 65.0747 36.1148C66.2406 34.9489 67.8212 34.2927 69.47 34.29H213.53C215.179 34.2927 216.759 34.9489 217.925 36.1148C219.091 37.2807 219.747 38.8612 219.75 40.51V122.51C219.747 124.159 219.091 125.739 217.925 126.905C216.759 128.071 215.179 128.727 213.53 128.73ZM69.47 34.73C67.9538 34.7327 66.5004 35.3362 65.4283 36.4083C64.3561 37.4804 63.7526 38.9338 63.75 40.45V122.45C63.7526 123.966 64.3561 125.42 65.4283 126.492C66.5004 127.564 67.9538 128.167 69.47 128.17H213.53C215.046 128.167 216.5 127.564 217.572 126.492C218.644 125.42 219.247 123.966 219.25 122.45V40.45C219.247 38.9338 218.644 37.4804 217.572 36.4083C216.5 35.3362 215.046 34.7327 213.53 34.73H69.47Z" fill="#293241"/>
<path d="M162.53 144.65H161.93H159.41L125.57 144.83H125.36H121.36C120.918 144.833 120.48 144.748 120.07 144.581C119.661 144.414 119.289 144.168 118.975 143.857C118.661 143.545 118.411 143.175 118.241 142.767C118.07 142.36 117.981 141.922 117.98 141.48V137.89V130.13V129.41L117.92 118.03V117.56L117.85 105.06V100.06V99.0601L117.79 87.4601V83.0401L117.73 71.1201V64.6401V57.2001L117.68 48.5901C117.677 48.148 117.762 47.7098 117.929 47.3005C118.096 46.8912 118.342 46.5188 118.653 46.2048C118.965 45.8908 119.335 45.6413 119.743 45.4707C120.15 45.3 120.588 45.2114 121.03 45.2101L147.63 45.0601H154.47H162.2C162.642 45.0575 163.08 45.1421 163.49 45.3092C163.899 45.4762 164.271 45.7224 164.585 46.0336C164.899 46.3448 165.149 46.7149 165.319 47.1227C165.49 47.5305 165.579 47.968 165.58 48.4101V56.5701L165.66 70.9101V78.4201L165.77 98.5901L165.98 135.59V141.2C165.991 141.656 165.909 142.11 165.74 142.533C165.57 142.957 165.316 143.341 164.994 143.664C164.671 143.987 164.287 144.24 163.863 144.41C163.44 144.579 162.986 144.661 162.53 144.65Z" fill="#125BC9"/>
<g opacity="0.19">
<path opacity="0.19" d="M161.193 47.3874L121.633 47.6084C120.374 47.6154 119.359 48.6419 119.366 49.9011L119.866 139.45C119.873 140.709 120.9 141.724 122.159 141.717L161.718 141.496C162.978 141.489 163.993 140.462 163.986 139.203L163.486 49.6546C163.479 48.3955 162.452 47.3804 161.193 47.3874Z" fill="#E1E5F2"/>
</g>
<g opacity="0.6">
<path opacity="0.6" d="M161.71 141.5L122.15 141.72C121.85 141.723 121.553 141.666 121.275 141.553C120.998 141.44 120.745 141.273 120.532 141.062C120.319 140.851 120.15 140.6 120.035 140.323C119.919 140.047 119.86 139.75 119.86 139.45L119.08 0.5L163.21 0L164 139.21C164 139.817 163.759 140.4 163.329 140.829C162.9 141.259 162.317 141.5 161.71 141.5Z" fill="url(#paint0_linear_1143_8784)"/>
</g>
<path d="M117.58 71.21C116.091 70.403 114.741 69.3633 113.58 68.13C109.81 64.13 109.85 59.31 111.94 57.32C112.464 56.7843 113.137 56.4179 113.871 56.2682C114.606 56.1185 115.368 56.1923 116.06 56.48L116.34 56.59C116.733 56.775 117.102 57.0067 117.44 57.28V64.93V71.21H117.58Z" fill="#347AE3"/>
<path d="M117.65 83.1201C117.65 83.1201 108.19 81.2901 106.95 85.7001C105.71 90.1101 106.37 95.4401 112.69 98.1001C113.604 98.6051 114.583 98.982 115.6 99.2201C116.229 99.3511 116.88 99.3417 117.505 99.1924C118.13 99.0432 118.715 98.7579 119.217 98.3567C119.72 97.9556 120.127 97.4486 120.411 96.8719C120.695 96.2951 120.848 95.6628 120.86 95.0201C120.891 93.619 120.624 92.2273 120.076 90.9375C119.527 89.6478 118.711 88.4896 117.68 87.5401L117.65 83.1201Z" fill="#347AE3"/>
<path d="M111.52 114C111.52 114 116.27 118.08 120.18 117.87C121.182 117.794 122.116 117.336 122.791 116.592C123.466 115.849 123.831 114.874 123.81 113.87C123.828 112.214 123.393 110.584 122.552 109.156C121.711 107.729 120.497 106.558 119.04 105.77L117.77 105.07V100.07C117.77 100.07 110.2 99.5 108.33 103.93C106.46 108.36 109 112.17 111.52 114Z" fill="#347AE3"/>
<path d="M117.92 130.61V137.94C116.722 136.441 115.645 134.85 114.7 133.18C112.66 129.64 111 126 111 126C109.11 122.65 109.89 120.16 110.83 118.7C111.223 118.109 111.775 117.641 112.423 117.351C113.071 117.061 113.787 116.96 114.49 117.06C115.437 117.199 116.366 117.44 117.26 117.78C118.79 118.422 120.124 119.456 121.126 120.778C122.129 122.1 122.765 123.663 122.97 125.31C123.63 130.98 117.97 129.44 117.97 129.44V130.59L117.92 130.61Z" fill="#347AE3"/>
<path d="M256.12 180H159.19C152.79 171.81 148.43 165.92 147.73 164.27C142.018 160.624 136.574 156.573 131.44 152.15C128.87 149.94 126.24 147.49 123.73 144.88H125.35H125.56L159.4 144.7H161.92H162.46H162.79C163.162 144.652 163.521 144.529 163.844 144.338C164.167 144.147 164.448 143.893 164.67 143.59C165.043 143.098 165.243 142.497 165.24 141.88V135.64V134.64C165.17 134.49 165.11 134.34 165.05 134.18C164.64 133.18 164.28 132.24 163.97 131.26C161.07 121.98 162.39 111.8 163.83 105.35C164.28 103.35 164.73 101.74 165.08 100.6C165.43 99.4599 165.66 98.7799 165.68 98.7399L165.57 78.5699C165.57 78.2099 166.03 74.2299 167.94 72.7699C168.219 72.5491 168.541 72.3904 168.886 72.3041C169.231 72.2179 169.59 72.2062 169.94 72.2699C170.588 72.317 171.205 72.5613 171.71 72.9699C172.71 73.7699 173.96 75.4599 174.3 79.0399C174.477 80.6951 174.884 82.3175 175.51 83.8599L191.66 124.47L204.96 135.95L211.08 141.23L214.97 144.59L217.14 146.46L227.74 155.61L237.74 164.23L256.12 180Z" fill="url(#paint1_linear_1143_8784)"/>
<path d="M117.91 130H117.79C113.87 129 110.67 124.66 110.54 124.48C110.501 124.427 110.473 124.366 110.458 124.302C110.443 124.238 110.44 124.172 110.45 124.107C110.46 124.042 110.483 123.98 110.517 123.924C110.552 123.867 110.597 123.819 110.65 123.78C110.703 123.741 110.764 123.713 110.827 123.698C110.891 123.682 110.958 123.68 111.023 123.69C111.088 123.7 111.15 123.723 111.206 123.757C111.262 123.792 111.311 123.837 111.35 123.89C111.35 123.89 114.47 128.16 118.03 129.02C118.158 129.055 118.267 129.138 118.336 129.251C118.405 129.365 118.428 129.5 118.4 129.63C118.37 129.736 118.305 129.83 118.217 129.897C118.129 129.964 118.021 130 117.91 130Z" fill="#125BC9"/>
<path d="M117.77 105.61C117.689 105.61 117.61 105.59 117.54 105.55C116.493 105.02 115.375 104.647 114.22 104.44C114.087 104.419 113.969 104.346 113.89 104.237C113.811 104.128 113.779 103.993 113.8 103.86C113.821 103.727 113.894 103.609 114.003 103.53C114.112 103.451 114.247 103.419 114.38 103.44C115.645 103.656 116.869 104.064 118.01 104.65C118.068 104.68 118.119 104.722 118.16 104.772C118.201 104.823 118.232 104.881 118.251 104.943C118.269 105.005 118.275 105.071 118.268 105.136C118.261 105.2 118.242 105.263 118.21 105.32C118.171 105.404 118.109 105.476 118.031 105.528C117.954 105.579 117.863 105.607 117.77 105.61Z" fill="#125BC9"/>
<path d="M117.68 88C117.614 88.0008 117.549 87.9878 117.489 87.962C117.429 87.9362 117.375 87.898 117.33 87.85C116.363 86.9649 115.232 86.2786 114 85.83C113.875 85.7845 113.772 85.6928 113.712 85.5738C113.653 85.4547 113.641 85.3173 113.68 85.19C113.723 85.0656 113.813 84.9628 113.931 84.9032C114.048 84.8435 114.184 84.8316 114.31 84.87C115.686 85.3785 116.942 86.1648 118 87.18C118.047 87.2265 118.084 87.2818 118.11 87.3427C118.135 87.4036 118.148 87.469 118.148 87.535C118.148 87.601 118.135 87.6663 118.11 87.7273C118.084 87.7882 118.047 87.8435 118 87.89C117.91 87.9635 117.796 88.0025 117.68 88Z" fill="#125BC9"/>
<path d="M170.41 142C170.284 142.003 170.162 141.956 170.07 141.87C167.983 139.797 166.199 137.441 164.77 134.87C164.738 134.812 164.718 134.749 164.711 134.683C164.704 134.618 164.71 134.551 164.729 134.488C164.747 134.425 164.778 134.366 164.82 134.315C164.861 134.264 164.912 134.221 164.97 134.19C165.028 134.157 165.091 134.136 165.157 134.128C165.223 134.12 165.289 134.126 165.353 134.144C165.416 134.163 165.476 134.195 165.527 134.237C165.578 134.279 165.62 134.331 165.65 134.39C167.033 136.875 168.752 139.156 170.76 141.17C170.832 141.239 170.882 141.329 170.902 141.426C170.923 141.524 170.914 141.626 170.876 141.718C170.839 141.811 170.774 141.89 170.691 141.946C170.608 142.001 170.51 142.03 170.41 142.03V142Z" fill="#125BC9"/>
<path d="M173.72 80.8601C173.015 80.8081 172.34 80.5586 171.77 80.1401C171.378 79.8325 171.058 79.4433 170.832 78.9995C170.606 78.5557 170.479 78.0679 170.46 77.5701C170.5 76.5937 170.92 75.6716 171.63 75.0001C171.676 74.9535 171.73 74.9165 171.79 74.8913C171.85 74.866 171.915 74.853 171.98 74.853C172.045 74.853 172.11 74.866 172.17 74.8913C172.23 74.9165 172.284 74.9535 172.33 75.0001C172.377 75.0466 172.414 75.1019 172.44 75.1628C172.465 75.2237 172.478 75.2891 172.478 75.3551C172.478 75.4211 172.465 75.4865 172.44 75.5474C172.414 75.6083 172.377 75.6636 172.33 75.7101C171.831 76.1852 171.531 76.8321 171.49 77.5201C171.513 77.8687 171.609 78.2085 171.773 78.517C171.937 78.8256 172.164 79.0959 172.44 79.3101C172.866 79.6095 173.37 79.7765 173.89 79.7901C173.955 79.7802 174.02 79.7833 174.084 79.7992C174.147 79.815 174.206 79.8433 174.258 79.8824C174.31 79.9216 174.354 79.9707 174.387 80.0269C174.42 80.0832 174.442 80.1455 174.45 80.2101C174.46 80.2751 174.457 80.3415 174.441 80.4053C174.426 80.4692 174.397 80.5293 174.358 80.5822C174.319 80.6352 174.27 80.6799 174.214 80.7139C174.158 80.7478 174.095 80.7703 174.03 80.7801L173.72 80.8601Z" fill="#125BC9"/>
<g opacity="0.8">
<path opacity="0.8" d="M159.41 144.67L131.41 152.15C128.84 149.94 126.21 147.49 123.7 144.88H125.53L159.41 144.67Z" fill="#293241"/>
</g>
<g style="mix-blend-mode:multiply" opacity="0.5">
<g style="mix-blend-mode:multiply" opacity="0.5">
<path d="M117.58 71.1999C116.091 70.3929 114.741 69.3532 113.58 68.1199L113.82 56.2699C114.57 56.1065 115.351 56.1763 116.06 56.4699C116.79 56.8799 117.41 57.2499 117.44 57.2699V64.9199L117.58 71.1999Z" fill="#293241"/>
</g>
</g>
<g opacity="0.15">
<path opacity="0.15" d="M170.693 129.885C173.918 129.867 176.5 123.978 176.46 116.733C176.419 109.487 173.772 103.627 170.546 103.645C167.321 103.663 164.739 109.552 164.78 116.798C164.82 124.044 167.468 129.903 170.693 129.885Z" fill="#F4F3EE"/>
</g>
<path d="M74.25 43.5C73.8544 43.5 73.4678 43.3827 73.1389 43.1629C72.81 42.9432 72.5536 42.6308 72.4022 42.2654C72.2509 41.8999 72.2113 41.4978 72.2884 41.1098C72.3656 40.7219 72.5561 40.3655 72.8358 40.0858C73.1155 39.8061 73.4719 39.6156 73.8598 39.5384C74.2478 39.4613 74.6499 39.5009 75.0154 39.6522C75.3808 39.8036 75.6932 40.06 75.9129 40.3889C76.1327 40.7178 76.25 41.1044 76.25 41.5C76.25 42.0304 76.0393 42.5391 75.6642 42.9142C75.2891 43.2893 74.7804 43.5 74.25 43.5ZM74.25 40C73.9533 40 73.6633 40.088 73.4166 40.2528C73.17 40.4176 72.9777 40.6519 72.8642 40.926C72.7507 41.2001 72.7209 41.5017 72.7788 41.7926C72.8367 42.0836 72.9796 42.3509 73.1893 42.5607C73.3991 42.7704 73.6664 42.9133 73.9574 42.9712C74.2483 43.0291 74.5499 42.9994 74.824 42.8858C75.0981 42.7723 75.3324 42.58 75.4972 42.3334C75.662 42.0867 75.75 41.7967 75.75 41.5C75.75 41.1022 75.592 40.7206 75.3107 40.4393C75.0294 40.158 74.6478 40 74.25 40Z" fill="#293241"/>
<path d="M79.5 43.5C79.1044 43.5 78.7178 43.3827 78.3889 43.1629C78.06 42.9432 77.8036 42.6308 77.6522 42.2654C77.5009 41.8999 77.4613 41.4978 77.5384 41.1098C77.6156 40.7219 77.8061 40.3655 78.0858 40.0858C78.3655 39.8061 78.7219 39.6156 79.1098 39.5384C79.4978 39.4613 79.8999 39.5009 80.2654 39.6522C80.6308 39.8036 80.9432 40.06 81.1629 40.3889C81.3827 40.7178 81.5 41.1044 81.5 41.5C81.5 42.0304 81.2893 42.5391 80.9142 42.9142C80.5391 43.2893 80.0304 43.5 79.5 43.5ZM79.5 40C79.2033 40 78.9133 40.088 78.6666 40.2528C78.42 40.4176 78.2277 40.6519 78.1142 40.926C78.0007 41.2001 77.9709 41.5017 78.0288 41.7926C78.0867 42.0836 78.2296 42.3509 78.4393 42.5607C78.6491 42.7704 78.9164 42.9133 79.2074 42.9712C79.4983 43.0291 79.7999 42.9994 80.074 42.8858C80.3481 42.7723 80.5824 42.58 80.7472 42.3334C80.912 42.0867 81 41.7967 81 41.5C81 41.1022 80.842 40.7206 80.5607 40.4393C80.2794 40.158 79.8978 40 79.5 40Z" fill="#293241"/>
<path d="M84.75 43.5C84.3544 43.5 83.9678 43.3827 83.6389 43.1629C83.31 42.9432 83.0536 42.6308 82.9022 42.2654C82.7509 41.8999 82.7113 41.4978 82.7884 41.1098C82.8656 40.7219 83.0561 40.3655 83.3358 40.0858C83.6155 39.8061 83.9719 39.6156 84.3598 39.5384C84.7478 39.4613 85.1499 39.5009 85.5154 39.6522C85.8808 39.8036 86.1932 40.06 86.4129 40.3889C86.6327 40.7178 86.75 41.1044 86.75 41.5C86.75 42.0304 86.5393 42.5391 86.1642 42.9142C85.7891 43.2893 85.2804 43.5 84.75 43.5ZM84.75 40C84.4533 40 84.1633 40.088 83.9166 40.2528C83.67 40.4176 83.4777 40.6519 83.3642 40.926C83.2507 41.2001 83.2209 41.5017 83.2788 41.7926C83.3367 42.0836 83.4796 42.3509 83.6893 42.5607C83.8991 42.7704 84.1664 42.9133 84.4574 42.9712C84.7483 43.0291 85.0499 42.9994 85.324 42.8858C85.5981 42.7723 85.8324 42.58 85.9972 42.3334C86.162 42.0867 86.25 41.7967 86.25 41.5C86.25 41.1022 86.092 40.7206 85.8107 40.4393C85.5294 40.158 85.1478 40 84.75 40Z" fill="#293241"/>
<g opacity="0.48">
<path opacity="0.48" d="M149.48 130.47H133.52C131.852 130.47 130.5 131.82 130.5 133.485C130.5 135.15 131.852 136.5 133.52 136.5H149.48C151.148 136.5 152.5 135.15 152.5 133.485C152.5 131.82 151.148 130.47 149.48 130.47Z" fill="white"/>
</g>
<path d="M157.48 52.47H153.52C152.404 52.47 151.5 53.3721 151.5 54.485C151.5 55.5978 152.404 56.5 153.52 56.5H157.48C158.596 56.5 159.5 55.5978 159.5 54.485C159.5 53.3721 158.596 52.47 157.48 52.47Z" fill="#E1E5F2"/>
<g opacity="0.22">
<path opacity="0.22" d="M61.5001 165.74H5.61327e-05C-0.0165804 165.74 -0.0330473 165.737 -0.0482989 165.73C-0.0635504 165.723 -0.0772534 165.714 -0.0885377 165.701C-0.0998221 165.689 -0.108441 165.675 -0.113848 165.659C-0.119254 165.643 -0.12133 165.627 -0.119944 165.61C-0.119944 165.578 -0.107301 165.548 -0.0847967 165.525C-0.0622923 165.503 -0.0317698 165.49 5.61327e-05 165.49H61.5001C61.5319 165.49 61.5624 165.503 61.5849 165.525C61.6074 165.548 61.6201 165.578 61.6201 165.61C61.6214 165.627 61.6194 165.643 61.614 165.659C61.6086 165.675 61.5999 165.689 61.5886 165.701C61.5774 165.714 61.5637 165.723 61.5484 165.73C61.5332 165.737 61.5167 165.74 61.5001 165.74Z" fill="#125BC9"/>
</g>
<g opacity="0.22">
<path opacity="0.22" d="M260.62 34.6201C260.588 34.6201 260.558 34.6074 260.535 34.5849C260.513 34.5624 260.5 34.5319 260.5 34.5001V0.500056C260.5 0.46823 260.513 0.437708 260.535 0.415203C260.558 0.392699 260.588 0.380056 260.62 0.380056C260.637 0.37867 260.653 0.380746 260.669 0.386152C260.685 0.391559 260.699 0.400178 260.711 0.411462C260.724 0.422747 260.733 0.43645 260.74 0.451701C260.747 0.466953 260.75 0.48342 260.75 0.500056V34.5001C260.75 34.5167 260.747 34.5332 260.74 34.5484C260.733 34.5637 260.724 34.5774 260.711 34.5886C260.699 34.5999 260.685 34.6086 260.669 34.614C260.653 34.6194 260.637 34.6214 260.62 34.6201Z" fill="#125BC9"/>
</g>
<path d="M61.5 166.5C62.0523 166.5 62.5 166.052 62.5 165.5C62.5 164.948 62.0523 164.5 61.5 164.5C60.9477 164.5 60.5 164.948 60.5 165.5C60.5 166.052 60.9477 166.5 61.5 166.5Z" fill="#125BC9"/>
<g opacity="0.22">
<path opacity="0.22" d="M96.5001 150.74H-0.999944C-1.01658 150.74 -1.03305 150.737 -1.0483 150.73C-1.06355 150.723 -1.07725 150.714 -1.08854 150.701C-1.09982 150.689 -1.10844 150.675 -1.11385 150.659C-1.11925 150.643 -1.12133 150.627 -1.11994 150.61C-1.11994 150.594 -1.11684 150.579 -1.11081 150.564C-1.10478 150.549 -1.09594 150.536 -1.0848 150.525C-1.07365 150.514 -1.06042 150.505 -1.04587 150.499C-1.03131 150.493 -1.0157 150.49 -0.999944 150.49H96.5001C96.5319 150.49 96.5624 150.503 96.5849 150.525C96.6074 150.548 96.6201 150.578 96.6201 150.61C96.6214 150.627 96.6194 150.643 96.614 150.659C96.6086 150.675 96.5999 150.689 96.5886 150.701C96.5774 150.714 96.5637 150.723 96.5484 150.73C96.5332 150.737 96.5167 150.74 96.5001 150.74Z" fill="#125BC9"/>
</g>
<path d="M60.5 152.5C61.6046 152.5 62.5 151.605 62.5 150.5C62.5 149.395 61.6046 148.5 60.5 148.5C59.3954 148.5 58.5 149.395 58.5 150.5C58.5 151.605 59.3954 152.5 60.5 152.5Z" fill="white"/>
<path d="M60.5 152.62C60.0807 152.62 59.6708 152.496 59.3222 152.263C58.9736 152.03 58.7018 151.699 58.5414 151.311C58.3809 150.924 58.3389 150.498 58.4207 150.086C58.5025 149.675 58.7045 149.297 59.0009 149.001C59.2974 148.704 59.6752 148.502 60.0864 148.421C60.4977 148.339 60.9239 148.381 61.3113 148.541C61.6987 148.702 62.0298 148.973 62.2627 149.322C62.4957 149.671 62.62 150.081 62.62 150.5C62.62 151.062 62.3966 151.601 61.9991 151.999C61.6015 152.397 61.0623 152.62 60.5 152.62ZM60.5 148.62C60.1282 148.62 59.7647 148.73 59.4555 148.937C59.1464 149.143 58.9054 149.437 58.7631 149.78C58.6208 150.124 58.5836 150.502 58.6561 150.867C58.7287 151.231 58.9077 151.566 59.1706 151.829C59.4336 152.092 59.7686 152.271 60.1332 152.344C60.4979 152.416 60.8759 152.379 61.2195 152.237C61.563 152.094 61.8566 151.854 62.0632 151.544C62.2697 151.235 62.38 150.872 62.38 150.5C62.3774 150.002 62.1785 149.525 61.8265 149.173C61.4745 148.821 60.9978 148.623 60.5 148.62Z" fill="#125BC9"/>
<path d="M97.5 152.5C98.6046 152.5 99.5 151.605 99.5 150.5C99.5 149.395 98.6046 148.5 97.5 148.5C96.3954 148.5 95.5 149.395 95.5 150.5C95.5 151.605 96.3954 152.5 97.5 152.5Z" fill="white"/>
<path d="M97.5 152.62C97.0807 152.62 96.6708 152.496 96.3222 152.263C95.9736 152.03 95.7018 151.699 95.5414 151.311C95.3809 150.924 95.3389 150.498 95.4207 150.086C95.5025 149.675 95.7044 149.297 96.0009 149.001C96.2974 148.704 96.6752 148.502 97.0864 148.421C97.4977 148.339 97.9239 148.381 98.3113 148.541C98.6987 148.702 99.0298 148.973 99.2627 149.322C99.4957 149.671 99.62 150.081 99.62 150.5C99.62 151.062 99.3967 151.601 98.9991 151.999C98.6015 152.397 98.0623 152.62 97.5 152.62ZM97.5 148.62C97.1282 148.62 96.7647 148.73 96.4555 148.937C96.1464 149.143 95.9054 149.437 95.7631 149.78C95.6208 150.124 95.5836 150.502 95.6561 150.867C95.7287 151.231 95.9077 151.566 96.1706 151.829C96.4336 152.092 96.7686 152.271 97.1332 152.344C97.4979 152.416 97.8759 152.379 98.2194 152.237C98.563 152.094 98.8566 151.854 99.0632 151.544C99.2697 151.235 99.38 150.872 99.38 150.5C99.3774 150.002 99.1785 149.525 98.8265 149.173C98.4745 148.821 97.9978 148.623 97.5 148.62Z" fill="#125BC9"/>
<path d="M15.5 151.5C16.0523 151.5 16.5 151.052 16.5 150.5C16.5 149.948 16.0523 149.5 15.5 149.5C14.9477 149.5 14.5 149.948 14.5 150.5C14.5 151.052 14.9477 151.5 15.5 151.5Z" fill="white"/>
<path d="M15.5 151.62C15.2785 151.62 15.0619 151.554 14.8778 151.431C14.6936 151.308 14.55 151.133 14.4653 150.928C14.3805 150.724 14.3583 150.499 14.4015 150.281C14.4447 150.064 14.5514 149.865 14.708 149.708C14.8647 149.551 15.0642 149.445 15.2815 149.401C15.4988 149.358 15.724 149.38 15.9286 149.465C16.1333 149.55 16.3082 149.693 16.4313 149.878C16.5543 150.062 16.62 150.278 16.62 150.5C16.62 150.797 16.502 151.082 16.292 151.292C16.0819 151.502 15.797 151.62 15.5 151.62ZM15.5 149.62C15.326 149.62 15.1558 149.671 15.0111 149.768C14.8664 149.865 14.7536 150.002 14.687 150.163C14.6204 150.324 14.603 150.501 14.6369 150.672C14.6709 150.842 14.7547 150.999 14.8778 151.122C15.0008 151.245 15.1576 151.329 15.3283 151.363C15.499 151.397 15.676 151.38 15.8368 151.313C15.9976 151.246 16.135 151.134 16.2317 150.989C16.3284 150.844 16.38 150.674 16.38 150.5C16.3774 150.267 16.2839 150.045 16.1194 149.88C15.9549 149.716 15.7326 149.622 15.5 149.62Z" fill="#125BC9"/>
<g opacity="0.22">
<path opacity="0.22" d="M50.5001 28.74H-0.499944C-0.51658 28.74 -0.533047 28.7366 -0.548299 28.73C-0.56355 28.7234 -0.577253 28.7136 -0.588538 28.7014C-0.599822 28.6892 -0.608441 28.6747 -0.613848 28.659C-0.619254 28.6433 -0.62133 28.6266 -0.619944 28.61C-0.619944 28.5782 -0.607301 28.5476 -0.584797 28.5251C-0.562292 28.5026 -0.53177 28.49 -0.499944 28.49H50.5001C50.5319 28.49 50.5624 28.5026 50.5849 28.5251C50.6074 28.5476 50.6201 28.5782 50.6201 28.61C50.6214 28.6266 50.6194 28.6433 50.614 28.659C50.6086 28.6747 50.5999 28.6892 50.5886 28.7014C50.5774 28.7136 50.5637 28.7234 50.5484 28.73C50.5332 28.7366 50.5167 28.74 50.5001 28.74Z" fill="#125BC9"/>
</g>
<path d="M36.5 30.5C37.6046 30.5 38.5 29.6046 38.5 28.5C38.5 27.3954 37.6046 26.5 36.5 26.5C35.3954 26.5 34.5 27.3954 34.5 28.5C34.5 29.6046 35.3954 30.5 36.5 30.5Z" fill="white"/>
<path d="M36.5 30.6199C36.0807 30.6199 35.6708 30.4955 35.3222 30.2626C34.9736 30.0297 34.7018 29.6986 34.5414 29.3112C34.3809 28.9238 34.3389 28.4975 34.4207 28.0863C34.5025 27.6751 34.7045 27.2973 35.0009 27.0008C35.2974 26.7043 35.6752 26.5024 36.0864 26.4206C36.4977 26.3388 36.9239 26.3808 37.3113 26.5413C37.6987 26.7017 38.0298 26.9734 38.2627 27.3221C38.4957 27.6707 38.62 28.0806 38.62 28.4999C38.62 29.0621 38.3966 29.6014 37.9991 29.999C37.6015 30.3965 37.0623 30.6199 36.5 30.6199ZM36.5 26.6199C36.1282 26.6199 35.7647 26.7301 35.4555 26.9367C35.1464 27.1433 34.9054 27.4369 34.7631 27.7804C34.6208 28.124 34.5836 28.502 34.6561 28.8667C34.7287 29.2313 34.9077 29.5663 35.1706 29.8292C35.4336 30.0922 35.7686 30.2712 36.1332 30.3438C36.4979 30.4163 36.8759 30.3791 37.2195 30.2368C37.563 30.0945 37.8566 29.8535 38.0632 29.5444C38.2697 29.2352 38.38 28.8717 38.38 28.4999C38.3774 28.0021 38.1785 27.5254 37.8265 27.1734C37.4745 26.8214 36.9978 26.6225 36.5 26.6199Z" fill="#125BC9"/>
<path d="M5.5 29.5C6.05228 29.5 6.5 29.0523 6.5 28.5C6.5 27.9477 6.05228 27.5 5.5 27.5C4.94772 27.5 4.5 27.9477 4.5 28.5C4.5 29.0523 4.94772 29.5 5.5 29.5Z" fill="white"/>
<path d="M5.50001 29.6199C5.27849 29.6199 5.06195 29.5542 4.87777 29.4311C4.69358 29.3081 4.55003 29.1331 4.46526 28.9285C4.38049 28.7238 4.35831 28.4986 4.40153 28.2814C4.44474 28.0641 4.55141 27.8646 4.70805 27.7079C4.86468 27.5513 5.06425 27.4446 5.2815 27.4014C5.49876 27.3582 5.72396 27.3804 5.92861 27.4651C6.13326 27.5499 6.30818 27.6935 6.43125 27.8776C6.55432 28.0618 6.62001 28.2784 6.62001 28.4999C6.62001 28.7969 6.50201 29.0818 6.29197 29.2918C6.08192 29.5019 5.79705 29.6199 5.50001 29.6199ZM5.50001 27.6199C5.32596 27.6199 5.15582 27.6715 5.0111 27.7682C4.86639 27.8649 4.7536 28.0023 4.68699 28.1631C4.62039 28.3239 4.60296 28.5009 4.63691 28.6716C4.67087 28.8423 4.75468 28.9991 4.87775 29.1221C5.00082 29.2452 5.15762 29.329 5.32833 29.363C5.49903 29.3969 5.67597 29.3795 5.83677 29.3129C5.99757 29.2463 6.135 29.1335 6.2317 28.9888C6.32839 28.8441 6.38001 28.6739 6.38001 28.4999C6.37741 28.2673 6.28386 28.045 6.11939 27.8805C5.95491 27.716 5.73259 27.6225 5.50001 27.6199Z" fill="#125BC9"/>
<g opacity="0.22">
<path opacity="0.22" d="M248.5 142.74H210.5C210.483 142.74 210.467 142.737 210.452 142.73C210.436 142.723 210.423 142.714 210.411 142.701C210.4 142.689 210.392 142.675 210.386 142.659C210.381 142.643 210.379 142.627 210.38 142.61C210.38 142.578 210.393 142.548 210.415 142.525C210.438 142.503 210.468 142.49 210.5 142.49H248.5C248.532 142.49 248.562 142.503 248.585 142.525C248.607 142.548 248.62 142.578 248.62 142.61C248.621 142.627 248.619 142.643 248.614 142.659C248.609 142.675 248.6 142.689 248.589 142.701C248.577 142.714 248.564 142.723 248.548 142.73C248.533 142.737 248.517 142.74 248.5 142.74Z" fill="#125BC9"/>
</g>
<path d="M248.5 143.5C249.052 143.5 249.5 143.052 249.5 142.5C249.5 141.948 249.052 141.5 248.5 141.5C247.948 141.5 247.5 141.948 247.5 142.5C247.5 143.052 247.948 143.5 248.5 143.5Z" fill="#125BC9"/>
<path d="M21.5 84.5C22.0523 84.5 22.5 84.0523 22.5 83.5C22.5 82.9477 22.0523 82.5 21.5 82.5C20.9477 82.5 20.5 82.9477 20.5 83.5C20.5 84.0523 20.9477 84.5 21.5 84.5Z" fill="#125BC9"/>
<g opacity="0.22">
<path opacity="0.22" d="M264.5 88.74H226C225.983 88.74 225.967 88.7366 225.952 88.73C225.936 88.7234 225.923 88.7136 225.911 88.7014C225.9 88.6892 225.892 88.6747 225.886 88.659C225.881 88.6433 225.879 88.6266 225.88 88.61C225.88 88.5782 225.893 88.5476 225.915 88.5251C225.938 88.5026 225.968 88.49 226 88.49H264.5C264.532 88.49 264.562 88.5026 264.585 88.5251C264.607 88.5476 264.62 88.5782 264.62 88.61C264.621 88.6266 264.619 88.6433 264.614 88.659C264.609 88.6747 264.6 88.6892 264.589 88.7014C264.577 88.7136 264.564 88.7234 264.548 88.73C264.533 88.7366 264.517 88.74 264.5 88.74Z" fill="#125BC9"/>
</g>
<path d="M265.5 89.5C266.052 89.5 266.5 89.0523 266.5 88.5C266.5 87.9477 266.052 87.5 265.5 87.5C264.948 87.5 264.5 87.9477 264.5 88.5C264.5 89.0523 264.948 89.5 265.5 89.5Z" fill="#125BC9"/>
<path d="M260.63 36.5C261.182 36.5 261.63 36.0523 261.63 35.5C261.63 34.9477 261.182 34.5 260.63 34.5C260.078 34.5 259.63 34.9477 259.63 35.5C259.63 36.0523 260.078 36.5 260.63 36.5Z" fill="#125BC9"/>
<g opacity="0.22">
<path opacity="0.22" d="M21.7601 119H5.61327e-05C-0.0317698 119 -0.0622923 118.987 -0.0847967 118.965C-0.107301 118.942 -0.119944 118.912 -0.119944 118.88C-0.12133 118.864 -0.119254 118.847 -0.113848 118.831C-0.108441 118.815 -0.0998221 118.801 -0.0885377 118.789C-0.0772534 118.776 -0.0635504 118.767 -0.0482989 118.76C-0.0330473 118.753 -0.0165804 118.75 5.61327e-05 118.75H21.5101V83.7501C21.5087 83.7335 21.5107 83.7169 21.5162 83.7011C21.5216 83.6854 21.5302 83.6709 21.5415 83.6587C21.5527 83.6465 21.5664 83.6368 21.5817 83.6301C21.597 83.6235 21.6134 83.6201 21.6301 83.6201C21.6645 83.6201 21.6976 83.6338 21.722 83.6582C21.7464 83.6826 21.7601 83.7156 21.7601 83.7501V119Z" fill="#125BC9"/>
</g>
<path d="M266 117.5C266.552 117.5 267 117.052 267 116.5C267 115.948 266.552 115.5 266 115.5C265.448 115.5 265 115.948 265 116.5C265 117.052 265.448 117.5 266 117.5Z" fill="#125BC9"/>
<g opacity="0.22">
<path opacity="0.22" d="M287.5 152H265.74V116.75C265.74 116.716 265.754 116.683 265.778 116.658C265.802 116.634 265.836 116.62 265.87 116.62C265.887 116.62 265.903 116.623 265.918 116.63C265.934 116.637 265.947 116.646 265.959 116.659C265.97 116.671 265.979 116.685 265.984 116.701C265.989 116.717 265.991 116.734 265.99 116.75V151.75H287.5C287.517 151.75 287.533 151.753 287.548 151.76C287.564 151.767 287.577 151.776 287.589 151.789C287.6 151.801 287.608 151.815 287.614 151.831C287.619 151.847 287.621 151.864 287.62 151.88C287.62 151.912 287.607 151.942 287.585 151.965C287.562 151.987 287.532 152 287.5 152Z" fill="#125BC9"/>
</g>
<path d="M87.29 81.6299H57.71C56.4894 81.6299 55.5 82.6193 55.5 83.8399V83.9199C55.5 85.1404 56.4894 86.1299 57.71 86.1299H87.29C88.5106 86.1299 89.5 85.1404 89.5 83.9199V83.8399C89.5 82.6193 88.5106 81.6299 87.29 81.6299Z" fill="#EE6C4D"/>
<path d="M68.13 100.5H44.87C44.1134 100.5 43.5 101.113 43.5 101.87V101.88C43.5 102.637 44.1134 103.25 44.87 103.25H68.13C68.8866 103.25 69.5 102.637 69.5 101.88V101.87C69.5 101.113 68.8866 100.5 68.13 100.5Z" fill="#125BC9"/>
<path d="M87 85.3701C87.8284 85.3701 88.5 84.6985 88.5 83.8701C88.5 83.0417 87.8284 82.3701 87 82.3701C86.1716 82.3701 85.5 83.0417 85.5 83.8701C85.5 84.6985 86.1716 85.3701 87 85.3701Z" fill="white"/>
<path d="M240.29 52.6299H205.71C204.489 52.6299 203.5 53.6193 203.5 54.8399V54.9199C203.5 56.1404 204.489 57.1299 205.71 57.1299H240.29C241.511 57.1299 242.5 56.1404 242.5 54.9199V54.8399C242.5 53.6193 241.511 52.6299 240.29 52.6299Z" fill="#293241"/>
<path d="M240 56.3701C240.828 56.3701 241.5 55.6985 241.5 54.8701C241.5 54.0417 240.828 53.3701 240 53.3701C239.172 53.3701 238.5 54.0417 238.5 54.8701C238.5 55.6985 239.172 56.3701 240 56.3701Z" fill="white"/>
<path d="M233.25 96.6299H217.75C216.507 96.6299 215.5 97.6372 215.5 98.8799C215.5 100.123 216.507 101.13 217.75 101.13H233.25C234.493 101.13 235.5 100.123 235.5 98.8799C235.5 97.6372 234.493 96.6299 233.25 96.6299Z" fill="#16A3B9"/>
<path d="M233 100.37C233.828 100.37 234.5 99.6985 234.5 98.8701C234.5 98.0417 233.828 97.3701 233 97.3701C232.172 97.3701 231.5 98.0417 231.5 98.8701C231.5 99.6985 232.172 100.37 233 100.37Z" fill="white"/>
<path d="M229.59 109.13H206C205.724 109.13 205.5 109.354 205.5 109.63C205.5 109.906 205.724 110.13 206 110.13H229.59C229.866 110.13 230.09 109.906 230.09 109.63C230.09 109.354 229.866 109.13 229.59 109.13Z" fill="#F9ACA2"/>
<path d="M205.5 110.63C206.052 110.63 206.5 110.182 206.5 109.63C206.5 109.078 206.052 108.63 205.5 108.63C204.948 108.63 204.5 109.078 204.5 109.63C204.5 110.182 204.948 110.63 205.5 110.63Z" fill="#EE6C4D"/>
<path d="M214.5 110.13C214.776 110.13 215 109.906 215 109.63C215 109.354 214.776 109.13 214.5 109.13C214.224 109.13 214 109.354 214 109.63C214 109.906 214.224 110.13 214.5 110.13Z" fill="#EE6C4D"/>
<path d="M224.5 110.13C224.776 110.13 225 109.906 225 109.63C225 109.354 224.776 109.13 224.5 109.13C224.224 109.13 224 109.354 224 109.63C224 109.906 224.224 110.13 224.5 110.13Z" fill="#BF3B21"/>
<g opacity="0.8">
<path opacity="0.8" d="M192.72 142V0.5H213.5V130.45L192.72 142Z" fill="url(#paint2_linear_1143_8784)"/>
</g>
<path d="M212 128.74L213.2 130.45C213.356 130.741 213.437 131.065 213.437 131.395C213.437 131.725 213.356 132.049 213.2 132.34C213.204 132.373 213.204 132.407 213.2 132.44C212.349 134.113 211.188 135.609 209.78 136.85L209.71 136.91L209.22 137.37L209.15 137.43C208.067 138.393 206.929 139.291 205.74 140.12C203.081 142.118 200.048 143.56 196.82 144.36H196.72L196.18 144.43H195.5C195.349 144.421 195.198 144.401 195.05 144.37H194.91C194.578 144.295 194.283 144.104 194.08 143.83L192.88 142.12L192.79 142.01C191.64 140.37 195.01 136.01 200.31 132.35C205.61 128.69 210.83 126.99 211.98 128.63C211.989 128.666 211.996 128.703 212 128.74Z" fill="white"/>
<path d="M195.65 144.59H195.41C195.255 144.589 195.101 144.572 194.95 144.54H194.8C194.438 144.459 194.116 144.254 193.89 143.96L192.63 142.15C192.04 141.3 192.52 139.81 193.97 137.93C195.761 135.77 197.853 133.878 200.18 132.31C205.62 128.51 210.82 126.9 212.02 128.62L213.28 130.42C213.447 130.727 213.535 131.071 213.535 131.42C213.535 131.769 213.447 132.113 213.28 132.42V132.53C212.421 134.218 211.251 135.728 209.83 136.98L209.76 137.04C209.6 137.2 209.43 137.35 209.26 137.5C208.175 138.468 207.033 139.369 205.84 140.2C203.151 142.204 200.093 143.655 196.84 144.47H196.76C196.55 144.47 196.37 144.53 196.19 144.54H195.73L195.65 144.59ZM193 142.15L194.13 143.76C194.319 144.011 194.593 144.185 194.9 144.25H195.03C195.168 144.281 195.309 144.298 195.45 144.3H196.12L196.65 144.24H196.74C199.949 143.433 202.967 141.999 205.62 140.02C206.802 139.195 207.934 138.3 209.01 137.34H209.06L209.56 136.88L209.62 136.82C211.021 135.593 212.175 134.109 213.02 132.45V132.35C213.165 132.077 213.24 131.774 213.24 131.465C213.24 131.156 213.165 130.853 213.02 130.58L211.9 128.98L211.82 128.85L211.76 128.74C210.67 127.18 205.41 128.9 200.26 132.49C197.954 134.047 195.883 135.926 194.11 138.07C192.75 139.82 192.26 141.25 192.77 141.98L192.85 142.08L192.94 142.18L193 142.15Z" fill="#125BC9"/>
<path d="M193.54 141.6L195.54 144.47H195.42L193.42 141.67L193.54 141.6Z" fill="#B2B6BF"/>
<path d="M194.33 141.9L196.1 144.45H196L194.25 141.95L194.33 141.9Z" fill="#B2B6BF"/>
<path d="M194.8 141.58L196.74 144.36H196.64L194.72 141.61L194.8 141.58Z" fill="#B2B6BF"/>
<path d="M206.42 133.47L209.14 137.37L209.07 137.43L206.34 133.53L206.42 133.47Z" fill="#B2B6BF"/>
<path d="M193 141.5L195 144.4H194.86L192.86 141.59L193 141.5Z" fill="#B2B6BF"/>
<path d="M207 133L209.66 136.81L209.59 136.87L207 133.09V133Z" fill="#B2B6BF"/>
<path d="M210.37 128.33L213.16 132.33C213.164 132.363 213.164 132.397 213.16 132.43L210.34 128.38L210.37 128.33Z" fill="#B2B6BF"/>
<path d="M204.389 138.284C209.689 134.588 213.057 130.258 211.91 128.614C210.763 126.969 205.537 128.633 200.236 132.329C194.936 136.025 191.569 140.354 192.716 141.999C193.863 143.643 199.089 141.98 204.389 138.284Z" fill="white"/>
<path d="M194.4 142.76C194.07 142.799 193.736 142.758 193.426 142.639C193.116 142.521 192.84 142.329 192.62 142.08C192.03 141.23 192.51 139.74 193.96 137.86C195.751 135.7 197.843 133.808 200.17 132.24C205.61 128.44 210.81 126.83 212.01 128.55C212.6 129.39 212.12 130.89 210.66 132.76C208.878 134.928 206.789 136.825 204.46 138.39C200.5 141.16 196.65 142.76 194.4 142.76ZM210.26 128.12C208.08 128.12 204.16 129.76 200.31 132.44C198.004 133.997 195.933 135.876 194.16 138.02C192.8 139.77 192.31 141.2 192.82 141.93C193.91 143.49 199.17 141.77 204.32 138.19C206.624 136.63 208.694 134.752 210.47 132.61C211.83 130.86 212.32 129.43 211.81 128.69C211.616 128.478 211.374 128.316 211.104 128.217C210.835 128.118 210.545 128.084 210.26 128.12Z" fill="#125BC9"/>
<g opacity="0.22">
<path opacity="0.22" d="M196.58 140.73C196.338 140.758 196.092 140.727 195.864 140.64C195.636 140.553 195.432 140.412 195.27 140.23C194.83 139.6 195.18 138.51 196.27 137.14C197.563 135.571 199.075 134.197 200.76 133.06C204.71 130.31 208.5 129.14 209.38 130.4C209.81 131.02 209.47 132.12 208.38 133.49C207.087 135.059 205.575 136.433 203.89 137.57C201 139.57 198.23 140.73 196.58 140.73ZM208.06 130.14C206.5 130.14 203.67 131.32 200.88 133.26C199.218 134.377 197.724 135.723 196.44 137.26C195.44 138.52 195.11 139.53 195.44 140.05C196.22 141.16 200 139.92 203.71 137.33C205.379 136.219 206.878 134.872 208.16 133.33C209.16 132.07 209.49 131.05 209.16 130.53C209.021 130.382 208.849 130.269 208.658 130.201C208.466 130.133 208.261 130.112 208.06 130.14Z" fill="#125BC9"/>
</g>
<g opacity="0.26">
<path opacity="0.26" d="M203.85 137.52C199.94 140.25 196.2 141.42 195.33 140.18C194.46 138.94 196.86 135.83 200.77 133.1C204.68 130.37 208.43 129.21 209.3 130.45C210.17 131.69 207.77 134.79 203.85 137.52ZM200.85 133.22C197.11 135.83 194.62 138.99 195.41 140.13C196.2 141.27 200.03 140.02 203.78 137.41C207.53 134.8 210.01 131.64 209.22 130.5C208.43 129.36 204.6 130.61 200.85 133.22Z" fill="#B2B6BF"/>
</g>
<g opacity="0.6">
<path opacity="0.6" d="M71.5 0V180.5H50.5V180L50.66 0H71.5Z" fill="url(#paint3_linear_1143_8784)"/>
</g>
<path d="M239.5 28.5C240.605 28.5 241.5 27.6046 241.5 26.5C241.5 25.3954 240.605 24.5 239.5 24.5C238.395 24.5 237.5 25.3954 237.5 26.5C237.5 27.6046 238.395 28.5 239.5 28.5Z" fill="#EE6C4D"/>
<path d="M28.5 64.5C29.0523 64.5 29.5 64.0523 29.5 63.5C29.5 62.9477 29.0523 62.5 28.5 62.5C27.9477 62.5 27.5 62.9477 27.5 63.5C27.5 64.0523 27.9477 64.5 28.5 64.5Z" fill="#16A3B9"/>
<path d="M250.5 67.5C251.052 67.5 251.5 67.0523 251.5 66.5C251.5 65.9477 251.052 65.5 250.5 65.5C249.948 65.5 249.5 65.9477 249.5 66.5C249.5 67.0523 249.948 67.5 250.5 67.5Z" fill="#125BC9"/>
<g opacity="0.3">
<path opacity="0.3" d="M217.11 146.31C215.404 148.132 213.428 149.68 211.25 150.9C205.75 154.07 200.25 154.9 199.04 152.75C197.83 150.6 201.25 146.28 206.75 143.1C208.123 142.311 209.562 141.642 211.05 141.1L214.94 144.46L217.11 146.31Z" fill="#293241"/>
</g>
</g>
<defs>
<linearGradient id="paint0_linear_1143_8784" x1="141.47" y1="130.049" x2="142.137" y2="14.4344" gradientUnits="userSpaceOnUse">
<stop offset="0.04" stop-color="#1E5EBE" stop-opacity="0.6"/>
<stop offset="0.17" stop-color="#2261BF" stop-opacity="0.61"/>
<stop offset="0.31" stop-color="#2F6AC3" stop-opacity="0.62"/>
<stop offset="0.44" stop-color="#4379C9" stop-opacity="0.65"/>
<stop offset="0.57" stop-color="#618ED1" stop-opacity="0.69"/>
<stop offset="0.7" stop-color="#86A9DC" stop-opacity="0.74"/>
<stop offset="0.83" stop-color="#B5CAEA" stop-opacity="0.8"/>
<stop offset="0.96" stop-color="#EAF0F9" stop-opacity="0.87"/>
<stop offset="1" stop-color="white" stop-opacity="0.9"/>
</linearGradient>
<linearGradient id="paint1_linear_1143_8784" x1="150.09" y1="114.67" x2="247.74" y2="189.35" gradientUnits="userSpaceOnUse">
<stop offset="0.3" stop-color="#1479C2"/>
<stop offset="0.51" stop-color="#1368C6"/>
<stop offset="0.73" stop-color="#125EC8"/>
<stop offset="1" stop-color="#125BC9"/>
</linearGradient>
<linearGradient id="paint2_linear_1143_8784" x1="203.09" y1="71.29" x2="202.87" y2="148.71" gradientUnits="userSpaceOnUse">
<stop stop-color="#EE6C4D" stop-opacity="0.1"/>
<stop offset="0.1" stop-color="#E56B52" stop-opacity="0.14"/>
<stop offset="0.26" stop-color="#CE6A5F" stop-opacity="0.23"/>
<stop offset="0.46" stop-color="#A76775" stop-opacity="0.39"/>
<stop offset="0.68" stop-color="#716294" stop-opacity="0.61"/>
<stop offset="0.91" stop-color="#2D5DBA" stop-opacity="0.89"/>
<stop offset="1" stop-color="#125BC9"/>
</linearGradient>
<linearGradient id="paint3_linear_1143_8784" x1="1333.18" y1="16299.2" x2="883.545" y2="34112.3" gradientUnits="userSpaceOnUse">
<stop stop-color="#EE6C4D" stop-opacity="0.1"/>
<stop offset="0.1" stop-color="#E56B52" stop-opacity="0.14"/>
<stop offset="0.26" stop-color="#CE6A5F" stop-opacity="0.23"/>
<stop offset="0.46" stop-color="#A76775" stop-opacity="0.39"/>
<stop offset="0.68" stop-color="#716294" stop-opacity="0.61"/>
<stop offset="0.91" stop-color="#2D5DBA" stop-opacity="0.89"/>
<stop offset="1" stop-color="#125BC9"/>
</linearGradient>
<clipPath id="clip0_1143_8784">
<rect width="286" height="180" rx="8" fill="white"/>
</clipPath>
</defs>
</svg>
