<svg width="267" height="170" viewBox="0 0 267 170" fill="none" xmlns="http://www.w3.org/2000/svg">
<g clip-path="url(#clip0_1672_12532)">
<path d="M259.559 1.32227H8.44056C4.33125 1.32227 1 4.65352 1 8.76283V161.277C1 165.386 4.33124 168.717 8.44055 168.717H259.559C263.669 168.717 267 165.386 267 161.277V8.76283C267 4.65352 263.669 1.32227 259.559 1.32227Z" fill="#FCF7EF"/>
<g opacity="0.38">
<path opacity="0.38" d="M174.484 79.1889L178.567 74.7432L174.494 79.1889H174.484Z" fill="url(#paint0_linear_1672_12532)"/>
<path opacity="0.38" d="M178.567 74.7903L180.028 77.3015C179.414 76.5853 178.828 75.8599 178.26 75.1251L178.214 75.06C177.879 74.5764 178.567 74.7903 178.567 74.7903Z" fill="url(#paint1_linear_1672_12532)"/>
<path opacity="0.38" d="M244.333 68.8567C244.333 68.8567 244.333 68.9497 244.333 68.9962C244.25 69.3031 244.166 69.61 244.064 69.9262C244.069 69.9507 244.069 69.976 244.064 70.0006C244.072 70.0279 244.072 70.0569 244.064 70.0843C243.803 71.0142 243.506 71.9442 243.18 72.8277C243.059 73.1997 242.92 73.5717 242.789 73.9343C242.786 73.959 242.786 73.984 242.789 74.0087C242.786 74.0303 242.786 74.0522 242.789 74.0738C242.65 74.4179 242.52 74.7713 242.38 75.1061C242.241 75.4409 242.008 76.0361 241.813 76.436C241.711 76.6871 241.599 76.9382 241.487 77.1892C240.79 78.7144 240.027 80.2117 239.199 81.6624C238.033 83.7263 236.718 85.7031 235.265 87.577C229.471 95.1377 221.668 100.811 212.59 103.098C209.111 104 205.5 104.283 201.922 103.935C200.447 103.795 198.986 103.54 197.551 103.173C193.107 101.987 188.925 99.9805 185.218 97.258C184.037 96.4211 182.884 95.519 181.758 94.5704C178.956 92.1699 176.335 89.5651 173.918 86.7773L173.629 86.4425C172.997 85.7078 172.374 84.9731 171.769 84.2198L173.992 85.3079L174.346 85.466L183.553 89.7718L184.781 88.4233L185.878 87.2236L182.363 81.216L180.056 77.2543C181.825 79.359 183.759 81.3182 185.841 83.1132C186.325 83.5316 186.771 83.9408 187.311 84.3314C190.45 86.889 194.018 88.8696 197.848 90.181C198.509 90.3949 199.178 90.5808 199.848 90.7389C200.574 90.9063 201.308 91.0551 202.052 91.1574C209.623 92.2455 217.352 88.7209 222.979 83.1411C223.667 82.4529 224.318 81.7461 224.941 81.0021C226.174 79.5374 227.296 77.9832 228.299 76.3523C229.02 75.1775 229.675 73.9636 230.261 72.7161C230.578 72.0465 230.875 71.3676 231.145 70.6794C231.312 70.2703 231.461 69.8704 231.61 69.4612C231.614 69.4397 231.614 69.4176 231.61 69.3961C231.616 69.3717 231.616 69.3461 231.61 69.3217C231.954 68.3917 232.252 67.4617 232.54 66.4574C232.544 66.4359 232.544 66.4138 232.54 66.3923C232.544 66.3676 232.544 66.3425 232.54 66.3179C232.661 65.8994 232.763 65.4716 232.856 65.0438C234.99 55.3049 233.523 45.1229 228.727 36.3821C228.001 35.0192 227.197 33.6995 226.318 32.4297C226.048 32.0391 225.778 31.6578 225.499 31.2765C225.007 30.6069 224.504 29.9653 223.974 29.3515C223.646 28.9609 223.311 28.5796 222.97 28.2076L222.533 27.7333C221.736 26.8797 220.895 26.0694 220.012 25.3061L219.51 24.8783C215.824 21.8097 211.686 19.3284 207.242 17.5222L206.982 17.4106C200.992 15.0642 194.825 13.1984 188.538 11.8308C184.527 10.8636 180.518 9.91196 176.513 8.97579L158.953 4.75372C154.712 3.74935 150.452 2.77288 146.192 1.78711H201.067C203.103 2.39159 205.122 3.04257 207.103 3.75865C217.333 7.47854 226.634 12.8352 234.01 22.0512C244.11 34.5965 248.76 52.4148 244.333 68.8567Z" fill="url(#paint2_linear_1672_12532)"/>
</g>
<g opacity="0.22">
<path opacity="0.22" d="M207.14 58.4038C207.108 58.4038 207.078 58.3911 207.055 58.3684C207.032 58.3457 207.02 58.315 207.02 58.2829V1.08965C207.02 1.05758 207.032 1.02683 207.055 1.00416C207.078 0.981488 207.108 0.968751 207.14 0.968751C207.156 0.968697 207.171 0.971861 207.185 0.978041C207.2 0.984222 207.212 0.993284 207.223 1.00465C207.233 1.01602 207.241 1.02945 207.246 1.04408C207.251 1.05871 207.253 1.07423 207.252 1.08965V58.2829C207.253 58.2983 207.251 58.3139 207.246 58.3285C207.241 58.3431 207.233 58.3565 207.223 58.3679C207.212 58.3793 207.2 58.3884 207.185 58.3945C207.171 58.4007 207.156 58.4039 207.14 58.4038Z" fill="#0F6972"/>
</g>
<path d="M207.01 59.4449C208.037 59.4449 208.87 58.6121 208.87 57.5847C208.87 56.5574 208.037 55.7246 207.01 55.7246C205.982 55.7246 205.149 56.5574 205.149 57.5847C205.149 58.6121 205.982 59.4449 207.01 59.4449Z" fill="white"/>
<path d="M207.009 59.5568C206.619 59.5568 206.238 59.4411 205.913 59.2245C205.589 59.0078 205.336 58.6999 205.187 58.3396C205.038 57.9793 204.999 57.5828 205.075 57.2004C205.151 56.8179 205.339 56.4665 205.615 56.1908C205.89 55.915 206.242 55.7272 206.624 55.6512C207.007 55.5751 207.403 55.6141 207.763 55.7634C208.124 55.9126 208.432 56.1653 208.648 56.4896C208.865 56.8138 208.981 57.1951 208.981 57.585C208.981 58.108 208.773 58.6095 208.403 58.9793C208.033 59.349 207.532 59.5568 207.009 59.5568ZM207.009 55.8365C206.663 55.8365 206.325 55.939 206.037 56.1312C205.75 56.3233 205.526 56.5964 205.393 56.9159C205.261 57.2354 205.226 57.587 205.294 57.9262C205.361 58.2653 205.528 58.5769 205.772 58.8214C206.017 59.066 206.329 59.2325 206.668 59.3C207.007 59.3674 207.358 59.3328 207.678 59.2005C207.998 59.0681 208.271 58.844 208.463 58.5565C208.655 58.2689 208.757 57.9309 208.757 57.585C208.755 57.122 208.57 56.6787 208.243 56.3513C207.915 56.0239 207.472 55.8389 207.009 55.8365Z" fill="#0F6972"/>
<path d="M207.243 17.3631C207.756 17.3631 208.173 16.9467 208.173 16.433C208.173 15.9193 207.756 15.5029 207.243 15.5029C206.729 15.5029 206.312 15.9193 206.312 16.433C206.312 16.9467 206.729 17.3631 207.243 17.3631Z" fill="white"/>
<path d="M207.242 17.4857C207.035 17.4857 206.831 17.4241 206.658 17.3086C206.486 17.1931 206.351 17.029 206.271 16.837C206.192 16.6449 206.171 16.4336 206.212 16.2297C206.252 16.0259 206.352 15.8386 206.499 15.6916C206.646 15.5446 206.833 15.4445 207.037 15.404C207.241 15.3634 207.453 15.3842 207.645 15.4638C207.837 15.5433 208.001 15.678 208.116 15.8509C208.232 16.0237 208.293 16.2269 208.293 16.4348C208.291 16.7128 208.179 16.9787 207.983 17.1752C207.786 17.3718 207.52 17.4833 207.242 17.4857ZM207.242 15.6256C207.082 15.6256 206.926 15.6731 206.793 15.762C206.66 15.8509 206.556 15.9773 206.495 16.1251C206.434 16.273 206.418 16.4357 206.449 16.5926C206.48 16.7496 206.557 16.8938 206.67 17.0069C206.783 17.1201 206.928 17.1972 207.085 17.2284C207.241 17.2596 207.404 17.2436 207.552 17.1823C207.7 17.1211 207.826 17.0174 207.915 16.8843C208.004 16.7512 208.052 16.5948 208.052 16.4348C208.052 16.2202 207.966 16.0144 207.815 15.8626C207.663 15.7109 207.457 15.6256 207.242 15.6256Z" fill="#0F6972"/>
<path d="M207.01 38.0564C207.524 38.0564 207.94 37.64 207.94 37.1264C207.94 36.6127 207.524 36.1963 207.01 36.1963C206.496 36.1963 206.08 36.6127 206.08 37.1264C206.08 37.64 206.496 38.0564 207.01 38.0564Z" fill="white"/>
<path d="M207.008 38.1673C206.802 38.1673 206.601 38.1063 206.43 37.9918C206.258 37.8773 206.125 37.7146 206.046 37.5243C205.967 37.334 205.947 37.1245 205.987 36.9224C206.027 36.7204 206.126 36.5348 206.272 36.3891C206.418 36.2434 206.603 36.1442 206.805 36.104C207.007 36.0638 207.217 36.0844 207.407 36.1633C207.597 36.2421 207.76 36.3756 207.875 36.5469C207.989 36.7182 208.05 36.9196 208.05 37.1257C208.05 37.4019 207.94 37.6669 207.745 37.8622C207.55 38.0576 207.285 38.1673 207.008 38.1673ZM207.008 36.3072C206.847 36.3072 206.688 36.3552 206.554 36.4451C206.419 36.5351 206.314 36.6629 206.252 36.8125C206.19 36.962 206.174 37.1266 206.206 37.2853C206.237 37.4441 206.315 37.5899 206.43 37.7044C206.544 37.8189 206.69 37.8968 206.849 37.9284C207.008 37.96 207.172 37.9438 207.322 37.8818C207.471 37.8199 207.599 37.715 207.689 37.5804C207.779 37.4458 207.827 37.2875 207.827 37.1257C207.825 36.9093 207.738 36.7026 207.585 36.5496C207.432 36.3966 207.225 36.3096 207.008 36.3072Z" fill="#0F6972"/>
<g opacity="0.22">
<path opacity="0.22" d="M45.4096 22.4683H0.998715C0.983242 22.4683 0.967927 22.4651 0.953742 22.459C0.939557 22.4528 0.926812 22.4437 0.916317 22.4324C0.905822 22.421 0.897805 22.4076 0.892777 22.3929C0.887748 22.3783 0.885817 22.3628 0.887107 22.3473C0.887107 22.3177 0.898866 22.2894 0.919796 22.2684C0.940727 22.2475 0.969115 22.2357 0.998715 22.2357H45.4096C45.425 22.2345 45.4405 22.2364 45.4551 22.2414C45.4698 22.2464 45.4832 22.2545 45.4946 22.265C45.5059 22.2754 45.515 22.2882 45.5212 22.3024C45.5274 22.3166 45.5305 22.3319 45.5305 22.3473C45.5305 22.3794 45.5177 22.4102 45.495 22.4328C45.4724 22.4555 45.4416 22.4683 45.4096 22.4683Z" fill="#0F6972"/>
</g>
<path d="M45.1775 24.106C46.2048 24.106 47.0377 23.2732 47.0377 22.2459C47.0377 21.2186 46.2048 20.3857 45.1775 20.3857C44.1502 20.3857 43.3174 21.2186 43.3174 22.2459C43.3174 23.2732 44.1502 24.106 45.1775 24.106Z" fill="white"/>
<path d="M45.1778 24.2179C44.7878 24.2179 44.4066 24.1023 44.0824 23.8856C43.7581 23.669 43.5054 23.361 43.3561 23.0007C43.2069 22.6404 43.1679 22.244 43.2439 21.8615C43.32 21.479 43.5078 21.1277 43.7836 20.8519C44.0593 20.5762 44.4107 20.3884 44.7931 20.3123C45.1756 20.2362 45.5721 20.2753 45.9324 20.4245C46.2927 20.5737 46.6006 20.8265 46.8173 21.1507C47.0339 21.475 47.1496 21.8562 47.1496 22.2462C47.1496 22.7691 46.9418 23.2706 46.572 23.6404C46.2023 24.0102 45.7007 24.2179 45.1778 24.2179ZM45.1778 20.4976C44.832 20.4976 44.4939 20.6002 44.2064 20.7923C43.9188 20.9844 43.6947 21.2575 43.5624 21.577C43.43 21.8965 43.3954 22.2481 43.4629 22.5873C43.5303 22.9265 43.6969 23.238 43.9414 23.4826C44.1859 23.7271 44.4975 23.8936 44.8367 23.9611C45.1759 24.0286 45.5274 23.9939 45.8469 23.8616C46.1664 23.7293 46.4395 23.5051 46.6317 23.2176C46.8238 22.9301 46.9263 22.592 46.9263 22.2462C46.9239 21.7832 46.7389 21.3399 46.4115 21.0125C46.0841 20.6851 45.6408 20.5001 45.1778 20.4976Z" fill="#0F6972"/>
<path d="M16.3451 23.1765C16.8588 23.1765 17.2752 22.7601 17.2752 22.2465C17.2752 21.7328 16.8588 21.3164 16.3451 21.3164C15.8314 21.3164 15.415 21.7328 15.415 22.2465C15.415 22.7601 15.8314 23.1765 16.3451 23.1765Z" fill="white"/>
<path d="M16.3454 23.2884C16.1394 23.2884 15.938 23.2273 15.7667 23.1129C15.5954 22.9984 15.4618 22.8357 15.383 22.6454C15.3042 22.455 15.2835 22.2456 15.3237 22.0435C15.3639 21.8415 15.4631 21.6559 15.6088 21.5102C15.7545 21.3645 15.9401 21.2653 16.1422 21.2251C16.3442 21.1849 16.5537 21.2055 16.744 21.2844C16.9344 21.3632 17.0971 21.4967 17.2115 21.668C17.326 21.8393 17.3871 22.0407 17.3871 22.2468C17.3871 22.3836 17.3601 22.519 17.3078 22.6454C17.2554 22.7718 17.1787 22.8866 17.082 22.9833C16.9852 23.0801 16.8704 23.1568 16.744 23.2091C16.6176 23.2615 16.4822 23.2884 16.3454 23.2884ZM16.3454 21.4283C16.1835 21.4283 16.0253 21.4763 15.8907 21.5662C15.7561 21.6562 15.6512 21.784 15.5892 21.9335C15.5273 22.0831 15.5111 22.2477 15.5427 22.4064C15.5742 22.5652 15.6522 22.711 15.7666 22.8255C15.8811 22.94 16.027 23.0179 16.1857 23.0495C16.3445 23.0811 16.509 23.0649 16.6586 23.0029C16.8082 22.941 16.936 22.8361 17.0259 22.7015C17.1158 22.5669 17.1639 22.4086 17.1639 22.2468C17.1614 22.0304 17.0744 21.8237 16.9215 21.6707C16.7685 21.5177 16.5617 21.4307 16.3454 21.4283Z" fill="#0F6972"/>
<g opacity="0.22">
<path opacity="0.22" d="M198.639 144.295H162.832C162.816 144.295 162.801 144.292 162.787 144.286C162.773 144.28 162.76 144.27 162.749 144.259C162.739 144.248 162.731 144.234 162.726 144.22C162.721 144.205 162.719 144.19 162.72 144.174C162.72 144.145 162.732 144.116 162.753 144.095C162.774 144.074 162.802 144.062 162.832 144.062H198.639C198.669 144.062 198.697 144.074 198.718 144.095C198.739 144.116 198.751 144.145 198.751 144.174C198.752 144.19 198.75 144.205 198.745 144.22C198.74 144.234 198.732 144.248 198.722 144.259C198.711 144.27 198.699 144.28 198.684 144.286C198.67 144.292 198.655 144.295 198.639 144.295Z" fill="#0F6972"/>
</g>
<g opacity="0.22">
<path opacity="0.22" d="M22.8652 57.8097H1.5666C1.55192 57.8085 1.53763 57.8044 1.52453 57.7977C1.51143 57.791 1.49979 57.7817 1.49028 57.7705C1.48077 57.7593 1.47358 57.7463 1.46912 57.7322C1.46466 57.7182 1.46302 57.7034 1.46429 57.6888C1.46299 57.6746 1.46468 57.6602 1.46924 57.6467C1.4738 57.6332 1.48113 57.6208 1.49076 57.6103C1.50039 57.5998 1.51211 57.5914 1.52517 57.5857C1.53823 57.58 1.55234 57.5771 1.5666 57.5771H22.8652C22.8795 57.5771 22.8936 57.58 22.9066 57.5857C22.9197 57.5914 22.9314 57.5998 22.941 57.6103C22.9507 57.6208 22.958 57.6332 22.9626 57.6467C22.9671 57.6602 22.9688 57.6746 22.9675 57.6888C22.9688 57.7034 22.9671 57.7182 22.9627 57.7322C22.9582 57.7463 22.951 57.7593 22.9415 57.7705C22.932 57.7817 22.9204 57.791 22.9073 57.7977C22.8942 57.8044 22.8799 57.8085 22.8652 57.8097Z" fill="#0F6972"/>
</g>
<path d="M199.569 145.003C200.082 145.003 200.499 144.586 200.499 144.073C200.499 143.559 200.082 143.143 199.569 143.143C199.055 143.143 198.639 143.559 198.639 144.073C198.639 144.586 199.055 145.003 199.569 145.003Z" fill="#0F6972"/>
<path d="M22.8559 58.5154C23.3695 58.5154 23.7859 58.099 23.7859 57.5853C23.7859 57.0717 23.3695 56.6553 22.8559 56.6553C22.3422 56.6553 21.9258 57.0717 21.9258 57.5853C21.9258 58.099 22.3422 58.5154 22.8559 58.5154Z" fill="#0F6972"/>
<path d="M21.9169 120.842C22.4357 120.842 22.8563 120.421 22.8563 119.902C22.8563 119.383 22.4357 118.963 21.9169 118.963C21.3981 118.963 20.9775 119.383 20.9775 119.902C20.9775 120.421 21.3981 120.842 21.9169 120.842Z" fill="#0F6972"/>
<g opacity="0.22">
<path opacity="0.22" d="M22.1582 153.373H1.66876C1.63669 153.373 1.60594 153.36 1.58327 153.337C1.56059 153.315 1.54785 153.284 1.54785 153.252C1.5478 153.236 1.55096 153.221 1.55714 153.207C1.56333 153.193 1.57239 153.18 1.58376 153.169C1.59513 153.159 1.60856 153.151 1.62319 153.146C1.63782 153.141 1.65334 153.139 1.66876 153.14H21.9257V120.136C21.9244 120.12 21.9263 120.105 21.9314 120.09C21.9364 120.075 21.9444 120.062 21.9549 120.051C21.9654 120.039 21.9781 120.03 21.9923 120.024C22.0065 120.018 22.0218 120.015 22.0373 120.015C22.0694 120.015 22.1001 120.027 22.1228 120.05C22.1455 120.073 22.1582 120.103 22.1582 120.136V153.373Z" fill="#0F6972"/>
</g>
<path d="M246.305 109.319H230.029C228.103 109.319 226.541 110.881 226.541 112.807C226.541 114.733 228.103 116.295 230.029 116.295H246.305C248.231 116.295 249.793 114.733 249.793 112.807C249.793 110.881 248.231 109.319 246.305 109.319Z" fill="#125BC9"/>
<g opacity="0.16">
<path opacity="0.16" d="M61.221 139.461H44.9448C43.0186 139.461 41.457 141.022 41.457 142.949C41.457 144.875 43.0186 146.436 44.9448 146.436H61.221C63.1473 146.436 64.7088 144.875 64.7088 142.949C64.7088 141.022 63.1473 139.461 61.221 139.461Z" fill="#293241"/>
</g>
<path d="M53.7805 139.46H44.9448C43.0186 139.46 41.457 141.021 41.457 142.948C41.457 144.874 43.0186 146.435 44.9448 146.435H53.7805C55.7067 146.435 57.2682 144.874 57.2682 142.948C57.2682 141.021 55.7067 139.46 53.7805 139.46Z" fill="#293241"/>
<path d="M245.914 115.123C247.198 115.123 248.239 114.082 248.239 112.798C248.239 111.514 247.198 110.473 245.914 110.473C244.63 110.473 243.589 111.514 243.589 112.798C243.589 114.082 244.63 115.123 245.914 115.123Z" fill="white"/>
<path d="M53.083 145.272C54.3671 145.272 55.4082 144.231 55.4082 142.947C55.4082 141.663 54.3671 140.622 53.083 140.622C51.7988 140.622 50.7578 141.663 50.7578 142.947C50.7578 144.231 51.7988 145.272 53.083 145.272Z" fill="white"/>
<path d="M187.431 78.3896L187.292 83.9136V84.732C187.292 84.732 187.013 86.471 186.501 89.3818C186.157 91.2976 185.72 93.7341 185.199 96.5147C185.153 96.7565 185.106 96.9983 185.069 97.2401C184.762 98.8768 184.427 100.625 184.074 102.448C183.534 105.163 182.958 108.028 182.335 111.004C181.712 113.98 181.014 117.169 180.298 120.248C180.01 121.475 179.721 122.703 179.433 123.902C178.642 127.157 177.833 130.291 177.005 133.202C176.857 133.714 176.717 134.206 176.568 134.699L175.341 138.475L173.48 144.194L172.178 148.203L169.267 157.186L168.337 159.976L167.984 161.045L165.342 169.211H78.8086L96.0242 144.678L96.6287 143.822L101.986 136.187L103.734 133.695L108.487 126.925C108.961 126.079 109.417 125.223 109.836 124.349C110.412 123.177 110.933 121.987 111.408 120.778C112.585 117.773 113.454 114.658 114.002 111.478C114.161 110.604 114.281 109.73 114.384 108.846C114.742 106.193 114.842 103.511 114.681 100.839C113.751 91.2232 102.246 66.1511 98.5168 58.2464C98.4647 58.1372 98.4181 58.0254 98.3773 57.9116C98.2579 57.5179 98.223 57.1034 98.275 56.6953C98.327 56.2872 98.4646 55.8947 98.6788 55.5435C98.8931 55.1923 99.1792 54.8903 99.5183 54.6573C99.8574 54.4244 100.242 54.2657 100.647 54.1917C101.301 54.0796 101.964 54.0236 102.628 54.0243C103.259 54.035 103.886 54.1384 104.488 54.3312C111.315 56.3492 122.066 67.853 122.42 68.2808C123.109 67.7342 123.733 67.1101 124.28 66.4208C124.815 65.7598 125.283 65.0463 125.675 64.2912C126.457 62.7995 126.982 61.1867 127.228 59.5204C127.223 59.4896 127.223 59.4582 127.228 59.4274C127.274 59.1379 127.305 58.8461 127.321 58.5533C127.321 58.4045 127.321 58.2557 127.321 58.0883C127.321 57.9209 127.321 57.6233 127.368 57.3908C127.399 55.5917 127.899 53.8319 128.818 52.2852C130.037 50.5369 131.925 49.9696 134.287 49.1698C138.314 47.8214 143.988 51.1972 143.988 51.1972C143.988 51.1972 146.648 45.8405 152.6 46.9937C158.553 48.1469 159.985 50.4532 160.292 51.1507C161.989 50.6287 163.788 50.5253 165.534 50.8491C167.28 51.173 168.921 51.9146 170.318 53.0106C173.159 55.3582 175.735 58.0089 178.001 60.9154C178.001 60.9154 180.558 64.8213 179.572 67.3415C179.572 67.1834 186.669 72.8655 187.431 78.3896Z" fill="url(#paint3_linear_1672_12532)"/>
<g opacity="0.71">
<path opacity="0.71" d="M161.558 86.8799H161.288C159.045 86.82 156.908 85.9129 155.308 84.341C152.685 81.8394 151.327 77.8312 151.29 72.3537C151.169 57.874 158.014 51.513 158.302 51.2526C158.347 51.2074 158.4 51.1717 158.459 51.1478C158.517 51.1238 158.58 51.1121 158.644 51.1134C158.707 51.1146 158.769 51.1289 158.827 51.1551C158.885 51.1814 158.937 51.2192 158.979 51.2662C159.022 51.3132 159.054 51.3683 159.075 51.4283C159.095 51.4883 159.103 51.5519 159.098 51.6151C159.093 51.6782 159.075 51.7397 159.045 51.7957C159.016 51.8518 158.975 51.9011 158.926 51.9408C158.86 52.0059 152.108 58.3111 152.22 72.3537C152.22 77.5336 153.513 81.3372 155.94 83.6529C157.386 85.063 159.306 85.8823 161.325 85.9499C161.39 85.9499 162.99 86.0708 163.483 85.1501C163.512 85.0964 163.552 85.049 163.599 85.0105C163.647 84.9721 163.702 84.9434 163.761 84.9262C163.819 84.9089 163.881 84.9033 163.942 84.9099C164.003 84.9164 164.062 84.9348 164.115 84.9641C164.169 84.9934 164.217 85.033 164.255 85.0807C164.293 85.1283 164.322 85.1831 164.339 85.2418C164.357 85.3005 164.362 85.3621 164.356 85.4229C164.349 85.4838 164.331 85.5428 164.301 85.5965C163.994 86.0294 163.58 86.3753 163.099 86.6002C162.618 86.8251 162.087 86.9215 161.558 86.8799Z" fill="#064744"/>
</g>
<g opacity="0.71">
<path opacity="0.71" d="M149.642 81.2998C148.219 81.2998 145.922 80.6396 143.067 77.3103C138.602 72.0001 142.713 52.6939 142.89 51.8755C142.903 51.8145 142.927 51.7565 142.963 51.705C142.998 51.6535 143.043 51.6094 143.095 51.5753C143.147 51.5412 143.206 51.5177 143.267 51.5062C143.329 51.4947 143.392 51.4954 143.453 51.5082C143.514 51.521 143.572 51.5457 143.623 51.581C143.675 51.6162 143.719 51.6612 143.753 51.7134C143.787 51.7657 143.81 51.8241 143.822 51.8854C143.833 51.9468 143.833 52.0098 143.82 52.0708C143.82 52.2661 139.635 71.7397 143.82 76.7058C147.866 81.5137 150.628 80.2304 150.74 80.1746C151.279 79.9607 152.274 79.3748 152.2 78.8075C152.193 78.7465 152.197 78.6845 152.214 78.6253C152.231 78.5661 152.259 78.5107 152.297 78.4624C152.335 78.414 152.382 78.3736 152.435 78.3435C152.489 78.3133 152.548 78.2941 152.609 78.2867C152.67 78.2794 152.732 78.2842 152.791 78.3008C152.851 78.3174 152.906 78.3455 152.954 78.3835C153.003 78.4215 153.043 78.4686 153.073 78.5222C153.103 78.5758 153.123 78.6349 153.13 78.6959C153.297 80.1281 151.344 80.9371 151.121 81.0208C150.656 81.2248 150.15 81.3202 149.642 81.2998Z" fill="#064744"/>
</g>
<g opacity="0.71">
<path opacity="0.71" d="M160.972 101.221C160.857 101.221 160.747 101.18 160.661 101.105C160.575 101.029 160.52 100.925 160.507 100.811C160.507 100.597 157.847 79.7103 128.428 74.5396C128.368 74.5295 128.31 74.5075 128.258 74.4749C128.206 74.4422 128.161 74.3996 128.125 74.3494C128.09 74.2993 128.065 74.2426 128.051 74.1827C128.038 74.1227 128.036 74.0607 128.047 74.0003C128.07 73.8791 128.139 73.7715 128.24 73.7003C128.34 73.6291 128.465 73.5999 128.587 73.619C144.314 76.4089 152.406 83.5883 156.414 89.1402C158.991 92.5383 160.714 96.506 161.437 100.709C161.443 100.77 161.437 100.832 161.42 100.891C161.402 100.95 161.373 101.005 161.334 101.052C161.295 101.1 161.247 101.139 161.193 101.168C161.139 101.197 161.079 101.215 161.018 101.221H160.972Z" fill="#064744"/>
</g>
<g opacity="0.71">
<path opacity="0.71" d="M142.109 60.032C141.998 60.0315 141.891 59.9922 141.806 59.9208C141.721 59.8495 141.664 59.7506 141.644 59.6413L140.714 53.6517C140.703 53.5918 140.705 53.5303 140.718 53.4709C140.732 53.4116 140.757 53.3556 140.793 53.3061C140.828 53.2567 140.873 53.2149 140.925 53.1832C140.977 53.1515 141.035 53.1306 141.095 53.1216C141.156 53.1123 141.218 53.1151 141.277 53.1297C141.336 53.1444 141.392 53.1706 141.441 53.2069C141.491 53.2432 141.532 53.2888 141.564 53.3412C141.595 53.3936 141.616 53.4517 141.625 53.5122L142.556 59.4925C142.566 59.5531 142.564 59.6153 142.55 59.6752C142.536 59.7351 142.51 59.7915 142.473 59.841C142.437 59.8906 142.391 59.9322 142.338 59.9634C142.285 59.9946 142.226 60.0148 142.165 60.0227L142.109 60.032Z" fill="#064744"/>
</g>
<g opacity="0.71">
<path opacity="0.71" d="M102.664 64.1237C102.541 64.1237 102.423 64.0747 102.336 63.9875C102.248 63.9003 102.199 63.782 102.199 63.6587C102.199 63.5353 102.248 63.4171 102.336 63.3298C102.423 63.2426 102.541 63.1936 102.664 63.1936C102.778 63.1803 102.888 63.1437 102.988 63.0861C103.087 63.0285 103.173 62.9512 103.241 62.8588C103.364 62.5822 103.428 62.2828 103.428 61.9799C103.428 61.677 103.364 61.3776 103.241 61.101C102.627 58.8781 100.181 58.8502 100.051 58.8502C99.9276 58.8502 99.8094 58.8012 99.7221 58.714C99.6349 58.6268 99.5859 58.5085 99.5859 58.3852C99.5859 58.2618 99.6349 58.1436 99.7221 58.0564C99.8094 57.9691 99.9276 57.9201 100.051 57.9201C100.96 57.8985 101.851 58.1711 102.592 58.6974C103.332 59.2238 103.883 59.9755 104.162 60.8406C104.327 61.2535 104.395 61.6987 104.361 62.1421C104.327 62.5854 104.192 63.0152 103.967 63.3983C103.818 63.6041 103.626 63.7749 103.404 63.8986C103.182 64.0223 102.936 64.096 102.683 64.1144L102.664 64.1237Z" fill="#064744"/>
</g>
<g opacity="0.71">
<path opacity="0.71" d="M170.821 88.2735C168.866 88.1306 166.963 87.5727 165.241 86.6367C163.529 85.8689 162.069 84.6345 161.027 83.0749C160.14 81.6524 159.665 80.0117 159.655 78.3353C159.646 76.6589 160.101 75.0127 160.972 73.5799C162.395 71.1806 165.157 66.7911 167.752 64.2151C171.816 60.1976 178.792 66.3633 179.089 66.6237C179.133 66.6669 179.167 66.7184 179.191 66.775C179.215 66.8317 179.227 66.8925 179.227 66.9539C179.227 67.0152 179.215 67.076 179.191 67.1327C179.167 67.1893 179.133 67.2408 179.089 67.284C179.001 67.3698 178.882 67.4178 178.759 67.4178C178.636 67.4178 178.517 67.3698 178.429 67.284C178.364 67.2189 171.816 61.4345 168.375 64.8382C165.833 67.6463 163.606 70.7243 161.734 74.017C160.947 75.2983 160.53 76.7726 160.53 78.2763C160.53 79.78 160.947 81.2543 161.734 82.5355C162.694 83.9701 164.043 85.1022 165.622 85.7997C168.561 87.1947 170.681 87.6597 171.937 87.1482C172.31 86.9694 172.639 86.7097 172.9 86.388C173.161 86.0663 173.346 85.6906 173.444 85.2883C173.881 84.1723 173.258 81.6521 172.988 80.7686C172.953 80.6502 172.965 80.5227 173.023 80.4133C173.08 80.3039 173.178 80.2212 173.295 80.1827C173.412 80.1478 173.538 80.1604 173.646 80.2179C173.754 80.2753 173.835 80.3729 173.872 80.4896C173.983 80.843 174.941 84.0049 174.309 85.6324C174.166 86.1559 173.911 86.642 173.561 87.0565C173.21 87.471 172.774 87.8038 172.281 88.0317C171.814 88.2035 171.319 88.2855 170.821 88.2735Z" fill="#064744"/>
</g>
<g opacity="0.71">
<path opacity="0.71" d="M170.765 83.514C170.691 83.5137 170.617 83.4958 170.551 83.4619C170.485 83.4279 170.428 83.3789 170.384 83.3187C170.316 83.2173 170.29 83.0931 170.313 82.973C170.335 82.8529 170.404 82.7466 170.505 82.677C173.574 80.5192 175.815 76.2874 175.843 76.2409C175.901 76.133 175.998 76.052 176.115 76.0154C176.232 75.9789 176.358 75.9897 176.467 76.0456C176.521 76.074 176.57 76.1129 176.609 76.1602C176.649 76.2075 176.678 76.2621 176.696 76.321C176.715 76.3798 176.721 76.4416 176.715 76.5029C176.709 76.5642 176.691 76.6237 176.662 76.678C176.569 76.8547 174.29 81.1516 171.035 83.4303C170.957 83.4886 170.862 83.5182 170.765 83.514Z" fill="#064744"/>
</g>
<path d="M178.252 81.6064C178.252 81.6064 175.044 82.4249 173.807 81.9227" stroke="#0F6972" stroke-width="0.93007" stroke-miterlimit="10" stroke-linecap="round"/>
<g opacity="0.71">
<path opacity="0.71" d="M138.565 75.9528C136.081 75.8522 133.68 75.0315 131.655 73.5907C127.934 71.0797 127.144 60.757 127.107 60.32C127.098 60.1966 127.139 60.0749 127.22 59.9816C127.301 59.8883 127.416 59.8311 127.539 59.8224C127.662 59.8138 127.784 59.8545 127.877 59.9356C127.971 60.0167 128.028 60.1315 128.037 60.2549C128.037 60.3572 128.818 70.559 132.175 72.8188C135.533 75.0786 139.309 75.6738 141.281 74.3067C141.331 74.2715 141.388 74.2467 141.449 74.2337C141.509 74.2207 141.571 74.2198 141.632 74.231C141.692 74.2423 141.75 74.2655 141.802 74.2992C141.853 74.333 141.897 74.3766 141.932 74.4276C141.998 74.5297 142.022 74.6532 141.999 74.7726C141.977 74.892 141.91 74.9982 141.811 75.0693C140.843 75.6846 139.711 75.9926 138.565 75.9528Z" fill="#064744"/>
</g>
<g opacity="0.71">
<path opacity="0.71" d="M125.126 71.8892C125.057 71.89 124.988 71.8753 124.926 71.8464C124.863 71.8174 124.807 71.7748 124.763 71.7217L122.038 68.4293C121.998 68.3833 121.968 68.3297 121.949 68.2717C121.93 68.2138 121.923 68.1527 121.928 68.092C121.934 68.0313 121.951 67.9723 121.979 67.9184C122.008 67.8645 122.047 67.8168 122.094 67.7782C122.191 67.7006 122.314 67.6639 122.437 67.6761C122.561 67.6883 122.674 67.7483 122.754 67.8434L125.479 71.1265C125.558 71.2221 125.596 71.3446 125.586 71.468C125.575 71.5914 125.517 71.7058 125.423 71.7868C125.339 71.8545 125.234 71.8907 125.126 71.8892Z" fill="#064744"/>
</g>
<path d="M127.191 59.3345C127.176 61.3609 127.427 63.3805 127.935 65.3421L125.629 64.1052L124.596 63.538L96.0898 48.0167L98.9731 42.7066L99.3823 41.9533L101.856 37.415L128.828 52.0807L129.135 52.2574C128.373 53.1874 127.796 55.6146 127.489 57.2513C127.415 57.6977 127.349 58.079 127.294 58.3487C127.247 58.6277 127.229 58.7951 127.229 58.7951C127.219 58.9375 127.219 59.0804 127.229 59.2229C127.209 59.2573 127.196 59.2952 127.191 59.3345Z" fill="#EE6C4D"/>
<path d="M205.791 98.9694L204.219 101.862C204.063 102.14 203.88 102.402 203.671 102.643C203.017 103.401 202.123 103.912 201.138 104.091C200.153 104.271 199.137 104.107 198.258 103.629L195.3 102.01L194.547 101.601L192.268 100.364L185.404 96.6445L185.181 96.5329L169.556 88.0329C170.056 88.243 170.6 88.3266 171.14 88.2763C171.681 88.226 172.2 88.0434 172.653 87.7446L173.583 87.0472C174.381 85.7907 174.676 84.2801 174.411 82.8158C174.411 82.5461 174.346 82.3043 174.308 82.0718C174.226 81.6003 174.114 81.1344 173.973 80.6769C174.754 79.7962 175.431 78.8289 175.992 77.7939L187.301 83.9411L198.053 89.7999L200.322 91.0367L201.076 91.4552L204.033 93.0734C205.044 93.6261 205.796 94.5556 206.125 95.6598C206.455 96.7639 206.335 97.9534 205.791 98.9694Z" fill="#EE6C4D"/>
<g opacity="0.12">
<path opacity="0.12" d="M127.935 65.3419L125.629 64.1051L124.596 63.5378L96.0898 48.0165L98.9731 42.7064L99.3823 41.9531L127.368 57.1861L127.48 57.2512C127.405 57.6976 127.34 58.0788 127.284 58.3485C127.238 58.6275 127.219 58.7949 127.219 58.7949C127.21 58.9374 127.21 59.0803 127.219 59.2227C127.215 59.2535 127.215 59.2849 127.219 59.3157C127.194 61.3471 127.434 63.3731 127.935 65.3419Z" fill="white"/>
</g>
<g opacity="0.12">
<path opacity="0.12" d="M203.671 102.687C203.017 103.445 202.123 103.957 201.138 104.136C200.153 104.315 199.137 104.152 198.258 103.673L195.3 102.055L194.547 101.646L192.268 100.409L185.404 96.689L185.181 96.5774L169.556 88.0775C170.056 88.2876 170.6 88.3712 171.14 88.3209C171.681 88.2706 172.2 88.088 172.653 87.7892L173.583 87.0917C174.381 85.8353 174.676 84.3247 174.411 82.8604L186.502 89.4446L195.57 94.3176L197.839 95.5545L198.592 95.973L201.559 97.5818C202.445 98.0596 203.139 98.8285 203.524 99.7587C203.909 100.689 203.96 101.723 203.671 102.687Z" fill="white"/>
</g>
<path d="M101.865 37.414L99.391 41.9522H99.3817L98.9724 42.7148L97.968 44.5655L97.289 45.8023L96.0892 48.0157L93.1595 44.984L86.1747 37.7674L86.0352 37.6279L87.6814 34.6055L101.856 37.414H101.865Z" fill="#E1E5F2"/>
<path d="M200.313 91.0088L204.034 93.0268C205.056 93.5832 205.815 94.5228 206.145 95.6389C206.474 96.7549 206.347 97.9562 205.791 98.9786L204.22 101.871C204.069 102.15 203.888 102.412 203.68 102.652C203.023 103.406 202.128 103.912 201.144 104.088C200.16 104.264 199.145 104.099 198.267 103.619L194.547 101.601L200.313 91.0088Z" fill="#293241"/>
<path d="M198.041 89.7534L192.269 100.356L195.299 102.006L201.071 91.4029L198.041 89.7534Z" fill="#E1E5F2"/>
<path d="M82.6123 33.8047L86.035 37.6273L87.6812 34.6045L82.6123 33.8047Z" fill="#293241"/>
<g opacity="0.1">
<path opacity="0.1" d="M151.428 100.928C154.075 98.1711 151.576 91.4787 145.848 85.9798C140.119 80.4809 133.329 78.2579 130.683 81.0145C128.036 83.7712 130.535 90.4636 136.264 95.9625C141.992 101.461 148.782 103.684 151.428 100.928Z" fill="#F4F3EE"/>
</g>
<g opacity="0.1">
<path opacity="0.1" d="M110.38 62.0485C111.095 61.3037 110.419 59.4946 108.87 58.0078C107.321 56.5209 105.485 55.9194 104.77 56.6642C104.055 57.4089 104.731 59.218 106.28 60.7049C107.829 62.1917 109.665 62.7933 110.38 62.0485Z" fill="#F4F3EE"/>
</g>
<g opacity="0.15">
<path opacity="0.15" d="M165.111 63.4041C166.956 58.4506 166.518 53.7151 164.132 52.8271C161.747 51.9391 158.318 55.2348 156.474 60.1882C154.629 65.1417 155.067 69.8771 157.453 70.7651C159.838 71.6532 163.267 68.3575 165.111 63.4041Z" fill="#F4F3EE"/>
</g>
<g opacity="0.15">
<path opacity="0.15" d="M151.726 58.4325C152.599 53.9716 151.566 50.0148 149.418 49.5947C147.271 49.1746 144.822 52.4503 143.95 56.9112C143.077 61.372 144.11 65.3288 146.258 65.749C148.405 66.1691 150.853 62.8934 151.726 58.4325Z" fill="#F4F3EE"/>
</g>
<g opacity="0.15">
<path opacity="0.15" d="M134.219 68.7778C136.387 68.4823 137.647 64.5918 137.033 60.088C136.42 55.5842 134.164 52.1726 131.996 52.468C129.828 52.7634 128.568 56.654 129.182 61.1578C129.796 65.6616 132.051 69.0732 134.219 68.7778Z" fill="#F4F3EE"/>
</g>
<g opacity="0.15">
<path opacity="0.15" d="M170.188 73.9018C172.014 71.0698 172.388 68.061 171.024 67.1816C169.66 66.3021 167.074 67.885 165.248 70.7169C163.422 73.5489 163.047 76.5577 164.412 77.4371C165.776 78.3166 168.362 76.7338 170.188 73.9018Z" fill="#F4F3EE"/>
</g>
<g opacity="0.6">
<path opacity="0.6" d="M185.404 96.6248L185.181 96.5132C184.837 98.3731 184.465 100.354 184.055 102.446L169.556 88.0039L185.181 96.5039L185.404 96.6248Z" fill="#293241"/>
</g>
<g opacity="0.6">
<path opacity="0.6" d="M127.935 65.3404L124.215 66.2705C124.751 65.6094 125.218 64.8958 125.61 64.1406L127.935 65.3404Z" fill="#293241"/>
</g>
<path d="M98.9824 42.7051L96.0898 48.0158L98.9731 42.7144L98.9824 42.7051Z" fill="url(#paint4_linear_1672_12532)"/>
<path d="M96.3045 47.6162H96.3696C96.7974 47.9604 96.0906 47.9697 96.0906 47.9697L94.0537 45.8584C94.8257 46.4629 95.579 47.0303 96.3045 47.6162Z" fill="url(#paint5_linear_1672_12532)"/>
<path d="M225.722 155.698C224.395 160.423 222.493 164.968 220.058 169.229H204.786C205.954 168.014 207.024 166.708 207.986 165.323C213.222 157.949 218.012 146.305 214.124 137.061C211.827 131.584 206.823 128.329 201.856 126.153C200.288 125.455 198.647 124.935 196.964 124.6C196.593 124.528 196.217 124.484 195.839 124.47L194.658 124.377C189.57 124.098 184.473 123.986 179.386 123.93C175.089 123.884 170.783 123.93 166.477 123.93C147.587 123.93 128.697 124.218 109.807 124.386L99.7626 124.451C83.7747 124.47 68.3635 122.786 54.9426 112.492C42.0704 102.69 33.2627 86.4523 33.6719 69.378C34.0625 52.5641 42.182 36.1966 56.3842 28.6267C71.9443 20.3313 87.3648 27.2782 100.581 37.1545L87.681 34.6064L86.0348 37.5916L93.1591 45.0314L94.0334 45.9613C86.8719 40.8 77.9897 36.8941 69.3494 37.7683C60.709 38.6425 53.4824 45.2081 49.5761 53.1221C41.2055 70.2522 46.9998 89.9676 60.9415 101.536C72.7813 111.366 87.4206 111.71 101.651 111.608C105.774 111.608 109.891 111.568 114.002 111.487L131.934 111.301C148.675 111.143 165.528 110.566 182.306 111.069C186.51 111.18 190.723 111.376 194.918 111.655C199.765 111.964 204.501 113.239 208.847 115.407C213.194 117.574 217.062 120.589 220.225 124.274C227.536 132.914 228.866 144.78 225.722 155.698Z" fill="url(#paint6_linear_1672_12532)"/>
<path d="M98.9824 42.7051L96.0898 48.0158L98.9731 42.7144L98.9824 42.7051Z" fill="url(#paint7_linear_1672_12532)"/>
<path d="M96.3045 47.6162H96.3696C96.7974 47.9604 96.0906 47.9697 96.0906 47.9697L94.0537 45.8584C94.8257 46.4629 95.579 47.0303 96.3045 47.6162Z" fill="url(#paint8_linear_1672_12532)"/>
<path d="M225.722 155.698C224.395 160.423 222.493 164.968 220.058 169.229H204.786C205.954 168.014 207.024 166.708 207.986 165.323C213.222 157.949 218.012 146.305 214.124 137.061C211.827 131.584 206.823 128.329 201.856 126.153C200.288 125.455 198.647 124.935 196.964 124.6C196.593 124.528 196.217 124.484 195.839 124.47L194.658 124.377C189.57 124.098 184.473 123.986 179.386 123.93C175.089 123.884 170.783 123.93 166.477 123.93C147.587 123.93 128.697 124.218 109.807 124.386L99.7626 124.451C83.7747 124.47 68.3635 122.786 54.9426 112.492C42.0704 102.69 33.2627 86.4523 33.6719 69.378C34.0625 52.5641 42.182 36.1966 56.3842 28.6267C71.9443 20.3313 87.3648 27.2782 100.581 37.1545L87.681 34.6064L86.0348 37.5916L93.1591 45.0314L94.0334 45.9613C86.8719 40.8 77.9897 36.8941 69.3494 37.7683C60.709 38.6425 53.4824 45.2081 49.5761 53.1221C41.2055 70.2522 46.9998 89.9676 60.9415 101.536C72.7813 111.366 87.4206 111.71 101.651 111.608C105.774 111.608 109.891 111.568 114.002 111.487L131.934 111.301C148.675 111.143 165.528 110.566 182.306 111.069C186.51 111.18 190.723 111.376 194.918 111.655C199.765 111.964 204.501 113.239 208.847 115.407C213.194 117.574 217.062 120.589 220.225 124.274C227.536 132.914 228.866 144.78 225.722 155.698Z" fill="url(#paint9_linear_1672_12532)"/>
<path d="M249.495 74.4272L248.761 76.3988C248.61 76.6933 248.388 76.9454 248.115 77.1322C247.842 77.319 247.527 77.4345 247.198 77.4682H247.086C245.225 77.7324 243.33 77.6346 241.506 77.1799H241.404L240.743 77.0311H240.65C239.233 76.6806 237.838 76.2426 236.474 75.7199C232.633 74.3063 229.471 72.4464 227.834 70.791L227.76 70.7166C227.634 70.5904 227.516 70.4568 227.406 70.3167L227.332 70.233C227.235 70.1142 227.145 69.99 227.062 69.861L226.997 69.7587C226.917 69.6304 226.845 69.4968 226.783 69.3589C226.783 69.3589 226.783 69.2659 226.783 69.2287C226.663 68.9045 226.663 68.5484 226.783 68.2243L227.509 66.2528C227.503 66.2095 227.503 66.1658 227.509 66.1226C228.206 64.2626 233.712 64.523 239.813 66.7735C245.915 69.0241 250.286 72.3534 249.588 74.2691L249.495 74.4272Z" fill="white"/>
<path d="M245.384 77.7659C244.067 77.7462 242.756 77.5966 241.468 77.3195H241.375L240.715 77.18H240.622C239.2 76.8432 237.799 76.4209 236.427 75.9153C232.707 74.5389 229.461 72.6883 227.75 70.9585L227.675 70.8841C227.545 70.7446 227.424 70.6144 227.313 70.4749L227.238 70.3912C227.136 70.261 227.043 70.1308 226.959 70.0099L226.894 69.8984C226.814 69.7668 226.742 69.6302 226.68 69.4892L226.634 69.3776C226.505 69.0295 226.505 68.6468 226.634 68.2988L227.406 66.2064C228.14 64.2255 233.609 64.4859 239.859 66.7922C246.109 69.0986 250.434 72.4558 249.709 74.4366L248.937 76.5105C248.766 76.8172 248.52 77.076 248.223 77.2629C247.925 77.4498 247.586 77.5588 247.235 77.5799H247.123C246.552 77.705 245.969 77.7674 245.384 77.7659ZM227.489 66.4203L226.801 68.2802C226.704 68.5857 226.721 68.9159 226.848 69.2102C226.843 69.2535 226.843 69.2971 226.848 69.3404C226.907 69.4721 226.975 69.5995 227.052 69.7217L227.117 69.824C227.195 69.9513 227.282 70.0725 227.378 70.1866L227.443 70.2703L227.796 70.6702L227.871 70.7353C229.564 72.4465 232.772 74.2785 236.465 75.6363C237.824 76.1417 239.212 76.5641 240.622 76.901H240.687L241.375 77.0498H241.468C243.293 77.5008 245.187 77.5986 247.049 77.3381H247.16C247.471 77.3118 247.77 77.2076 248.03 77.0354C248.291 76.8631 248.503 76.6283 248.649 76.3524L249.337 74.4924L249.393 74.3808C249.412 74.3422 249.428 74.3017 249.439 74.2599C250.118 72.4 245.719 69.1451 239.729 66.9224C233.74 64.6998 228.252 64.3743 227.582 66.1971C227.578 66.2373 227.578 66.2778 227.582 66.318V66.4482L227.489 66.4203Z" fill="#0F6972"/>
<path d="M228.281 66.6056L227.062 69.898L226.997 69.7957L228.188 66.5684L228.281 66.6056Z" fill="#B2B6BF"/>
<path d="M228.485 67.4244L227.406 70.3541L227.332 70.2704L228.392 67.3965L228.485 67.4244Z" fill="#B2B6BF"/>
<path d="M229.025 67.629L227.834 70.8284L227.76 70.754L228.932 67.5918L229.025 67.629Z" fill="#B2B6BF"/>
<path d="M242.39 72.5572L240.735 77.0401H240.642L242.306 72.5479L242.39 72.5572Z" fill="#B2B6BF"/>
<path d="M228.02 66.0572L226.783 69.3961C226.783 69.3961 226.783 69.3031 226.783 69.2659L227.936 66.0293L228.02 66.0572Z" fill="#B2B6BF"/>
<path d="M243.116 72.8272L241.498 77.2078H241.396L243.023 72.8086L243.116 72.8272Z" fill="#B2B6BF"/>
<path d="M248.91 72.874L247.208 77.5244H247.097L248.817 72.874H248.91Z" fill="#B2B6BF"/>
<path d="M249.563 74.3151C250.261 72.4262 245.884 69.071 239.788 66.8211C233.693 64.5712 228.186 64.2787 227.488 66.1676C226.791 68.0566 231.167 71.4118 237.263 73.6616C243.359 75.9115 248.866 76.2041 249.563 74.3151Z" fill="white"/>
<path d="M246.137 75.719C243.075 75.5802 240.057 74.9328 237.208 73.8033C234.554 72.8672 232.048 71.555 229.768 69.9067C227.907 68.456 227.033 67.1168 227.387 66.1868C228.121 64.206 233.59 64.4664 239.84 66.7727C246.09 69.079 250.415 72.4362 249.69 74.4171C249.327 75.2355 248.034 75.719 246.137 75.719ZM230.837 65.0151C229.079 65.0151 227.88 65.3964 227.582 66.1961C227.284 66.9959 228.103 68.3165 229.879 69.6742C232.161 71.3143 234.667 72.6173 237.32 73.5429C243.347 75.7655 248.797 76.091 249.466 74.259C250.145 72.399 245.746 69.1441 239.757 66.9215C236.91 65.7956 233.895 65.1513 230.837 65.0151Z" fill="#0F6972"/>
<g opacity="0.22">
<path opacity="0.22" d="M244.026 74.1965C241.794 74.103 239.594 73.6378 237.515 72.82C232.977 71.1459 229.842 68.6905 230.382 67.2396C230.921 65.7887 234.892 65.9747 239.431 67.6488C241.357 68.3142 243.177 69.254 244.835 70.439C246.221 71.49 246.835 72.4666 246.574 73.2293C246.36 73.8617 245.412 74.1965 244.026 74.1965ZM232.958 66.5048C231.702 66.5048 230.837 66.7746 230.633 67.3233C230.158 68.6068 233.367 71.0436 237.636 72.5968C241.905 74.15 245.914 74.457 246.388 73.1363C246.611 72.541 246.007 71.6295 244.733 70.653C243.092 69.4728 241.291 68.5332 239.385 67.8628C237.332 67.0599 235.16 66.6011 232.958 66.5048Z" fill="#0F6972"/>
</g>
<g opacity="0.26">
<path opacity="0.26" d="M244.026 69.9182C242.586 69.0112 241.051 68.2628 239.45 67.686C237.27 66.7998 234.94 66.3389 232.586 66.3281C231.461 66.3839 230.726 66.7002 230.484 67.2582C230.242 67.8162 230.698 68.644 231.609 69.4625C233.384 70.9145 235.407 72.0331 237.581 72.7642C238.947 73.2798 240.357 73.672 241.794 73.9361H241.887C242.119 73.9826 242.343 74.0105 242.566 74.0384H242.659C244.742 74.2895 246.24 74.0384 246.546 73.1641C246.853 72.2899 245.858 71.118 244.026 69.9182ZM242.705 73.9268H242.603L241.887 73.8617H241.803C240.363 73.6082 238.95 73.2221 237.581 72.7084C235.424 71.9369 233.419 70.7943 231.656 69.3322C230.8 68.551 230.382 67.8348 230.577 67.3047C230.772 66.7746 231.507 66.5234 232.549 66.4676C234.901 66.4911 237.229 66.9515 239.413 67.8255C241.017 68.4023 242.552 69.1573 243.989 70.0763C245.747 71.2203 246.779 72.3922 246.463 73.1641C246.146 73.9361 244.677 74.1593 242.705 73.9268Z" fill="#B2B6BF"/>
</g>
<path d="M228.579 21.7805L229.351 22.9708C229.449 23.1689 229.496 23.3883 229.488 23.6091C229.48 23.8299 229.417 24.0452 229.304 24.2356C229.304 24.2356 229.304 24.2821 229.304 24.31C228.697 25.4242 227.879 26.4097 226.895 27.2115C226.895 27.2115 226.895 27.2115 226.849 27.258L226.505 27.5556V27.6021C225.754 28.2295 224.965 28.8103 224.142 29.3411C222.272 30.634 220.163 31.5413 217.939 32.0102H217.864H217.502H217.046H216.776H216.683C216.459 31.9554 216.264 31.8195 216.135 31.6289L215.363 30.4478L215.307 30.3734C214.572 29.2388 216.934 26.3838 220.599 24.0031C224.263 21.6224 227.825 20.6087 228.57 21.7433C228.573 21.7555 228.576 21.7679 228.579 21.7805Z" fill="white"/>
<path d="M217.315 32.1778H217.027C216.925 32.1875 216.822 32.1875 216.72 32.1778H216.636C216.378 32.1106 216.151 31.9562 215.994 31.7407L215.185 30.4945C214.822 29.8901 215.185 28.8857 216.199 27.7046C217.458 26.2672 218.914 25.0149 220.524 23.9847C224.244 21.5482 227.834 20.5624 228.643 21.7435L229.48 23.0269C229.597 23.2376 229.658 23.4743 229.658 23.715C229.658 23.9558 229.597 24.1925 229.48 24.4032V24.4776C228.858 25.6032 228.032 26.603 227.043 27.4256H226.997L226.644 27.7232L226.597 27.7697C225.843 28.4004 225.051 28.9842 224.225 29.5181C222.37 30.8185 220.273 31.7354 218.059 32.215H217.985H217.613H217.417L217.315 32.1778ZM215.455 30.448L216.162 31.5268C216.279 31.6951 216.455 31.8142 216.655 31.8616H216.738C216.834 31.8712 216.931 31.8712 217.027 31.8616H217.473H217.826H217.892C220.082 31.3904 222.158 30.4929 224.002 29.2205C224.817 28.6906 225.599 28.113 226.346 27.4907L226.699 27.1838V27.1373C227.666 26.3406 228.474 25.3689 229.08 24.273V24.1986C229.186 24.0251 229.247 23.8283 229.258 23.6255C229.27 23.4228 229.231 23.2204 229.145 23.0362L228.439 21.9481L228.383 21.8365L228.336 21.7621C227.648 20.7019 224.067 21.7621 220.533 24.0591C218.941 25.0573 217.503 26.2823 216.264 27.6953C215.334 28.8392 214.953 29.7785 215.278 30.2713C215.274 30.2928 215.274 30.315 215.278 30.3364L215.362 30.448H215.455Z" fill="#0F6972"/>
<path d="M215.845 30.0762L217.129 32.0572H217.054L215.78 30.1506L215.845 30.0762Z" fill="#B2B6BF"/>
<path d="M216.357 30.291L217.501 32.0581H217.436L216.311 30.3282L216.357 30.291Z" fill="#B2B6BF"/>
<path d="M216.682 30.0859L217.937 32.0112H217.863L216.626 30.151L216.682 30.0859Z" fill="#B2B6BF"/>
<path d="M224.718 24.8496L226.467 27.5468V27.5933L224.709 24.8868L224.718 24.8496Z" fill="#B2B6BF"/>
<path d="M215.437 29.9932L216.776 32.0114H216.683L215.418 30.0676L215.437 29.9932Z" fill="#B2B6BF"/>
<path d="M225.146 24.5713L226.857 27.2034C226.857 27.2034 226.857 27.2034 226.81 27.2499L225.09 24.5713H225.146Z" fill="#B2B6BF"/>
<path d="M227.499 21.4648L229.303 24.2551C229.303 24.2551 229.303 24.3016 229.303 24.3295L227.443 21.5392L227.499 21.4648Z" fill="#B2B6BF"/>
<path d="M223.234 28.0528C226.896 25.6671 229.266 22.812 228.526 21.6757C227.785 20.5395 224.216 21.5524 220.553 23.9381C216.89 26.3238 214.521 29.1789 215.261 30.3151C216.001 31.4514 219.571 30.4385 223.234 28.0528Z" fill="white"/>
<path d="M216.487 30.9141C216.242 30.9452 215.994 30.9137 215.764 30.8226C215.535 30.7315 215.333 30.5838 215.176 30.3933C214.785 29.7981 215.176 28.7845 216.171 27.5383C217.43 26.1009 218.886 24.8486 220.496 23.8184C224.272 21.3633 227.843 20.3868 228.625 21.5958C229.415 22.7954 227.071 25.6691 223.305 28.1056C221.727 29.1695 220.004 29.9996 218.189 30.57C217.641 30.7649 217.068 30.8807 216.487 30.9141ZM227.332 21.3447C225.844 21.3447 223.23 22.3584 220.626 24.0509C219.034 25.0491 217.596 26.274 216.357 27.6871C215.427 28.831 215.046 29.7702 215.371 30.2631C215.697 30.756 216.692 30.8118 218.161 30.4026C219.955 29.8432 221.657 29.0222 223.212 27.9661C226.755 25.6598 229.164 22.814 228.466 21.7539C228.328 21.5945 228.151 21.4732 227.952 21.4016C227.754 21.33 227.54 21.3104 227.332 21.3447Z" fill="#0F6972"/>
<g opacity="0.22">
<path opacity="0.22" d="M217.984 29.5845C217.803 29.6074 217.618 29.5846 217.448 29.518C217.277 29.4514 217.126 29.3431 217.008 29.2031C216.72 28.7567 217.008 28.0127 217.733 27.0919C219.6 25.0502 221.956 23.517 224.579 22.6368C225.723 22.3113 226.504 22.3857 226.792 22.8229C227.081 23.2693 226.792 24.0134 226.067 24.9248C225.157 25.9619 224.101 26.8611 222.932 27.5941C221.477 28.6633 219.775 29.3479 217.984 29.5845ZM225.825 22.7113C225.424 22.7227 225.027 22.7884 224.644 22.9066C223.35 23.3136 222.122 23.9057 220.998 24.6644C219.851 25.3904 218.812 26.2733 217.91 27.2872C217.231 28.1057 216.98 28.7753 217.203 29.1473C217.64 29.817 219.993 29.3055 222.784 27.4732C223.934 26.7529 224.974 25.8694 225.871 24.8504C226.55 24.0413 226.801 23.3716 226.578 22.9903C226.485 22.8857 226.368 22.8055 226.236 22.7569C226.105 22.7082 225.964 22.6925 225.825 22.7113Z" fill="#0F6972"/>
</g>
<g opacity="0.26">
<path opacity="0.26" d="M226.727 22.8693C226.169 22.0137 223.612 22.7205 220.905 24.4876C220.561 24.7109 220.226 24.9434 219.919 25.1852C217.808 26.757 216.59 28.4125 217.073 29.1566C217.557 29.9007 219.984 29.3519 222.57 27.7429L222.896 27.5383C223.721 27.0088 224.496 26.4049 225.211 25.7339C225.211 25.7339 225.211 25.7339 225.258 25.6874C225.304 25.6409 225.49 25.4642 225.583 25.3619L225.63 25.3154C226.607 24.2923 227.053 23.3716 226.727 22.8693ZM217.129 29.1194C216.683 28.4404 217.948 26.7756 219.984 25.2503C220.291 25.0178 220.617 24.7853 220.961 24.5621C223.547 22.8786 226.16 22.116 226.672 22.9065C226.969 23.353 226.514 24.2365 225.574 25.2224L225.528 25.2782L225.202 25.5944C225.187 25.5977 225.171 25.5977 225.156 25.5944C224.441 26.283 223.666 26.9055 222.84 27.4546L222.505 27.6685C220.031 29.2217 217.622 29.8635 217.129 29.1194Z" fill="#B2B6BF"/>
</g>
<path d="M203.288 78.0447C203.802 78.0447 204.219 77.6283 204.219 77.1146C204.219 76.601 203.802 76.1846 203.288 76.1846C202.775 76.1846 202.358 76.601 202.358 77.1146C202.358 77.6283 202.775 78.0447 203.288 78.0447Z" fill="#EE6C4D"/>
<path d="M44.2467 124.636C42.9587 124.637 41.6962 124.276 40.6039 123.594C39.5116 122.911 38.6338 121.935 38.071 120.776L26.408 96.7085C25.6165 95.0742 25.5059 93.1927 26.1005 91.477C26.6952 89.7613 27.9464 88.3516 29.5795 87.5575L70.6421 67.6561C72.2777 66.8654 74.1603 66.7562 75.8763 67.3525C77.5924 67.9489 79.0015 69.202 79.794 70.8366L91.4571 94.895C92.2489 96.5306 92.3597 98.4135 91.7652 100.131C91.1707 101.848 89.9193 103.259 88.2855 104.055L47.2229 123.947C46.2959 124.399 45.2781 124.635 44.2467 124.636ZM73.6183 67.4329C72.6513 67.4298 71.6966 67.6493 70.8281 68.0746L29.8306 87.976C29.0762 88.3415 28.4011 88.8521 27.8441 89.4785C27.2871 90.105 26.859 90.8351 26.5844 91.6271C26.3097 92.4191 26.1938 93.2574 26.2433 94.0942C26.2929 94.931 26.5068 95.7498 26.873 96.5039L38.5361 120.572C39.2762 122.093 40.5898 123.259 42.1888 123.814C43.7877 124.368 45.5414 124.266 47.0648 123.529L88.0809 103.618C89.6034 102.876 90.7702 101.561 91.3261 99.9617C91.8821 98.362 91.782 96.6072 91.0478 95.081L79.3754 71.0691C78.8563 69.9819 78.0403 69.0637 77.0217 68.4203C76.003 67.7769 74.8232 67.4346 73.6183 67.4329Z" fill="#293241"/>
<g opacity="0.2">
<path opacity="0.2" d="M40.9175 123.408C39.651 123.409 38.4095 123.054 37.3354 122.383C36.2613 121.712 35.3979 120.752 34.8441 119.613L23.1811 95.5549C22.4028 93.9466 22.2947 92.0952 22.8807 90.4073C23.4666 88.7194 24.6986 87.3331 26.3061 86.5528L67.3594 66.6514C68.9653 65.8845 70.8091 65.7825 72.4898 66.3676C74.1706 66.9528 75.5523 68.1777 76.3346 69.7761L88.0255 93.8345C88.8039 95.4428 88.9119 97.2942 88.326 98.9821C87.74 100.67 86.508 102.056 84.9005 102.837L43.8472 122.738C42.9336 123.179 41.9321 123.408 40.9175 123.408ZM70.2891 66.2143C69.3218 66.218 68.3679 66.4405 67.4989 66.8653L26.4084 86.7574C24.8561 87.5114 23.6668 88.8509 23.1017 90.4814C22.5366 92.1118 22.6421 93.8999 23.395 95.4526L35.0488 119.511C35.4221 120.284 35.9447 120.976 36.5865 121.546C37.2282 122.117 37.9766 122.555 38.7883 122.835C39.6001 123.115 40.4592 123.232 41.3163 123.178C42.1733 123.125 43.0114 122.903 43.7821 122.524L84.7982 102.632C86.3505 101.878 87.5399 100.539 88.1049 98.9081C88.67 97.2776 88.5645 95.4895 87.8116 93.9368L76.1578 69.8784C75.6229 68.7779 74.7886 67.8504 73.7506 67.2023C72.7125 66.5543 71.5129 66.2118 70.2891 66.2143Z" fill="#0F6972"/>
</g>
<path d="M59.1283 107.915C56.7149 107.915 54.3556 107.2 52.349 105.859C50.3423 104.518 48.7782 102.613 47.8546 100.383C46.9311 98.1537 46.6894 95.7004 47.1603 93.3336C47.6311 90.9668 48.7933 88.7927 50.4998 87.0864C52.2064 85.38 54.3807 84.2179 56.7477 83.7471C59.1148 83.2764 61.5683 83.518 63.798 84.4415C66.0277 85.3649 67.9335 86.9288 69.2743 88.9353C70.6152 90.9418 71.3308 93.3008 71.3308 95.7139C71.3284 98.9491 70.042 102.051 67.7541 104.339C65.4662 106.626 62.3639 107.913 59.1283 107.915ZM59.1283 83.7359C56.759 83.7359 54.4429 84.4384 52.473 85.7546C50.503 87.0707 48.9676 88.9414 48.0609 91.1301C47.1542 93.3188 46.917 95.7272 47.3792 98.0507C47.8414 100.374 48.9823 102.509 50.6577 104.184C52.333 105.859 54.4675 107 56.7913 107.462C59.115 107.924 61.5237 107.687 63.7126 106.78C65.9015 105.874 67.7724 104.338 69.0887 102.369C70.405 100.399 71.1076 98.083 71.1076 95.7139C71.1027 92.5387 69.839 89.4949 67.5935 87.2496C65.348 85.0044 62.3039 83.7408 59.1283 83.7359Z" fill="#0F6972"/>
<g opacity="0.2">
<path opacity="0.2" d="M59.1281 105.125C57.2666 105.125 55.4468 104.573 53.8989 103.539C52.3511 102.505 51.1447 101.035 50.4323 99.3156C49.7199 97.5959 49.5335 95.7036 49.8967 93.878C50.2599 92.0524 51.1563 90.3754 52.4726 89.0592C53.789 87.7431 55.4661 86.8467 57.2919 86.4836C59.1177 86.1204 61.0102 86.3068 62.7301 87.0191C64.4499 87.7315 65.9199 88.9377 66.9542 90.4854C67.9884 92.0331 68.5404 93.8527 68.5404 95.7141C68.538 98.2093 67.5455 100.602 65.7809 102.366C64.0163 104.131 61.6237 105.123 59.1281 105.125ZM59.1281 86.5259C57.3107 86.5259 55.5341 87.0648 54.0229 88.0744C52.5118 89.084 51.334 90.519 50.6385 92.1979C49.943 93.8768 49.761 95.7242 50.1156 97.5066C50.4702 99.2889 51.3453 100.926 52.6305 102.211C53.9156 103.496 55.5529 104.371 57.3354 104.726C59.1179 105.08 60.9656 104.898 62.6446 104.203C64.3237 103.507 65.7589 102.33 66.7686 100.819C67.7783 99.3077 68.3172 97.5313 68.3172 95.7141C68.3148 93.278 67.3458 90.9424 65.6231 89.2198C63.9003 87.4972 61.5645 86.5284 59.1281 86.5259Z" fill="#0F6972"/>
</g>
<path d="M72.1485 76.297C71.7585 76.297 71.3773 76.1814 71.0531 75.9647C70.7288 75.7481 70.4761 75.4401 70.3268 75.0798C70.1776 74.7195 70.1386 74.3231 70.2146 73.9406C70.2907 73.5581 70.4785 73.2068 70.7543 72.931C71.03 72.6553 71.3814 72.4675 71.7638 72.3914C72.1463 72.3153 72.5428 72.3544 72.9031 72.5036C73.2633 72.6528 73.5713 72.9056 73.788 73.2298C74.0046 73.5541 74.1203 73.9353 74.1203 74.3253C74.1203 74.5842 74.0693 74.8406 73.9702 75.0798C73.8711 75.319 73.7258 75.5364 73.5427 75.7195C73.3597 75.9026 73.1423 76.0478 72.9031 76.1469C72.6638 76.246 72.4074 76.297 72.1485 76.297ZM72.1485 72.5767C71.8027 72.5767 71.4646 72.6793 71.1771 72.8714C70.8895 73.0635 70.6654 73.3366 70.5331 73.6561C70.4007 73.9756 70.3661 74.3272 70.4336 74.6664C70.501 75.0056 70.6676 75.3171 70.9121 75.5617C71.1566 75.8062 71.4682 75.9727 71.8074 76.0402C72.1466 76.1077 72.4981 76.073 72.8176 75.9407C73.1371 75.8084 73.4102 75.5842 73.6024 75.2967C73.7945 75.0092 73.897 74.6711 73.897 74.3253C73.8946 73.8623 73.7096 73.4189 73.3822 73.0916C73.0548 72.7642 72.6115 72.5792 72.1485 72.5767Z" fill="#0F6972"/>
<path d="M74.9385 81.8761C74.5486 81.8761 74.1674 81.7605 73.8431 81.5438C73.5188 81.3272 73.2661 81.0192 73.1169 80.6589C72.9676 80.2986 72.9286 79.9022 73.0047 79.5197C73.0808 79.1372 73.2686 78.7859 73.5443 78.5101C73.8201 78.2344 74.1714 78.0466 74.5539 77.9705C74.9364 77.8944 75.3328 77.9335 75.6931 78.0827C76.0534 78.2319 76.3613 78.4847 76.578 78.8089C76.7947 79.1332 76.9103 79.5144 76.9103 79.9044C76.9103 80.1633 76.8593 80.4197 76.7602 80.6589C76.6611 80.8981 76.5159 81.1155 76.3328 81.2986C76.1497 81.4817 75.9323 81.6269 75.6931 81.726C75.4539 81.8251 75.1975 81.8761 74.9385 81.8761ZM74.9385 78.1558C74.5927 78.1558 74.2547 78.2584 73.9671 78.4505C73.6796 78.6426 73.4555 78.9157 73.3231 79.2352C73.1908 79.5547 73.1561 79.9063 73.2236 80.2455C73.2911 80.5847 73.4576 80.8962 73.7021 81.1408C73.9467 81.3853 74.2582 81.5518 74.5974 81.6193C74.9366 81.6868 75.2882 81.6521 75.6077 81.5198C75.9272 81.3875 76.2003 81.1633 76.3924 80.8758C76.5845 80.5883 76.6871 80.2502 76.6871 79.9044C76.6846 79.4414 76.4996 78.998 76.1722 78.6707C75.8449 78.3433 75.4015 78.1583 74.9385 78.1558Z" fill="#0F6972"/>
<path d="M34.8359 96.1797C34.478 96.185 34.1262 96.0869 33.8226 95.8972C33.519 95.7075 33.2767 95.4342 33.1246 95.1102L32.4735 93.7709C32.3592 93.5472 32.2913 93.3026 32.2739 93.052C32.2566 92.8014 32.2903 92.5498 32.3729 92.3125C32.4554 92.0753 32.5852 91.8572 32.7544 91.6714C32.9235 91.4857 33.1286 91.3361 33.3571 91.2318L37.9517 88.9996C38.1793 88.8932 38.4258 88.8329 38.6768 88.8221C38.9279 88.8113 39.1786 88.8502 39.4146 88.9366C39.6506 89.0231 39.8671 89.1553 40.0518 89.3257C40.2365 89.4961 40.3857 89.7014 40.4907 89.9297L41.1418 91.269C41.2562 91.4926 41.3241 91.7372 41.3414 91.9878C41.3587 92.2385 41.325 92.49 41.2425 92.7273C41.1599 92.9646 41.0301 93.1826 40.861 93.3684C40.6918 93.5542 40.4868 93.7037 40.2582 93.8081L35.6637 96.0402C35.4008 96.145 35.1186 96.1926 34.8359 96.1797ZM38.7794 89.0461C38.528 89.0461 38.2799 89.1034 38.054 89.2135L33.4594 91.3992C33.0618 91.5936 32.7574 91.9376 32.6127 92.3559C32.468 92.7742 32.4949 93.2328 32.6875 93.6313L33.3385 94.9706C33.4329 95.168 33.5655 95.3448 33.7287 95.4906C33.8918 95.6365 34.0822 95.7485 34.2889 95.8203C34.4956 95.8921 34.7145 95.9222 34.9329 95.9088C35.1513 95.8955 35.3649 95.839 35.5614 95.7426L40.1559 93.5197C40.5535 93.3253 40.858 92.9813 41.0026 92.563C41.1473 92.1447 41.1204 91.6861 40.9279 91.2876L40.2768 89.9483C40.1406 89.6669 39.9279 89.4296 39.6631 89.2634C39.3983 89.0973 39.092 89.0091 38.7794 89.0089V89.0461Z" fill="#0F6972"/>
<path d="M41.0936 84.8427C40.639 84.8424 40.1937 84.714 39.8088 84.4722C39.4238 84.2304 39.1148 83.885 38.9172 83.4756L37.5035 80.5648C37.2277 79.9872 37.1912 79.3241 37.402 78.7197C37.6127 78.1153 38.0537 77.6187 38.6289 77.3378L55.0726 69.3679C55.6498 69.0896 56.314 69.0518 56.9191 69.2628C57.5243 69.4737 58.0209 69.9163 58.2999 70.4932L59.7136 73.404C59.8531 73.691 59.9346 74.0026 59.9535 74.3211C59.9725 74.6396 59.9284 74.9587 59.8239 75.2601C59.7194 75.5616 59.5564 75.8394 59.3444 76.0779C59.1324 76.3163 58.8754 76.5106 58.5882 76.6496L42.1446 84.6009C41.8162 84.7575 41.4574 84.84 41.0936 84.8427ZM56.1235 69.3586C55.8008 69.3632 55.4831 69.4394 55.1935 69.5818L38.7312 77.5796C38.4724 77.7029 38.2405 77.8763 38.0492 78.0897C37.8578 78.3032 37.7107 78.5526 37.6164 78.8233C37.5221 79.0941 37.4825 79.3808 37.4999 79.667C37.5172 79.9531 37.5912 80.233 37.7175 80.4904L39.1312 83.3733C39.2544 83.6322 39.4279 83.864 39.6414 84.0553C39.8549 84.2466 40.1042 84.3937 40.375 84.488C40.6458 84.5823 40.9326 84.6219 41.2188 84.6046C41.505 84.5872 41.7849 84.5133 42.0423 84.387L58.4859 76.4171C58.7448 76.2939 58.9766 76.1205 59.168 75.907C59.3593 75.6935 59.5064 75.4441 59.6007 75.1734C59.695 74.9027 59.7346 74.6159 59.7173 74.3297C59.7 74.0436 59.626 73.7637 59.4997 73.5063L58.086 70.5955C57.9088 70.2253 57.6306 69.9127 57.2833 69.6938C56.9361 69.475 56.534 69.3588 56.1235 69.3586Z" fill="#0F6972"/>
<path d="M169.881 40.029C169.702 40.0321 169.524 39.9972 169.36 39.9267C169.017 39.7893 168.743 39.5218 168.597 39.1826C168.526 39.0133 168.489 38.8315 168.489 38.6478C168.489 38.4641 168.526 38.2823 168.597 38.113L171.146 31.863C171.289 31.5213 171.562 31.2505 171.905 31.1101C172.247 30.9697 172.632 30.9712 172.973 31.1142C173.315 31.2573 173.586 31.5302 173.726 31.873C173.867 32.2157 173.865 32.6002 173.722 32.9418L171.202 39.164C171.135 39.3333 171.034 39.4873 170.907 39.6168C170.779 39.7462 170.626 39.8485 170.458 39.9174C170.275 39.9945 170.079 40.0325 169.881 40.029ZM172.429 31.2305C172.197 31.2289 171.97 31.2973 171.778 31.4267C171.585 31.5561 171.436 31.7406 171.35 31.956L168.811 38.1967C168.746 38.3431 168.713 38.5015 168.713 38.6618C168.713 38.822 168.746 38.9804 168.811 39.1268C168.869 39.2681 168.955 39.3963 169.063 39.5034C169.172 39.6105 169.302 39.6944 169.444 39.7499C169.585 39.8076 169.737 39.8366 169.89 39.8356C170.043 39.8345 170.194 39.8032 170.335 39.7436C170.476 39.684 170.603 39.5972 170.711 39.4882C170.818 39.3791 170.903 39.25 170.96 39.1082L173.499 32.8674C173.564 32.721 173.598 32.5626 173.598 32.4024C173.598 32.2422 173.564 32.0837 173.499 31.9374C173.377 31.6553 173.15 31.4318 172.866 31.3142C172.727 31.2605 172.579 31.2322 172.429 31.2305Z" fill="#0F6972"/>
<path d="M190.732 66.2538C190.534 66.2568 190.337 66.2155 190.156 66.1329C189.987 66.0576 189.835 65.9494 189.708 65.8148C189.581 65.6802 189.483 65.5218 189.418 65.3487C189.353 65.1756 189.323 64.9914 189.33 64.8067C189.337 64.622 189.381 64.4405 189.458 64.2727C189.534 64.1062 189.642 63.9564 189.776 63.8319C189.91 63.7074 190.068 63.6106 190.239 63.5473L196.555 61.1849C196.901 61.0554 197.285 61.0689 197.622 61.2224C197.958 61.3759 198.22 61.6568 198.35 62.0034C198.479 62.3499 198.466 62.7337 198.312 63.0704C198.159 63.407 197.878 63.6689 197.531 63.7984L191.216 66.1608C191.061 66.2188 190.898 66.2502 190.732 66.2538ZM197.048 61.3337C196.908 61.3351 196.77 61.3602 196.638 61.4081L190.323 63.7705C190.036 63.8796 189.802 64.0965 189.672 64.375C189.607 64.5214 189.573 64.6799 189.573 64.8401C189.573 65.0003 189.607 65.1587 189.672 65.3051C189.725 65.4477 189.805 65.5784 189.909 65.6898C190.012 65.8011 190.137 65.8909 190.275 65.954C190.413 66.0171 190.563 66.0523 190.715 66.0574C190.867 66.0626 191.018 66.0376 191.16 65.9841L197.485 63.6217C197.74 63.5258 197.953 63.3436 198.087 63.1067C198.221 62.8699 198.268 62.5934 198.219 62.3255C198.171 62.0577 198.029 61.8154 197.82 61.6409C197.611 61.4665 197.348 61.3709 197.075 61.3709L197.048 61.3337Z" fill="#0F6972"/>
<path d="M131.712 40.8283H131.489C131.304 40.8031 131.127 40.7407 130.967 40.6448C130.807 40.5488 130.668 40.4214 130.559 40.2703L126.56 34.8015C126.356 34.5024 126.277 34.136 126.339 33.7796C126.4 33.4232 126.598 33.1046 126.89 32.8911C127.182 32.6776 127.545 32.5858 127.904 32.6351C128.262 32.6844 128.587 32.8709 128.81 33.1552L132.791 38.5962C132.902 38.7437 132.982 38.9119 133.026 39.0907C133.071 39.2696 133.08 39.4556 133.052 39.6378C132.993 40.0083 132.793 40.3417 132.494 40.5679C132.265 40.7313 131.993 40.8221 131.712 40.8283ZM127.722 32.8297C127.475 32.8263 127.233 32.9048 127.034 33.0529C126.911 33.1406 126.806 33.2528 126.728 33.3823C126.65 33.5119 126.599 33.6562 126.578 33.8063C126.532 34.1102 126.606 34.4202 126.783 34.6713L130.764 40.1122C130.854 40.2361 130.968 40.341 131.098 40.4209C131.229 40.5007 131.375 40.5538 131.526 40.5772C131.83 40.6242 132.141 40.5508 132.391 40.3726C132.515 40.2824 132.62 40.1686 132.7 40.0377C132.78 39.9068 132.833 39.7614 132.856 39.6099C132.88 39.4588 132.873 39.3045 132.836 39.156C132.799 39.0075 132.734 38.8677 132.642 38.745L128.662 33.3041C128.555 33.155 128.414 33.034 128.25 32.9514C128.087 32.8688 127.906 32.827 127.722 32.8297Z" fill="#0F6972"/>
<path d="M150.294 36.7178C149.924 36.7178 149.569 36.5708 149.307 36.3092C149.045 36.0476 148.898 35.6928 148.898 35.3228V28.5805C148.898 28.2105 149.045 27.8557 149.307 27.5941C149.569 27.3325 149.924 27.1855 150.294 27.1855C150.664 27.1855 151.018 27.3325 151.28 27.5941C151.542 27.8557 151.689 28.2105 151.689 28.5805V35.3228C151.689 35.6928 151.542 36.0476 151.28 36.3092C151.018 36.5708 150.664 36.7178 150.294 36.7178ZM150.294 27.418C149.985 27.418 149.689 27.5405 149.471 27.7585C149.253 27.9765 149.131 28.2722 149.131 28.5805V35.3228C149.131 35.6311 149.253 35.9268 149.471 36.1448C149.689 36.3628 149.985 36.4853 150.294 36.4853C150.602 36.4853 150.898 36.3628 151.116 36.1448C151.334 35.9268 151.456 35.6311 151.456 35.3228V28.5805C151.456 28.2722 151.334 27.9765 151.116 27.7585C150.898 27.5405 150.602 27.418 150.294 27.418Z" fill="#0F6972"/>
<path d="M181.991 50.2201C181.772 50.2212 181.556 50.1704 181.36 50.0718C181.164 49.9732 180.995 49.8296 180.865 49.6528C180.648 49.3536 180.557 48.9807 180.613 48.615C180.668 48.2493 180.866 47.9204 181.163 47.6996L186.604 43.7189C186.903 43.5013 187.276 43.4105 187.642 43.4662C188.007 43.522 188.336 43.7197 188.557 44.0166C188.775 44.3157 188.866 44.6886 188.81 45.0543C188.754 45.42 188.556 45.749 188.259 45.9697L182.819 49.9504C182.579 50.1275 182.289 50.2221 181.991 50.2201ZM186.743 43.9049L181.303 47.8856C181.179 47.9759 181.074 48.0896 180.995 48.2203C180.915 48.351 180.862 48.4961 180.839 48.6473C180.816 48.7985 180.823 48.9529 180.859 49.1015C180.895 49.2501 180.961 49.39 181.051 49.5133C181.237 49.7588 181.51 49.9224 181.814 49.9693C182.118 50.0162 182.428 49.9427 182.679 49.7644L188.12 45.7837C188.259 45.7004 188.379 45.5888 188.473 45.4563C188.566 45.3237 188.631 45.173 188.663 45.0139C188.695 44.8548 188.693 44.6908 188.658 44.5325C188.622 44.3741 188.554 44.2249 188.457 44.0945C188.361 43.9641 188.238 43.8553 188.097 43.7752C187.956 43.6951 187.8 43.6453 187.638 43.6292C187.477 43.6131 187.314 43.631 187.16 43.6817C187.006 43.7324 186.864 43.8148 186.743 43.9235V43.9049Z" fill="#0F6972"/>
<path d="M93.5404 76.1844C94.0541 76.1844 94.4705 75.768 94.4705 75.2543C94.4705 74.7406 94.0541 74.3242 93.5404 74.3242C93.0268 74.3242 92.6104 74.7406 92.6104 75.2543C92.6104 75.768 93.0268 76.1844 93.5404 76.1844Z" fill="#EE6C4D"/>
<g opacity="0.28">
<path opacity="0.28" d="M228.764 36.3924C228.038 35.0294 227.234 33.7096 226.355 32.4396C229.248 30.5795 231.992 29.7796 232.68 30.7469C233.368 31.7142 231.657 34.2254 228.764 36.3924Z" fill="#16A3B9"/>
</g>
<g opacity="0.28">
<path opacity="0.28" d="M239.097 81.6533C237.93 83.7173 236.615 85.694 235.163 87.568C230.78 87.2038 226.572 85.6826 222.97 83.1599C223.658 82.4717 224.309 81.7649 224.932 81.021C226.165 79.5563 227.287 78.002 228.29 76.3711C229.508 76.6278 230.705 76.976 231.87 77.4127C234.545 78.3156 237.005 79.759 239.097 81.6533Z" fill="#16A3B9"/>
</g>
</g>
<defs>
<linearGradient id="paint0_linear_1672_12532" x1="176.01" y1="77.0003" x2="171.732" y2="77.1714" gradientUnits="userSpaceOnUse">
<stop stop-color="#EE6C4D" stop-opacity="0.5"/>
<stop offset="0.13" stop-color="#E36F53" stop-opacity="0.53"/>
<stop offset="0.32" stop-color="#C47762" stop-opacity="0.6"/>
<stop offset="0.55" stop-color="#92837B" stop-opacity="0.71"/>
<stop offset="0.82" stop-color="#4D959E" stop-opacity="0.87"/>
<stop offset="1" stop-color="#16A3B9"/>
</linearGradient>
<linearGradient id="paint1_linear_1672_12532" x1="541.863" y1="278.257" x2="546.396" y2="281.383" gradientUnits="userSpaceOnUse">
<stop stop-color="#EE6C4D" stop-opacity="0.5"/>
<stop offset="0.13" stop-color="#E36F53" stop-opacity="0.53"/>
<stop offset="0.32" stop-color="#C47762" stop-opacity="0.6"/>
<stop offset="0.55" stop-color="#92837B" stop-opacity="0.71"/>
<stop offset="0.82" stop-color="#4D959E" stop-opacity="0.87"/>
<stop offset="1" stop-color="#16A3B9"/>
</linearGradient>
<linearGradient id="paint2_linear_1672_12532" x1="17869.7" y1="1982.16" x2="25612.9" y2="8985.2" gradientUnits="userSpaceOnUse">
<stop stop-color="#EE6C4D" stop-opacity="0.5"/>
<stop offset="0.13" stop-color="#E36F53" stop-opacity="0.53"/>
<stop offset="0.32" stop-color="#C47762" stop-opacity="0.6"/>
<stop offset="0.55" stop-color="#92837B" stop-opacity="0.71"/>
<stop offset="0.82" stop-color="#4D959E" stop-opacity="0.87"/>
<stop offset="1" stop-color="#16A3B9"/>
</linearGradient>
<linearGradient id="paint3_linear_1672_12532" x1="153.596" y1="84.267" x2="68.5612" y2="194.766" gradientUnits="userSpaceOnUse">
<stop offset="0.35" stop-color="#1478C3"/>
<stop offset="0.74" stop-color="#1263C7"/>
<stop offset="1" stop-color="#125BC9"/>
</linearGradient>
<linearGradient id="paint4_linear_1672_12532" x1="95.4846" y1="45.9551" x2="99.5808" y2="44.7526" gradientUnits="userSpaceOnUse">
<stop stop-color="#EE6C4D" stop-opacity="0.1"/>
<stop offset="0.11" stop-color="#E56E52" stop-opacity="0.14"/>
<stop offset="0.28" stop-color="#CB755E" stop-opacity="0.24"/>
<stop offset="0.48" stop-color="#A27F73" stop-opacity="0.42"/>
<stop offset="0.72" stop-color="#688E90" stop-opacity="0.66"/>
<stop offset="0.97" stop-color="#1FA1B4" stop-opacity="0.96"/>
<stop offset="1" stop-color="#16A3B9"/>
</linearGradient>
<linearGradient id="paint5_linear_1672_12532" x1="340.941" y1="148.001" x2="345.016" y2="152.393" gradientUnits="userSpaceOnUse">
<stop stop-color="#EE6C4D" stop-opacity="0.1"/>
<stop offset="0.11" stop-color="#E56E52" stop-opacity="0.14"/>
<stop offset="0.28" stop-color="#CB755E" stop-opacity="0.24"/>
<stop offset="0.48" stop-color="#A27F73" stop-opacity="0.42"/>
<stop offset="0.72" stop-color="#688E90" stop-opacity="0.66"/>
<stop offset="0.97" stop-color="#1FA1B4" stop-opacity="0.96"/>
<stop offset="1" stop-color="#16A3B9"/>
</linearGradient>
<linearGradient id="paint6_linear_1672_12532" x1="16880.2" y1="10177.2" x2="35737.6" y2="33633.6" gradientUnits="userSpaceOnUse">
<stop stop-color="#EE6C4D" stop-opacity="0.1"/>
<stop offset="0.11" stop-color="#E56E52" stop-opacity="0.14"/>
<stop offset="0.28" stop-color="#CB755E" stop-opacity="0.24"/>
<stop offset="0.48" stop-color="#A27F73" stop-opacity="0.42"/>
<stop offset="0.72" stop-color="#688E90" stop-opacity="0.66"/>
<stop offset="0.97" stop-color="#1FA1B4" stop-opacity="0.96"/>
<stop offset="1" stop-color="#16A3B9"/>
</linearGradient>
<linearGradient id="paint7_linear_1672_12532" x1="95.4846" y1="45.9551" x2="99.5808" y2="44.7526" gradientUnits="userSpaceOnUse">
<stop stop-color="#EE6C4D" stop-opacity="0.2"/>
<stop offset="0.11" stop-color="#E46E52" stop-opacity="0.24"/>
<stop offset="0.29" stop-color="#CA755F" stop-opacity="0.33"/>
<stop offset="0.5" stop-color="#9E8075" stop-opacity="0.49"/>
<stop offset="0.74" stop-color="#629093" stop-opacity="0.72"/>
<stop offset="1" stop-color="#16A3B9"/>
</linearGradient>
<linearGradient id="paint8_linear_1672_12532" x1="340.941" y1="148.001" x2="345.016" y2="152.393" gradientUnits="userSpaceOnUse">
<stop stop-color="#EE6C4D" stop-opacity="0.2"/>
<stop offset="0.11" stop-color="#E46E52" stop-opacity="0.24"/>
<stop offset="0.29" stop-color="#CA755F" stop-opacity="0.33"/>
<stop offset="0.5" stop-color="#9E8075" stop-opacity="0.49"/>
<stop offset="0.74" stop-color="#629093" stop-opacity="0.72"/>
<stop offset="1" stop-color="#16A3B9"/>
</linearGradient>
<linearGradient id="paint9_linear_1672_12532" x1="16880.2" y1="10177.2" x2="35737.6" y2="33633.6" gradientUnits="userSpaceOnUse">
<stop stop-color="#EE6C4D" stop-opacity="0.2"/>
<stop offset="0.11" stop-color="#E46E52" stop-opacity="0.24"/>
<stop offset="0.29" stop-color="#CA755F" stop-opacity="0.33"/>
<stop offset="0.5" stop-color="#9E8075" stop-opacity="0.49"/>
<stop offset="0.74" stop-color="#629093" stop-opacity="0.72"/>
<stop offset="1" stop-color="#16A3B9"/>
</linearGradient>
<clipPath id="clip0_1672_12532">
<rect width="266.93" height="169.255" fill="white" transform="translate(0.0703125 0.392578)"/>
</clipPath>
</defs>
</svg>
