<svg width="274" height="180" viewBox="0 0 274 180" fill="none" xmlns="http://www.w3.org/2000/svg">
<g clip-path="url(#clip0_1143_9052)">
<path d="M286 0H0V180H286V0Z" fill="#E6F1FF"/>
<path d="M252.25 83.25C252.255 83.2034 252.255 83.1566 252.25 83.11C252.25 83.11 252.25 83.03 252.25 82.99C252.25 82.44 252.14 81.9 252.07 81.35C252.075 81.3068 252.075 81.2632 252.07 81.22C252.075 81.1768 252.075 81.1332 252.07 81.09C252.07 80.89 252.07 80.69 252 80.49C252 80.49 252 80.49 252 80.42C252.004 80.3834 252.004 80.3466 252 80.31C252.004 80.2835 252.004 80.2565 252 80.23C251.83 78.84 251.63 77.45 251.39 76.07C251.395 76.0503 251.395 76.0297 251.39 76.01C251.399 75.9739 251.399 75.9361 251.39 75.9C251.395 75.8769 251.395 75.8531 251.39 75.83C251.39 75.64 251.33 75.44 251.29 75.25C251.295 75.2068 251.295 75.1632 251.29 75.12C251.295 75.0735 251.295 75.0265 251.29 74.98C248.435 59.2436 242.041 44.3618 232.591 31.4591C223.141 18.5563 210.882 7.97002 196.74 0.5H195.66C209.935 7.90623 222.319 18.4926 231.855 31.4425C241.391 44.3924 247.824 59.3598 250.66 75.19C250.665 75.2332 250.665 75.2768 250.66 75.32C250.66 75.32 250.66 75.4 250.66 75.44C250.66 75.64 250.73 75.83 250.75 76.03C250.755 76.0409 250.758 76.0529 250.758 76.065C250.758 76.0771 250.755 76.0891 250.75 76.1C250.76 76.1359 250.76 76.174 250.75 76.21C250.755 76.2209 250.758 76.2329 250.758 76.245C250.758 76.2571 250.755 76.2691 250.75 76.28C250.98 77.65 251.18 79.03 251.36 80.43C251.356 80.4532 251.356 80.4768 251.36 80.5C251.36 80.5 251.36 80.58 251.36 80.62C251.36 80.66 251.36 80.62 251.36 80.68C251.36 80.88 251.41 81.08 251.43 81.28C251.435 81.3232 251.435 81.3668 251.43 81.41C251.435 81.4532 251.435 81.4968 251.43 81.54C251.49 82.08 251.55 82.63 251.6 83.17C251.605 83.2132 251.605 83.2568 251.6 83.3C251.61 83.3428 251.61 83.3872 251.6 83.43C251.93 86.75 252.09 90.1 252.09 93.5C252.09 94.84 252.09 96.17 252.01 97.5C252.015 97.5833 252.015 97.6667 252.01 97.75C251.49 111.004 248.435 124.036 243.01 136.14C242.87 136.48 242.72 136.81 242.56 137.14C241.063 140.393 239.394 143.564 237.56 146.64C236.67 148.17 235.73 149.64 234.76 151.13C227.073 162.748 217.167 172.732 205.61 180.51H206.49C217.942 172.699 227.75 162.717 235.36 151.13C236.333 149.663 237.263 148.167 238.15 146.64C239.964 143.561 241.616 140.39 243.1 137.14C243.25 136.81 243.4 136.47 243.54 136.14C248.931 124.027 251.965 110.998 252.48 97.75C252.485 97.6667 252.485 97.5833 252.48 97.5C252.53 96.18 252.56 94.85 252.56 93.5C252.687 90.04 252.583 86.6233 252.25 83.25ZM99.34 0.5H98.26C75.1616 12.7205 57.4376 33.0997 48.539 57.6699C39.6403 82.2401 40.2039 109.243 50.12 133.42C50.128 133.463 50.145 133.504 50.17 133.54C50.1644 133.576 50.1644 133.614 50.17 133.65C50.25 133.84 50.32 134.03 50.41 134.22C50.4057 134.24 50.4057 134.26 50.41 134.28L50.46 134.4C50.95 135.56 51.46 136.72 52.01 137.86C52.0046 137.876 52.0046 137.894 52.01 137.91C52.0045 137.946 52.0045 137.984 52.01 138.02V138.08C52.09 138.27 52.18 138.46 52.27 138.64L52.33 138.75C52.3425 138.788 52.3593 138.825 52.38 138.86C52.61 139.34 52.84 139.86 53.08 140.29L53.14 140.41C53.152 140.45 53.1725 140.488 53.2 140.52C61.3128 156.622 73.4052 170.384 88.33 180.5H89.21C74.1773 170.389 62 156.58 53.85 140.4C53.8291 140.362 53.8123 140.322 53.8 140.28C53.7725 140.248 53.752 140.21 53.74 140.17C53.5 139.7 53.26 139.22 53.04 138.75C53.016 138.712 52.9959 138.672 52.98 138.63V138.52C52.89 138.34 52.8 138.15 52.72 137.97C52.7155 137.961 52.7132 137.95 52.7132 137.94C52.7132 137.93 52.7155 137.919 52.72 137.91C52.7085 137.874 52.7085 137.836 52.72 137.8C52.7156 137.792 52.7133 137.784 52.7133 137.775C52.7133 137.766 52.7156 137.758 52.72 137.75C52.16 136.58 51.63 135.39 51.13 134.2C51.1257 134.18 51.1257 134.16 51.13 134.14L51.08 134.03C51.0757 134.01 51.0757 133.99 51.08 133.97C50.99 133.78 50.92 133.6 50.85 133.41C50.8407 133.374 50.8407 133.336 50.85 133.3C50.8413 133.26 50.8413 133.22 50.85 133.18C40.9058 109.003 40.3675 81.9811 49.3409 57.4278C58.3143 32.8744 76.15 12.5671 99.34 0.5Z" fill="#293241"/>
<g opacity="0.2">
<path opacity="0.2" d="M78.55 45.88C78.4742 45.88 78.4005 45.8555 78.34 45.81C78.2996 45.7821 78.2652 45.7463 78.2387 45.7049C78.2123 45.6635 78.1943 45.6173 78.186 45.5689C78.1776 45.5205 78.1789 45.4709 78.1899 45.423C78.2009 45.3751 78.2213 45.3299 78.25 45.29C87.61 31.8484 100.682 21.4238 115.87 15.29C115.959 15.2668 116.054 15.277 116.137 15.3187C116.219 15.3605 116.284 15.4308 116.318 15.5167C116.353 15.6026 116.354 15.698 116.323 15.7851C116.292 15.8723 116.231 15.9451 116.15 15.99C101.097 22.0687 88.1393 32.3992 78.86 45.72C78.8248 45.7695 78.7784 45.8099 78.7244 45.8377C78.6705 45.8655 78.6107 45.88 78.55 45.88Z" fill="#125BC9"/>
</g>
<g opacity="0.2">
<path opacity="0.2" d="M216.93 83.62C216.936 83.5267 216.936 83.4332 216.93 83.34C216.67 81.5066 216.337 79.6966 215.93 77.91C215.93 77.7 215.84 77.49 215.78 77.28C213.15 66.1028 207.786 55.7533 200.17 47.16C199.55 46.45 198.91 45.75 198.26 45.07C197.89 44.68 197.51 44.29 197.13 43.91C194.58 41.3738 191.842 39.0338 188.94 36.91L188.72 36.76C188.14 36.33 187.55 35.91 186.96 35.52C186.893 35.461 186.819 35.4106 186.74 35.37C178.115 29.5739 168.312 25.7646 158.036 24.2168C147.761 22.669 137.27 23.4214 127.321 26.4196C117.371 29.4178 108.212 34.5871 100.502 41.5545C92.7929 48.5219 86.7263 57.1137 82.74 66.71C82.7024 66.7881 82.669 66.8682 82.64 66.95C82.17 68.09 81.74 69.24 81.33 70.41C81.2974 70.4913 81.2706 70.5748 81.25 70.66C77.3851 81.9856 76.4494 94.1052 78.53 105.89C78.53 105.97 78.53 106.05 78.53 106.13C78.66 106.83 78.79 107.53 78.95 108.22C78.9404 108.3 78.9404 108.38 78.95 108.46C80.0731 113.711 81.8083 118.813 84.12 123.66C84.84 125.18 85.63 126.66 86.46 128.15C89.5837 133.638 93.4278 138.682 97.89 143.15C110.535 155.774 127.52 163.098 145.38 163.628C163.24 164.157 180.629 157.853 194 146C195.073 145.053 196.12 144.07 197.14 143.05C197.64 142.55 198.14 142.05 198.61 141.52C199.33 140.77 200.01 140.01 200.68 139.24C200.707 139.195 200.741 139.155 200.78 139.12L200.87 139C201.45 138.333 202.01 137.667 202.55 137C202.586 136.965 202.617 136.925 202.64 136.88C202.679 136.842 202.713 136.798 202.74 136.75C203.74 135.49 204.687 134.2 205.58 132.88C205.612 132.85 205.636 132.812 205.65 132.77C205.679 132.741 205.703 132.707 205.72 132.67C213.526 121.103 217.672 107.455 217.62 93.5C217.623 90.1945 217.392 86.893 216.93 83.62ZM205.51 132.49L205.44 132.6L205.36 132.7C204.427 134.08 203.427 135.413 202.36 136.7L202.26 136.82C202.233 136.862 202.203 136.902 202.17 136.94C201.617 137.607 201.057 138.273 200.49 138.94C200.452 138.969 200.421 139.007 200.4 139.05L200.29 139.17C199.68 139.86 199.06 140.55 198.42 141.22C197.78 141.89 197.42 142.3 196.87 142.83C195.81 143.89 194.73 144.91 193.61 145.89C180.276 157.62 162.975 163.832 145.225 163.264C127.474 162.696 110.606 155.389 98.05 142.83C93.6357 138.423 89.8257 133.449 86.72 128.04C85.88 126.573 85.0967 125.077 84.37 123.55C82.045 118.68 80.2966 113.555 79.16 108.28C79.1552 108.2 79.1552 108.12 79.16 108.04C79.01 107.34 78.87 106.65 78.75 105.95C78.75 105.87 78.75 105.79 78.75 105.71C78.0201 101.68 77.642 97.595 77.62 93.5C77.6094 85.7701 78.8834 78.0922 81.39 70.78C81.4106 70.6948 81.4374 70.6113 81.47 70.53C81.87 69.35 82.31 68.18 82.79 67.03L82.88 66.79C86.8509 57.2282 92.8934 48.6664 100.572 41.7215C108.251 34.7765 117.374 29.6214 127.286 26.6276C137.197 23.6337 147.649 22.8758 157.888 24.4083C168.128 25.9408 177.9 29.7256 186.5 35.49L186.71 35.64C187.34 36.07 187.97 36.51 188.59 36.96L188.8 37.12C191.678 39.2431 194.389 41.5832 196.91 44.12C206.232 53.3944 212.728 65.1265 215.64 77.95C215.7 78.17 215.74 78.39 215.78 78.6C216.14 80.23 216.44 81.87 216.67 83.53C216.68 83.6197 216.68 83.7102 216.67 83.8C219.063 100.864 215.079 118.211 205.48 132.52L205.51 132.49Z" fill="#125BC9"/>
</g>
<path d="M147.5 154.5C135.435 154.5 123.642 150.922 113.61 144.22C103.579 137.517 95.7603 127.99 91.1433 116.844C86.5264 105.697 85.3184 93.4324 87.6721 81.5995C90.0258 69.7667 95.8355 58.8975 104.366 50.3665C112.897 41.8355 123.767 36.0258 135.599 33.6721C147.432 31.3184 159.697 32.5264 170.844 37.1434C181.99 41.7603 191.517 49.5788 198.22 59.6102C204.922 69.6416 208.5 81.4354 208.5 93.5C208.484 109.673 202.052 125.18 190.616 136.616C179.18 148.052 163.673 154.484 147.5 154.5ZM147.5 41.43C137.201 41.43 127.134 44.4839 118.571 50.2054C110.009 55.9269 103.335 64.0592 99.3936 73.5737C95.4525 83.0883 94.4213 93.5578 96.4305 103.658C98.4396 113.759 103.399 123.037 110.681 130.319C117.963 137.601 127.241 142.56 137.342 144.57C147.442 146.579 157.912 145.548 167.426 141.606C176.941 137.665 185.073 130.991 190.795 122.429C196.516 113.866 199.57 103.799 199.57 93.5C199.554 79.6951 194.063 66.4601 184.301 56.6985C174.54 46.9369 161.305 41.4459 147.5 41.43Z" fill="url(#paint0_linear_1143_9052)"/>
<path d="M219.86 38.7099L217.86 38.1699L217.62 38.0999L215.07 37.3999L214.83 37.3399L202.21 33.8699L201.97 33.8099L199.42 33.1099L199.2 32.9999L197.2 32.4599C196.054 32.1463 194.848 32.1229 193.69 32.3917C192.533 32.6606 191.461 33.2132 190.57 33.9999C190.478 34.0815 190.392 34.1683 190.31 34.2599C189.609 34.9506 189.058 35.7776 188.69 36.6899L188.61 36.8899L176.67 66.9999C176.3 67.9359 176.13 68.9393 176.174 69.9449C176.217 70.9505 176.471 71.9358 176.92 72.8366C177.369 73.7375 178.003 74.5337 178.78 75.1735C179.557 75.8132 180.46 76.2822 181.43 76.5499L211 84.6199C211.566 84.7819 212.151 84.866 212.74 84.8699H213.12C214.391 84.8352 215.629 84.4549 216.7 83.7699H216.77L216.93 83.6599C217.729 83.1093 218.407 82.4013 218.923 81.5794C219.439 80.7575 219.782 79.8389 219.93 78.8799L222.34 63.6599L223.52 56.1699L225.01 46.7699C225.301 45.0274 224.935 43.2389 223.984 41.7501C223.033 40.2614 221.563 39.1782 219.86 38.7099ZM224.79 46.7099L223.3 56.1499L222.11 63.6399L219.71 78.8199C219.57 79.7277 219.249 80.5979 218.764 81.3781C218.279 82.1583 217.642 82.8325 216.89 83.3599L216.67 83.5199C215.704 84.1528 214.592 84.5281 213.44 84.6099H213.05C212.375 84.626 211.701 84.5417 211.05 84.3599L181.48 76.2599C180.542 76.0037 179.668 75.5522 178.916 74.9352C178.165 74.3181 177.552 73.5493 177.117 72.679C176.683 71.8087 176.438 70.8565 176.397 69.8848C176.356 68.9131 176.521 67.9436 176.88 67.0399L188.78 37.0999L188.88 36.8599C189.266 35.8846 189.867 35.0093 190.64 34.2999L191 33.9999C191.851 33.304 192.856 32.8227 193.932 32.5965C195.007 32.3703 196.121 32.4057 197.18 32.6999L199.18 33.2399L199.42 33.3099L201.96 34.0099L202.2 34.0699L214.83 37.5399L215.07 37.5999L217.61 38.2999L217.85 38.3599L219.85 38.9099C221.489 39.3679 222.9 40.416 223.812 41.8524C224.724 43.2889 225.073 45.012 224.79 46.6899V46.7099Z" fill="#125BC9"/>
<g opacity="0.2">
<path opacity="0.2" d="M217.05 41.19C216.975 41.1461 216.899 41.1061 216.82 41.07C216.36 40.8238 215.873 40.6293 215.37 40.49L214.32 40.2L214.08 40.14L201.46 36.68L201.22 36.61L198.67 35.91L198.43 35.85L192.72 34.28C192.162 34.111 191.583 34.0168 191 34C190.867 33.985 190.733 33.985 190.6 34C189.212 34.0509 187.868 34.5024 186.73 35.3L186.53 35.45C185.499 36.2212 184.697 37.2582 184.21 38.45L172.21 68.67C171.84 69.6053 171.671 70.6081 171.714 71.613C171.757 72.618 172.011 73.6026 172.46 74.5026C172.909 75.4027 173.543 76.198 174.32 76.8368C175.097 77.4756 176 77.9435 176.97 78.21L206.54 86.32C207.512 86.5824 208.529 86.6388 209.524 86.4855C210.519 86.3323 211.472 85.9728 212.32 85.43C212.621 85.2424 212.903 85.0246 213.16 84.78C213.266 84.7044 213.363 84.6172 213.45 84.52C214.549 83.4443 215.269 82.0404 215.5 80.52L215.82 78.47L215.93 77.81L218.19 63.52L219.37 56.03L220.58 48.41C220.786 46.9912 220.559 45.5433 219.929 44.2553C219.299 42.9673 218.296 41.8991 217.05 41.19ZM220.3 48.47L219.09 56.13L217.9 63.62L215.74 77.28L215.64 77.92L215.22 80.58C214.964 82.1252 214.188 83.5365 213.02 84.58C212.934 84.6681 212.84 84.7484 212.74 84.82C212.551 84.981 212.35 85.1281 212.14 85.26C211.325 85.7879 210.407 86.1374 209.447 86.2856C208.487 86.4338 207.507 86.3774 206.57 86.12L177 78.06C176.063 77.8036 175.191 77.3524 174.44 76.736C173.689 76.1196 173.076 75.3518 172.642 74.4827C172.208 73.6136 171.962 72.6628 171.921 71.6922C171.879 70.7217 172.042 69.7532 172.4 68.85L184.4 38.64C184.877 37.448 185.673 36.4102 186.7 35.64L186.91 35.49C187.913 34.8035 189.078 34.3931 190.29 34.3C190.41 34.2901 190.53 34.2901 190.65 34.3C191.325 34.2705 192 34.3482 192.65 34.53L198.37 36.1L198.61 36.16L201.15 36.86L201.39 36.93L214 40.38L214.24 40.44L215.24 40.73C215.749 40.8665 216.239 41.0647 216.7 41.32L216.92 41.44C218.127 42.1341 219.095 43.1769 219.699 44.4316C220.302 45.6863 220.512 47.0941 220.3 48.47Z" fill="#125BC9"/>
</g>
<path d="M213.92 25.67L209 24.32C207.177 23.8238 205.231 24.0717 203.59 25.0093C201.95 25.9468 200.748 27.4973 200.25 29.32L199.25 33.05L199.19 33.2901L198.48 35.8601L198.42 36.1L197.48 39.51C197.107 40.9103 197.165 42.3905 197.647 43.7571C198.129 45.1237 199.011 46.3132 200.18 47.17C200.87 47.6733 201.646 48.0461 202.47 48.2701L207.4 49.62C208.019 49.7905 208.658 49.8779 209.3 49.8801C210.86 49.8729 212.374 49.356 213.612 48.4081C214.851 47.4603 215.746 46.1335 216.16 44.6301L217.03 41.4501L217.1 41.2001L217.86 38.41L217.93 38.18L218.93 34.43C219.177 33.5259 219.243 32.5819 219.125 31.6521C219.007 30.7223 218.707 29.8249 218.241 29.0113C217.776 28.1976 217.155 27.4837 216.413 26.9104C215.672 26.3371 214.825 25.9156 213.92 25.67ZM218.66 34.3601L217.66 38.1L217.59 38.34L216.84 41.07L216.78 41.32L215.89 44.5601C215.404 46.3163 214.242 47.8084 212.658 48.7098C211.075 49.6113 209.198 49.8487 207.44 49.37L202.49 48C200.732 47.5161 199.237 46.3549 198.334 44.771C197.43 43.1871 197.192 41.3097 197.67 39.55L198.61 36.1301L198.67 35.89L199.38 33.3301L199.44 33.09L200.44 29.35C200.676 28.4776 201.082 27.6605 201.636 26.9458C202.189 26.2311 202.878 25.633 203.664 25.1858C204.449 24.7387 205.315 24.4515 206.212 24.3406C207.109 24.2298 208.019 24.2976 208.89 24.5401L213.82 25.89C214.694 26.1275 215.514 26.535 216.23 27.0894C216.947 27.6439 217.547 28.3342 217.997 29.121C218.447 29.9078 218.737 30.7755 218.85 31.6745C218.964 32.5735 218.899 33.4861 218.66 34.3601Z" fill="#125BC9"/>
<g opacity="0.2">
<path opacity="0.2" d="M215.53 30.52C215.222 29.9757 214.809 29.4982 214.314 29.1153C213.82 28.7325 213.254 28.4519 212.65 28.29L208.73 27.21C207.511 26.879 206.211 27.0447 205.115 27.6708C204.018 28.2969 203.214 29.3323 202.88 30.55L202 33.81L201.93 34.05L201.23 36.61L201.16 36.85L200.36 39.79C200.191 40.3914 200.144 41.0205 200.222 41.6403C200.299 42.2601 200.499 42.8584 200.81 43.4C201.119 43.9444 201.533 44.4225 202.027 44.8069C202.521 45.1913 203.086 45.4744 203.69 45.64L207.61 46.71C208.023 46.8293 208.45 46.8899 208.88 46.89C209.704 46.8849 210.514 46.6679 211.23 46.26C211.774 45.952 212.252 45.5388 212.635 45.0443C213.018 44.5498 213.298 43.9841 213.46 43.38L214.27 40.44L214.33 40.2L215.04 37.64L215.1 37.4L216 34.14C216.329 32.9188 216.16 31.6166 215.53 30.52ZM215.75 34.07L214.85 37.34L214.79 37.58L214.08 40.14L214.02 40.38L213.21 43.31C212.894 44.4637 212.133 45.4447 211.094 46.0373C210.055 46.6299 208.824 46.7856 207.67 46.47L203.75 45.4C203.178 45.2438 202.642 44.9762 202.173 44.6125C201.704 44.2488 201.312 43.7962 201.018 43.2807C200.725 42.7651 200.536 42.1967 200.462 41.608C200.389 41.0193 200.432 40.4219 200.59 39.85L201.39 36.92L201.46 36.68L202.16 34.11L202.23 33.87L203.12 30.61C203.275 30.0384 203.542 29.5034 203.906 29.0363C204.27 28.5692 204.723 28.1795 205.24 27.89C206.28 27.2945 207.514 27.1362 208.67 27.45L212.59 28.53C213.741 28.8503 214.718 29.6121 215.31 30.6497C215.902 31.6872 216.06 32.9165 215.75 34.07Z" fill="#125BC9"/>
</g>
<path d="M193.5 68.7299L185.23 66.4699C184.913 66.3832 184.582 66.3599 184.256 66.4012C183.929 66.4425 183.615 66.5476 183.329 66.7106C183.043 66.8735 182.793 67.0911 182.591 67.351C182.39 67.6108 182.242 67.9078 182.155 68.2249C182.068 68.5421 182.045 68.8732 182.086 69.1993C182.128 69.5255 182.233 69.8403 182.396 70.1259C182.559 70.4114 182.776 70.6621 183.036 70.8635C183.296 71.065 183.593 71.2132 183.91 71.2999L192.18 73.5699C192.502 73.6702 192.841 73.7047 193.176 73.6712C193.512 73.6377 193.837 73.5369 194.133 73.3749C194.429 73.2128 194.689 72.9929 194.897 72.7282C195.106 72.4634 195.26 72.1593 195.348 71.834C195.437 71.5087 195.459 71.1688 195.414 70.8347C195.368 70.5006 195.256 70.1791 195.083 69.8894C194.911 69.5997 194.682 69.3477 194.41 69.1485C194.138 68.9493 193.828 68.8069 193.5 68.7299ZM195.02 71.7299C194.875 72.3061 194.508 72.8019 194 73.1099C193.477 73.4048 192.86 73.4838 192.28 73.3299L184 71.0599C183.699 70.9953 183.415 70.8699 183.164 70.6915C182.913 70.513 182.701 70.2852 182.542 70.022C182.382 69.7589 182.278 69.4659 182.236 69.161C182.194 68.8562 182.214 68.5459 182.296 68.2493C182.378 67.9526 182.519 67.6757 182.712 67.4357C182.904 67.1957 183.144 66.9975 183.416 66.8534C183.688 66.7093 183.986 66.6222 184.293 66.5975C184.6 66.5729 184.909 66.6111 185.2 66.7099L193.44 68.9999C194.006 69.1655 194.486 69.5453 194.777 70.0587C195.069 70.5721 195.148 71.1787 195 71.7499L195.02 71.7299Z" fill="#125BC9"/>
<g opacity="0.2">
<path opacity="0.2" d="M192.79 69.5301C192.392 69.4214 191.967 69.4751 191.609 69.6796C191.251 69.884 190.989 70.2223 190.88 70.6201C190.771 71.018 190.825 71.4427 191.029 71.8009C191.234 72.1591 191.572 72.4214 191.97 72.5301C192.103 72.5689 192.241 72.5891 192.38 72.5901C192.72 72.588 193.05 72.4757 193.32 72.2701C193.59 72.0646 193.787 71.7768 193.88 71.4501C193.936 71.2525 193.952 71.0457 193.928 70.8417C193.903 70.6378 193.838 70.4407 193.737 70.2621C193.635 70.0834 193.499 69.9267 193.337 69.8011C193.174 69.6754 192.988 69.5833 192.79 69.5301ZM193.64 71.3701C193.547 71.7017 193.326 71.9832 193.027 72.1535C192.727 72.3238 192.373 72.3693 192.04 72.2801C191.874 72.2365 191.719 72.1601 191.583 72.0553C191.447 71.9505 191.334 71.8195 191.25 71.6701C191.163 71.5203 191.107 71.3548 191.085 71.1831C191.063 71.0115 191.075 70.8371 191.12 70.6701C191.164 70.503 191.241 70.3466 191.348 70.2107C191.455 70.0748 191.588 69.9623 191.74 69.8801C191.935 69.7692 192.156 69.7106 192.38 69.7101C192.496 69.6907 192.614 69.6907 192.73 69.7101C193.013 69.7791 193.265 69.9404 193.446 70.1686C193.627 70.3968 193.727 70.6788 193.73 70.9701C193.721 71.1073 193.69 71.2422 193.64 71.3701Z" fill="#125BC9"/>
</g>
<path d="M96.18 93.8099L85.59 69.6499C85.0531 68.4062 84.093 67.3929 82.88 66.7899L82.67 66.6799C81.3627 66.0835 79.8813 65.991 78.51 66.4199L76.94 66.9099L76.7 66.9999L74.7 67.6299L74.47 67.6999L64.37 70.8499L64.13 70.9199L62.13 71.5399L61.88 71.6199L60.31 72.1099C59.3817 72.3995 58.541 72.9175 57.8649 73.6163C57.1887 74.3152 56.6988 75.1726 56.44 76.1099C56.44 76.2299 56.37 76.3599 56.34 76.4899C56.1848 77.2588 56.1848 78.051 56.34 78.8199L58.23 88.5499L58.76 91.2999L61.37 104.72C61.5238 105.526 61.8467 106.29 62.3174 106.963C62.788 107.635 63.3958 108.2 64.1006 108.62C64.8054 109.041 65.5912 109.307 66.4064 109.402C67.2216 109.497 68.0476 109.417 68.83 109.17L78.51 106.17L78.75 106.1L92.58 101.79C93.0183 101.651 93.4381 101.46 93.83 101.22C93.9426 101.159 94.0496 101.089 94.15 101.01C95.0225 100.42 95.7147 99.5993 96.15 98.6399C96.4986 97.8833 96.6816 97.0611 96.6868 96.2281C96.6919 95.3952 96.5192 94.5707 96.18 93.8099ZM95.91 98.4699C95.5403 99.2945 94.9695 100.013 94.25 100.56C94.15 100.645 94.0429 100.722 93.93 100.79C93.4899 101.089 93.0081 101.322 92.5 101.48L78.69 105.79L78.46 105.86L68.75 108.86C67.9997 109.094 67.2086 109.167 66.4282 109.074C65.6478 108.981 64.8958 108.725 64.2211 108.322C63.5464 107.919 62.9642 107.379 62.5126 106.736C62.061 106.092 61.75 105.361 61.6 104.59L59 91.2499L58.46 88.4999L56.57 78.7299C56.402 77.8939 56.4363 77.0299 56.67 76.2099C56.696 76.0836 56.7328 75.9598 56.78 75.8399C57.0638 75.0124 57.5386 74.2635 58.1657 73.6537C58.7929 73.0439 59.5549 72.5904 60.39 72.3299L62 71.8399L62.24 71.7699L64.24 71.1399L64.48 71.0699L74.58 67.9199L74.82 67.8499L76.82 67.2299L77.05 67.1499L78.63 66.6599C79.1677 66.4939 79.7273 66.4096 80.29 66.4099C81.0915 66.4062 81.8839 66.5804 82.61 66.9199C82.6871 66.9484 82.7609 66.9853 82.83 67.0299C83.9762 67.611 84.8847 68.5726 85.4 69.7499L96 93.9099C96.3045 94.634 96.4539 95.414 96.4384 96.1994C96.4229 96.9849 96.2429 97.7583 95.91 98.4699Z" fill="#125BC9"/>
<g opacity="0.2">
<path opacity="0.2" d="M93.89 97L83.3 72.84C82.9043 71.9221 82.273 71.1252 81.47 70.53C81.4049 70.4735 81.3346 70.4233 81.26 70.38C80.2162 69.6631 78.9645 69.3115 77.7 69.38C77.6136 69.3704 77.5264 69.3704 77.44 69.38C77.0258 69.409 76.6164 69.4862 76.22 69.61L75.41 69.86L75.17 69.94L65.07 73.08L64.83 73.16L62.83 73.78L62.59 73.86L58 75.28C57.5662 75.4174 57.15 75.6053 56.76 75.84C56.6387 75.9002 56.5247 75.974 56.42 76.06C55.4781 76.7032 54.7464 77.6095 54.3161 78.6658C53.8857 79.7221 53.7758 80.8817 54 82L55.27 88.54L55.8 91.29L59.03 107.9C59.2894 109.227 60.0015 110.424 61.0447 111.284C62.0879 112.145 63.3975 112.617 64.75 112.62C65.3404 112.62 65.9273 112.529 66.49 112.35L79 108.43L79.23 108.36L90.31 104.91C91.0921 104.663 91.8138 104.256 92.4287 103.713C93.0436 103.171 93.538 102.505 93.88 101.76C94.0003 101.496 94.0974 101.221 94.17 100.94C94.2172 100.817 94.254 100.689 94.28 100.56C94.522 99.3616 94.3857 98.1176 93.89 97ZM93.82 101.15C93.7664 101.325 93.6996 101.495 93.62 101.66C93.2948 102.372 92.8229 103.007 92.2353 103.524C91.6477 104.041 90.9575 104.428 90.21 104.66L79.15 108.11L78.92 108.18L66.46 112.07C65.7097 112.304 64.9186 112.377 64.1382 112.284C63.3579 112.191 62.6058 111.935 61.9311 111.532C61.2564 111.129 60.6742 110.589 60.2226 109.946C59.771 109.303 59.46 108.571 59.31 107.8L56.1 91.25L55.57 88.5L54.29 81.92C54.0944 80.9054 54.1833 79.8565 54.5469 78.8894C54.9105 77.9222 55.5345 77.0745 56.35 76.44C56.4543 76.3554 56.5646 76.2785 56.68 76.21C57.1179 75.907 57.6004 75.6742 58.11 75.52L62.67 74.1L62.91 74.02L64.91 73.4L65.15 73.33L75.24 70.18L75.48 70.1L76.3 69.85C76.6971 69.7292 77.1062 69.6521 77.52 69.62H78C79.1515 69.6087 80.2776 69.9584 81.22 70.62L81.43 70.77C82.1665 71.3335 82.7452 72.0775 83.11 72.93L93.66 97.1C94.1671 98.2635 94.2623 99.5651 93.93 100.79C93.9 100.91 93.86 101 93.82 101.15Z" fill="#125BC9"/>
</g>
<path d="M78.17 70.8699L77.78 69.6099L77.7 69.3599L77 67.1499L76.93 66.9099L76.39 65.1899C75.8238 63.3891 74.5675 61.8858 72.896 61.0088C71.2244 60.1318 69.2735 59.9524 67.47 60.5099L66 60.9999C64.1969 61.566 62.6918 62.8238 61.8145 64.4977C60.9373 66.1717 60.7594 68.1251 61.32 69.9299L61.85 71.6399L61.93 71.8799L62.56 73.8799L62.63 74.1199L63.09 75.5799C63.6539 77.3823 64.9098 78.8873 66.5821 79.7647C68.2544 80.6421 70.2065 80.8202 72.01 80.2599L73.45 79.8099C74.3432 79.5318 75.1728 79.0805 75.8915 78.4816C76.6102 77.8827 77.2038 77.1481 77.6384 76.3197C78.073 75.4913 78.3402 74.5854 78.4245 73.6537C78.5088 72.7221 78.4088 71.7829 78.13 70.8899L78.17 70.8699ZM77.46 76.1799C77.0474 76.9769 76.4817 77.6847 75.7954 78.263C75.109 78.8412 74.3154 79.2785 73.46 79.5499L72 79.9999C70.2588 80.5412 68.374 80.3692 66.7596 79.5217C65.1452 78.6742 63.9332 77.2205 63.39 75.4799L62.91 73.9999L62.84 73.7599L62.21 71.7599L62.14 71.5099L61.6 69.7999C61.061 68.0601 61.2329 66.1776 62.0781 64.5641C62.9232 62.9507 64.3728 61.7375 66.11 61.1899L67.55 60.7399C68.2174 60.5344 68.9117 60.4299 69.61 60.4299C70.722 60.4281 71.8174 60.6993 72.8 61.2199C74.4075 62.0559 75.619 63.4939 76.17 65.2199L76.7 66.9999L76.78 67.2499L77.44 69.3999L77.52 69.6399L77.93 70.9599C78.1992 71.8181 78.2963 72.721 78.2156 73.6168C78.135 74.5126 77.8782 75.3836 77.46 76.1799Z" fill="#125BC9"/>
<g opacity="0.2">
<path opacity="0.2" d="M76 71.5999L75.53 70.0999L75.46 69.8599L74.83 67.8599L74.75 67.6199L74.2 65.8599C74.0144 65.2585 73.7115 64.6999 73.3087 64.2164C72.9058 63.7328 72.4111 63.334 71.8531 63.0429C71.2951 62.7518 70.6849 62.5743 70.0579 62.5206C69.4308 62.4668 68.7993 62.538 68.2 62.7299L66.72 63.1899C66.1194 63.3766 65.5616 63.6802 65.0788 64.0833C64.5959 64.4864 64.1976 64.9811 63.9067 65.5387C63.6158 66.0964 63.4381 66.7061 63.3837 67.3327C63.3293 67.9593 63.3994 68.5905 63.59 69.1899L64.14 70.9399L64.21 71.1799L64.84 73.1799L64.92 73.4199L65.39 74.9199C65.5725 75.5182 65.8726 76.074 66.2727 76.5548C66.6728 77.0356 67.1648 77.4317 67.72 77.7199C68.4017 78.0782 69.1598 78.2669 69.93 78.2699C70.4111 78.2531 70.8867 78.162 71.34 77.9999L72.82 77.5399C74.0285 77.1726 75.0419 76.3409 75.6381 75.2274C76.2342 74.1138 76.3644 72.8093 76 71.5999ZM72.8 77.3299L71.32 77.7899C70.752 77.9644 70.1552 78.0251 69.5638 77.9688C68.9723 77.9124 68.3978 77.7399 67.873 77.4613C67.3482 77.1827 66.8836 76.8033 66.5055 76.3449C66.1275 75.8865 65.8436 75.3581 65.67 74.7899L65.2 73.2899L65.12 73.0399L64.49 71.0399L64.42 70.7999L63.87 69.0399C63.6914 68.4745 63.6269 67.8793 63.6801 67.2888C63.7333 66.6983 63.9032 66.1242 64.18 65.5999C64.7395 64.5404 65.6959 63.7458 66.84 63.3899L68.26 62.9999C68.8286 62.8239 69.4263 62.762 70.0189 62.8176C70.6115 62.8732 71.1873 63.0454 71.7132 63.3241C72.2391 63.6029 72.7047 63.9827 73.0834 64.4419C73.4621 64.9011 73.7464 65.4306 73.92 65.9999L74.47 67.7499L74.54 67.9899L75.17 69.9899L75.24 70.2299L75.71 71.7299C76.0488 72.865 75.9285 74.0878 75.375 75.1351C74.8214 76.1824 73.8788 76.9705 72.75 77.3299H72.8Z" fill="#125BC9"/>
</g>
<path d="M76.22 99.8299C76.1402 99.5723 76.0104 99.333 75.8379 99.1256C75.6655 98.9183 75.4539 98.747 75.2151 98.6216C74.9764 98.4962 74.7152 98.4191 74.4467 98.3948C74.1781 98.3705 73.9074 98.3994 73.65 98.4799L67 100.55C66.4813 100.713 66.0483 101.075 65.7954 101.557C65.5425 102.038 65.4902 102.6 65.65 103.12C65.7846 103.544 66.0515 103.913 66.4114 104.174C66.7714 104.435 67.2054 104.574 67.65 104.57C67.8599 104.57 68.0688 104.54 68.27 104.48L74.91 102.41C75.4295 102.249 75.8645 101.89 76.12 101.41C76.2433 101.167 76.3158 100.902 76.333 100.63C76.3502 100.359 76.3117 100.086 76.22 99.8299ZM75.86 101.28C75.7508 101.491 75.6009 101.678 75.419 101.831C75.237 101.984 75.0267 102.099 74.8 102.17L68.16 104.24C67.7012 104.378 67.2064 104.331 66.7819 104.109C66.3574 103.886 66.0372 103.506 65.89 103.05C65.7492 102.592 65.7954 102.098 66.0184 101.674C66.2414 101.251 66.6231 100.933 67.08 100.79L73.72 98.7099C73.8955 98.6587 74.0772 98.6318 74.26 98.6299C74.6474 98.6288 75.0251 98.7514 75.3381 98.9798C75.651 99.2082 75.8829 99.5306 76 99.8999C76.0696 100.128 76.0931 100.367 76.0691 100.604C76.0451 100.841 75.974 101.071 75.86 101.28Z" fill="#125BC9"/>
<g opacity="0.2">
<path opacity="0.2" d="M75.12 100.17C75.0428 99.9279 74.8957 99.7139 74.6973 99.5551C74.4989 99.3962 74.258 99.2994 74.0048 99.277C73.7516 99.2546 73.4975 99.3074 73.2742 99.429C73.051 99.5505 72.8686 99.7353 72.75 99.9601C72.6677 100.112 72.6181 100.279 72.6044 100.452C72.5906 100.624 72.6129 100.797 72.67 100.96C72.7179 101.12 72.7975 101.269 72.904 101.398C73.0105 101.527 73.1418 101.633 73.29 101.71C73.4746 101.809 73.6807 101.86 73.89 101.86C74.0191 101.86 74.1473 101.84 74.27 101.8C74.4328 101.752 74.5842 101.672 74.7148 101.563C74.8455 101.455 74.9527 101.321 75.03 101.17C75.1116 101.018 75.1617 100.851 75.1771 100.679C75.1926 100.507 75.1732 100.334 75.12 100.17ZM74.81 101.04C74.7475 101.16 74.6612 101.267 74.5564 101.353C74.4515 101.439 74.3303 101.502 74.2 101.54C74.0705 101.583 73.9336 101.599 73.7978 101.587C73.6619 101.575 73.5299 101.535 73.41 101.47C73.168 101.34 72.9853 101.121 72.9 100.86C72.8219 100.601 72.847 100.321 72.97 100.08C73.0314 99.9579 73.1172 99.8496 73.2221 99.7618C73.327 99.6741 73.4489 99.6088 73.58 99.5701C73.6828 99.5557 73.7872 99.5557 73.89 99.5701C74.1144 99.5618 74.3352 99.6293 74.5166 99.7617C74.698 99.8941 74.8295 100.084 74.89 100.3C74.9491 100.535 74.9207 100.784 74.81 101V101.04Z" fill="#125BC9"/>
</g>
<path d="M211.2 180.5H140.14L134.93 127.2C129.44 119.2 123.01 103.69 120.93 98.53C120.461 97.3635 119.875 96.2478 119.18 95.2L110.39 81.9C109.874 81.1337 109.58 80.2394 109.541 79.3161C109.502 78.3929 109.72 77.477 110.17 76.67C110.542 75.9525 111.089 75.3404 111.76 74.89C111.962 74.7681 112.177 74.6676 112.4 74.59C112.583 74.5337 112.77 74.4936 112.96 74.47H113.33H113.68L114.05 74.53L114.4 74.63C114.62 74.7 114.88 74.8 115.17 74.92C117.431 75.9803 119.622 77.1827 121.73 78.52C128.24 82.52 136.14 87.93 136.14 87.93L136.81 85.02L125.22 70.87L125.05 70.72C122.043 67.8843 119.451 64.6391 117.35 61.08C116.72 60.08 116.11 59.02 115.54 57.97C114.78 56.59 114.09 55.2 113.48 53.85V53.76C113.33 53.42 113.18 53.08 113.04 52.76C111.04 48.16 110.16 44.12 111.04 42.29C112.13 39.96 113.7 39.74 114.93 40.06C115.932 40.3235 116.792 40.9652 117.33 41.85C121 47.61 137.16 65 137.16 65C137.16 65 130.01 40.37 132.46 31.41C134.91 22.45 140.14 28.6 140.14 28.6L141.91 33.33C146.38 26.25 150 33.99 150 33.99L152.24 41.61C156.13 43.08 157.32 49.47 157.32 49.47C159.85 60.56 184.47 109.52 184.47 109.52C185.15 110.79 185.83 112.09 186.47 113.42C190.07 120.56 193.47 128.42 196.67 136.72C197.55 138.953 198.403 141.207 199.23 143.48C199.61 144.48 199.99 145.56 200.36 146.61C204.39 157.81 208 169.4 211.2 180.5Z" fill="url(#paint1_linear_1143_9052)"/>
<path d="M166.45 134.29C166.338 134.287 166.229 134.249 166.14 134.18C144.08 116.91 151.14 90.35 151.21 90.08C151.249 89.9538 151.335 89.8473 151.451 89.7823C151.566 89.7172 151.701 89.6986 151.83 89.73C151.958 89.7673 152.066 89.853 152.131 89.9688C152.196 90.0846 152.214 90.2214 152.18 90.35C152.11 90.61 145.18 116.54 166.76 133.35C166.865 133.433 166.934 133.554 166.95 133.687C166.967 133.819 166.931 133.954 166.85 134.06C166.805 134.126 166.746 134.181 166.676 134.221C166.607 134.261 166.53 134.284 166.45 134.29Z" fill="#125BC9"/>
<path d="M148.94 82.47C148.833 82.4707 148.729 82.437 148.642 82.3741C148.556 82.3111 148.492 82.222 148.46 82.12C148.46 81.99 144.54 68.94 141.61 56.24C138.68 43.54 141.35 34.67 141.47 34.3C141.488 34.2354 141.52 34.1751 141.562 34.1228C141.604 34.0706 141.657 34.0273 141.716 33.9958C141.775 33.9642 141.841 33.9449 141.908 33.9391C141.975 33.9333 142.042 33.9411 142.106 33.9619C142.17 33.9828 142.229 34.0163 142.28 34.0605C142.33 34.1047 142.371 34.1587 142.401 34.2192C142.43 34.2797 142.447 34.3455 142.45 34.4127C142.454 34.4798 142.443 34.5469 142.42 34.61C142.42 34.69 139.7 43.48 142.58 56.01C145.5 68.69 149.38 81.7 149.42 81.83C149.454 81.9573 149.438 82.0929 149.375 82.2085C149.312 82.3241 149.206 82.4107 149.08 82.45C149.035 82.4659 148.988 82.4727 148.94 82.47Z" fill="#125BC9"/>
<path d="M152.19 82.7399C152.091 82.7407 151.994 82.7116 151.912 82.6562C151.83 82.6009 151.766 82.522 151.73 82.4299C148.73 75.3599 146.88 59.4299 146.92 51.4999C146.92 43.8399 151.23 41.7499 151.41 41.6699C151.47 41.6359 151.536 41.6146 151.604 41.6073C151.672 41.6 151.741 41.6069 151.807 41.6274C151.872 41.648 151.933 41.6818 151.985 41.7268C152.037 41.7718 152.079 41.827 152.108 41.8889C152.138 41.9509 152.155 42.0183 152.157 42.0869C152.159 42.1555 152.148 42.2239 152.122 42.2878C152.097 42.3517 152.059 42.4097 152.011 42.4583C151.962 42.5068 151.904 42.5448 151.84 42.5699C151.67 42.6499 147.95 44.5699 147.92 51.5099C147.92 59.1199 149.75 75.1899 152.65 82.0499C152.676 82.1102 152.69 82.1751 152.69 82.2407C152.691 82.3064 152.678 82.3714 152.653 82.4321C152.627 82.4927 152.59 82.5476 152.544 82.5937C152.497 82.6397 152.441 82.6758 152.38 82.6999C152.321 82.7282 152.256 82.742 152.19 82.7399Z" fill="#125BC9"/>
<path d="M144.34 82.6699C144.26 82.6712 144.18 82.6527 144.109 82.6161C144.037 82.5794 143.976 82.5258 143.93 82.4599C141.35 78.7999 136.93 65.5999 136.71 65.0399C136.668 64.9139 136.677 64.7762 136.736 64.6572C136.795 64.5381 136.899 64.4473 137.025 64.4049C137.151 64.3625 137.289 64.3718 137.408 64.4309C137.527 64.4899 137.618 64.5939 137.66 64.7199C137.71 64.8599 142.25 78.3399 144.75 81.8799C144.825 81.9893 144.854 82.1235 144.832 82.2542C144.809 82.3849 144.737 82.5017 144.63 82.5799C144.544 82.6381 144.443 82.6694 144.34 82.6699Z" fill="#125BC9"/>
<path d="M136.15 119.79C136.04 119.789 135.934 119.753 135.848 119.686C135.761 119.619 135.698 119.526 135.67 119.42C133.9 112.97 135.5 90.5201 135.56 89.5701C135.573 89.4375 135.636 89.3148 135.736 89.2274C135.837 89.1399 135.967 89.0944 136.1 89.1001C136.166 89.1051 136.23 89.1231 136.289 89.1531C136.347 89.183 136.4 89.2242 136.442 89.2744C136.485 89.3246 136.517 89.3827 136.538 89.4455C136.558 89.5083 136.565 89.5744 136.56 89.6401C136.56 89.8701 134.91 112.87 136.63 119.15C136.65 119.214 136.656 119.281 136.649 119.347C136.642 119.413 136.621 119.477 136.588 119.535C136.556 119.593 136.511 119.644 136.458 119.685C136.405 119.725 136.345 119.754 136.28 119.77L136.15 119.79Z" fill="#125BC9"/>
<g opacity="0.15">
<path opacity="0.15" d="M167.044 124.449C169.976 123.431 170.085 116.076 167.288 108.02C164.49 99.9648 159.846 94.26 156.914 95.2782C153.981 96.2964 153.872 103.652 156.67 111.707C159.467 119.763 164.111 125.468 167.044 124.449Z" fill="#F4F3EE"/>
</g>
<g opacity="0.15">
<path opacity="0.15" d="M153.216 50.298C153.612 47.8445 153.045 45.7121 151.949 45.5352C150.853 45.3583 149.644 47.2038 149.248 49.6574C148.852 52.1109 149.419 54.2433 150.515 54.4202C151.611 54.5971 152.82 52.7515 153.216 50.298Z" fill="#F4F3EE"/>
</g>
<g opacity="0.15">
<path opacity="0.15" d="M153.684 73.4434C154.781 73.277 155.199 70.0303 154.617 66.1916C154.035 62.3529 152.674 59.3759 151.576 59.5422C150.479 59.7086 150.061 62.9554 150.643 66.7941C151.225 70.6328 152.586 73.6098 153.684 73.4434Z" fill="#F4F3EE"/>
</g>
<g opacity="0.15">
<path opacity="0.15" d="M146.689 38.266C147.085 35.8125 146.518 33.6801 145.422 33.5032C144.326 33.3263 143.117 35.1719 142.721 37.6254C142.325 40.0789 142.892 42.2113 143.988 42.3882C145.084 42.5651 146.293 40.7195 146.689 38.266Z" fill="#F4F3EE"/>
</g>
<g opacity="0.15">
<path opacity="0.15" d="M136.688 34.1764C137.084 31.7229 136.517 29.5905 135.421 29.4136C134.325 29.2367 133.116 31.0823 132.719 33.5358C132.323 35.9893 132.891 38.1217 133.987 38.2986C135.083 38.4755 136.292 36.6299 136.688 34.1764Z" fill="#F4F3EE"/>
</g>
<g opacity="0.15">
<path opacity="0.15" d="M115.733 50.9501C116.761 50.5314 116.835 48.326 115.897 46.0243C114.96 43.7226 113.367 42.1962 112.339 42.6149C111.31 43.0336 111.237 45.2389 112.174 47.5407C113.112 49.8424 114.705 51.3688 115.733 50.9501Z" fill="#F4F3EE"/>
</g>
<path d="M110.89 81.9301C110.89 81.9301 113.34 80.9301 114.7 84.2101C114.7 84.2101 115.32 85.8401 114.82 86.5901" stroke="#125BC9" stroke-miterlimit="10" stroke-linecap="round"/>
<path d="M139.89 85.5C139.814 85.499 139.738 85.4816 139.669 85.4488C139.6 85.416 139.539 85.3686 139.49 85.31C139.409 85.2051 139.374 85.0726 139.39 84.9414C139.407 84.8102 139.475 84.691 139.58 84.61C145.58 79.88 158.9 83.82 159.46 83.99C159.524 84.0072 159.583 84.0371 159.635 84.0779C159.687 84.1187 159.73 84.1696 159.762 84.2275C159.794 84.2854 159.814 84.3492 159.82 84.4149C159.827 84.4806 159.82 84.547 159.8 84.61C159.759 84.7362 159.67 84.8413 159.552 84.9029C159.434 84.9646 159.297 84.9779 159.17 84.94C159.04 84.94 145.77 80.94 140.17 85.39C140.088 85.4515 139.992 85.4896 139.89 85.5Z" fill="#125BC9"/>
<g opacity="0.22">
<path opacity="0.22" d="M256.51 0.5V59.25C256.51 59.2845 256.524 59.3175 256.548 59.3419C256.572 59.3663 256.606 59.38 256.64 59.38C256.657 59.3801 256.673 59.3767 256.688 59.37C256.704 59.3634 256.717 59.3536 256.729 59.3414C256.74 59.3292 256.748 59.3147 256.754 59.299C256.759 59.2833 256.761 59.2666 256.76 59.25V0.5H256.51Z" fill="#125BC9"/>
</g>
<path d="M256.5 60.5C257.605 60.5 258.5 59.6046 258.5 58.5C258.5 57.3954 257.605 56.5 256.5 56.5C255.395 56.5 254.5 57.3954 254.5 58.5C254.5 59.6046 255.395 60.5 256.5 60.5Z" fill="white"/>
<path d="M256.76 56.3999H256.51C255.949 56.4337 255.424 56.6845 255.045 57.0992C254.666 57.5138 254.464 58.0597 254.481 58.621C254.498 59.1824 254.733 59.7151 255.136 60.1062C255.539 60.4972 256.078 60.716 256.64 60.716C257.202 60.716 257.741 60.4972 258.144 60.1062C258.547 59.7151 258.782 59.1824 258.799 58.621C258.816 58.0597 258.614 57.5138 258.235 57.0992C257.856 56.6845 257.331 56.4337 256.77 56.3999H256.76ZM256.5 60.3999C256.001 60.3999 255.523 60.2018 255.171 59.8493C254.818 59.4967 254.62 59.0185 254.62 58.5199C254.62 58.0213 254.818 57.5431 255.171 57.1905C255.523 56.838 256.001 56.6399 256.5 56.6399C256.583 56.6301 256.667 56.6301 256.75 56.6399C257.237 56.6849 257.686 56.9185 258.003 57.2908C258.319 57.6631 258.477 58.1445 258.443 58.632C258.409 59.1195 258.186 59.5743 257.821 59.8991C257.456 60.2239 256.978 60.3929 256.49 60.3699L256.5 60.3999Z" fill="#125BC9"/>
<path d="M256.75 15.25C257.302 15.25 257.75 14.8023 257.75 14.25C257.75 13.6977 257.302 13.25 256.75 13.25C256.198 13.25 255.75 13.6977 255.75 14.25C255.75 14.8023 256.198 15.25 256.75 15.25Z" fill="white"/>
<path d="M256.76 13.1201H256.52C256.27 13.1787 256.046 13.3203 255.887 13.5218C255.727 13.7233 255.64 13.9729 255.64 14.2301C255.64 14.4873 255.727 14.7369 255.887 14.9384C256.046 15.1399 256.27 15.2815 256.52 15.3401H256.76C257.06 15.3401 257.347 15.221 257.559 15.0091C257.771 14.7972 257.89 14.5098 257.89 14.2101C257.89 13.9104 257.771 13.623 257.559 13.411C257.347 13.1991 257.06 13.0801 256.76 13.0801V13.1201ZM256.76 15.1201C256.681 15.1345 256.599 15.1345 256.52 15.1201C256.338 15.0706 256.177 14.9626 256.062 14.8126C255.947 14.6625 255.885 14.4789 255.885 14.2901C255.885 14.1012 255.947 13.9176 256.062 13.7676C256.177 13.6176 256.338 13.5095 256.52 13.4601C256.599 13.4456 256.681 13.4456 256.76 13.4601C256.991 13.4601 257.212 13.5517 257.375 13.7149C257.538 13.8781 257.63 14.0993 257.63 14.3301C257.63 14.5608 257.538 14.7821 257.375 14.9453C257.212 15.1084 256.991 15.2001 256.76 15.2001V15.1201Z" fill="#125BC9"/>
<path d="M256.5 37.5C257.052 37.5 257.5 37.0523 257.5 36.5C257.5 35.9477 257.052 35.5 256.5 35.5C255.948 35.5 255.5 35.9477 255.5 36.5C255.5 37.0523 255.948 37.5 256.5 37.5Z" fill="white"/>
<path d="M256.76 35.4099C256.677 35.3995 256.593 35.3995 256.51 35.4099C256.213 35.4099 255.928 35.5279 255.718 35.738C255.508 35.948 255.39 36.2329 255.39 36.5299C255.39 36.827 255.508 37.1119 255.718 37.3219C255.928 37.5319 256.213 37.6499 256.51 37.6499C256.593 37.6604 256.677 37.6604 256.76 37.6499C257.006 37.5919 257.224 37.4528 257.381 37.2549C257.537 37.0571 257.623 36.8122 257.623 36.5599C257.623 36.3077 257.537 36.0628 257.381 35.865C257.224 35.6671 257.006 35.5279 256.76 35.4699V35.4099ZM256.76 37.3399C256.677 37.3504 256.593 37.3504 256.51 37.3399C256.394 37.3399 256.28 37.3172 256.173 37.273C256.066 37.2287 255.969 37.1639 255.888 37.0822C255.806 37.0005 255.741 36.9035 255.697 36.7967C255.653 36.6899 255.63 36.5755 255.63 36.4599C255.63 36.3444 255.653 36.2299 255.697 36.1232C255.741 36.0164 255.806 35.9194 255.888 35.8377C255.969 35.756 256.066 35.6912 256.173 35.6469C256.28 35.6027 256.394 35.5799 256.51 35.5799C256.596 35.5812 256.68 35.5981 256.76 35.6299C256.94 35.6821 257.097 35.7913 257.209 35.9411C257.321 36.0909 257.381 36.273 257.38 36.4599C257.389 36.6546 257.332 36.8465 257.22 37.0058C257.108 37.1651 256.946 37.2826 256.76 37.3399Z" fill="#125BC9"/>
<path d="M217.74 127.5C218.375 127.5 218.89 126.985 218.89 126.35C218.89 125.715 218.375 125.2 217.74 125.2C217.105 125.2 216.59 125.715 216.59 126.35C216.59 126.985 217.105 127.5 217.74 127.5Z" fill="#293241"/>
<path d="M222.74 113.5C223.375 113.5 223.89 112.985 223.89 112.35C223.89 111.715 223.375 111.2 222.74 111.2C222.105 111.2 221.59 111.715 221.59 112.35C221.59 112.985 222.105 113.5 222.74 113.5Z" fill="#293241"/>
<path d="M220.74 120.5C221.375 120.5 221.89 119.985 221.89 119.35C221.89 118.715 221.375 118.2 220.74 118.2C220.105 118.2 219.59 118.715 219.59 119.35C219.59 119.985 220.105 120.5 220.74 120.5Z" fill="#293241"/>
<path d="M35.74 165.5C36.3751 165.5 36.89 164.985 36.89 164.35C36.89 163.715 36.3751 163.2 35.74 163.2C35.1048 163.2 34.59 163.715 34.59 164.35C34.59 164.985 35.1048 165.5 35.74 165.5Z" fill="#EE6C4D"/>
<path d="M42.74 165.5C43.3751 165.5 43.89 164.985 43.89 164.35C43.89 163.715 43.3751 163.2 42.74 163.2C42.1048 163.2 41.59 163.715 41.59 164.35C41.59 164.985 42.1048 165.5 42.74 165.5Z" fill="#125BC9"/>
<path d="M48.74 165.5C49.3751 165.5 49.89 164.985 49.89 164.35C49.89 163.715 49.3751 163.2 48.74 163.2C48.1048 163.2 47.59 163.715 47.59 164.35C47.59 164.985 48.1048 165.5 48.74 165.5Z" fill="#16A3B9"/>
<g opacity="0.22">
<path opacity="0.22" d="M286.5 97.49H239C238.968 97.49 238.938 97.5026 238.915 97.5251C238.893 97.5476 238.88 97.5782 238.88 97.61C238.879 97.6266 238.881 97.6433 238.886 97.659C238.891 97.6747 238.9 97.6892 238.911 97.7014C238.923 97.7136 238.936 97.7234 238.952 97.73C238.967 97.7366 238.983 97.74 239 97.74H286.5V97.49Z" fill="#125BC9"/>
</g>
<path d="M271 98.5C271.552 98.5 272 98.0523 272 97.5C272 96.9477 271.552 96.5 271 96.5C270.448 96.5 270 96.9477 270 97.5C270 98.0523 270.448 98.5 271 98.5Z" fill="white"/>
<path d="M271 96.3799C270.705 96.3799 270.421 96.4965 270.212 96.7044C270.002 96.9123 269.883 97.1946 269.88 97.4899C269.875 97.5698 269.875 97.65 269.88 97.7299C269.938 97.9779 270.079 98.1988 270.278 98.357C270.478 98.5152 270.725 98.6012 270.98 98.6012C271.235 98.6012 271.482 98.5152 271.682 98.357C271.881 98.1988 272.022 97.9779 272.08 97.7299C272.085 97.65 272.085 97.5698 272.08 97.4899C272.078 97.2014 271.964 96.9249 271.763 96.7181C271.562 96.5113 271.288 96.3902 271 96.3799ZM271.88 97.4999C271.894 97.5792 271.894 97.6605 271.88 97.7399C271.83 97.9246 271.721 98.0877 271.569 98.204C271.417 98.3204 271.231 98.3834 271.04 98.3834C270.849 98.3834 270.663 98.3204 270.511 98.204C270.359 98.0877 270.25 97.9246 270.2 97.7399C270.186 97.6605 270.186 97.5792 270.2 97.4999C270.2 97.2665 270.293 97.0427 270.458 96.8776C270.623 96.7126 270.847 96.6199 271.08 96.6199C271.313 96.6199 271.537 96.7126 271.702 96.8776C271.867 97.0427 271.96 97.2665 271.96 97.4999H271.88Z" fill="#125BC9"/>
<path d="M239 99.5C240.105 99.5 241 98.6046 241 97.5C241 96.3954 240.105 95.5 239 95.5C237.895 95.5 237 96.3954 237 97.5C237 98.6046 237.895 99.5 239 99.5Z" fill="white"/>
<path d="M239 95.3799C238.591 95.3806 238.191 95.4995 237.848 95.7224C237.505 95.9452 237.234 96.2625 237.068 96.6359C236.901 97.0093 236.846 97.4229 236.909 97.8269C236.972 98.2309 237.151 98.6081 237.423 98.9129C237.696 99.2177 238.051 99.4372 238.445 99.545C238.84 99.6527 239.257 99.6441 239.646 99.5201C240.036 99.3961 240.382 99.1621 240.641 98.8462C240.901 98.5304 241.064 98.1462 241.11 97.7399C241.115 97.66 241.115 97.5798 241.11 97.4999C241.11 96.9394 240.888 96.4016 240.493 96.0043C240.097 95.6071 239.561 95.3825 239 95.3799ZM240.88 97.4999C240.89 97.5796 240.89 97.6602 240.88 97.7399C240.823 98.1967 240.6 98.6166 240.253 98.9192C239.907 99.2218 239.46 99.3858 239 99.3799C238.629 99.3799 238.266 99.2699 237.957 99.0637C237.648 98.8576 237.407 98.5646 237.264 98.2216C237.121 97.8787 237.084 97.5012 237.155 97.1368C237.227 96.7724 237.405 96.4374 237.667 96.1741C237.929 95.9107 238.263 95.7309 238.627 95.6572C238.991 95.5836 239.369 95.6194 239.713 95.7601C240.056 95.9009 240.351 96.1403 240.558 96.4482C240.766 96.756 240.878 97.1185 240.88 97.4899V97.4999Z" fill="#125BC9"/>
<g opacity="0.22">
<path opacity="0.22" d="M47.75 29.7399H-4.90248e-06C-0.0166415 29.74 -0.0331084 29.7366 -0.0483599 29.7299C-0.0636114 29.7233 -0.0773144 29.7135 -0.0885988 29.7013C-0.0998831 29.6891 -0.108502 29.6747 -0.113909 29.6589C-0.119315 29.6432 -0.121391 29.6265 -0.120005 29.6099C-0.120005 29.5781 -0.107362 29.5476 -0.0848577 29.5251C-0.0623534 29.5026 -0.0318309 29.4899 -4.90248e-06 29.4899H47.75C47.7666 29.4885 47.7833 29.4906 47.799 29.496C47.8147 29.5014 47.8292 29.51 47.8414 29.5213C47.8536 29.5326 47.8634 29.5463 47.87 29.5616C47.8767 29.5768 47.8801 29.5933 47.88 29.6099C47.88 29.6444 47.8663 29.6775 47.8419 29.7018C47.8175 29.7262 47.7845 29.7399 47.75 29.7399Z" fill="#125BC9"/>
</g>
<path d="M16.5 30.5C17.0523 30.5 17.5 30.0523 17.5 29.5C17.5 28.9477 17.0523 28.5 16.5 28.5C15.9477 28.5 15.5 28.9477 15.5 29.5C15.5 30.0523 15.9477 30.5 16.5 30.5Z" fill="white"/>
<path d="M16.5 28.3799C16.2047 28.3799 15.9213 28.4965 15.7116 28.7044C15.5018 28.9123 15.3826 29.1946 15.38 29.4899C15.375 29.5698 15.375 29.65 15.38 29.7299C15.4383 29.9778 15.5787 30.1988 15.7783 30.357C15.978 30.5152 16.2253 30.6012 16.48 30.6012C16.7347 30.6012 16.982 30.5152 17.1816 30.357C17.3813 30.1988 17.5217 29.9778 17.58 29.7299C17.5849 29.65 17.5849 29.5698 17.58 29.4899C17.5776 29.2014 17.464 28.9249 17.2628 28.7181C17.0616 28.5113 16.7883 28.3902 16.5 28.3799ZM17.38 29.4999C17.3944 29.5792 17.3944 29.6605 17.38 29.7399C17.3302 29.9246 17.2209 30.0877 17.0691 30.204C16.9172 30.3203 16.7313 30.3834 16.54 30.3834C16.3487 30.3834 16.1628 30.3203 16.0109 30.204C15.8591 30.0877 15.7498 29.9246 15.7 29.7399C15.6856 29.6605 15.6856 29.5792 15.7 29.4999C15.7 29.2665 15.7927 29.0427 15.9577 28.8776C16.1228 28.7126 16.3466 28.6199 16.58 28.6199C16.8134 28.6199 17.0372 28.7126 17.2022 28.8776C17.3673 29.0427 17.46 29.2665 17.46 29.4999H17.38Z" fill="#125BC9"/>
<path d="M47.5 31.5C48.6046 31.5 49.5 30.6046 49.5 29.5C49.5 28.3954 48.6046 27.5 47.5 27.5C46.3954 27.5 45.5 28.3954 45.5 29.5C45.5 30.6046 46.3954 31.5 47.5 31.5Z" fill="white"/>
<path d="M47.5 27.3801C46.9395 27.3801 46.4018 27.6021 46.0045 27.9975C45.6072 28.3929 45.3827 28.9296 45.38 29.4901C45.375 29.57 45.375 29.6502 45.38 29.7301C45.4263 30.1364 45.5891 30.5206 45.8488 30.8365C46.1085 31.1523 46.454 31.3864 46.8436 31.5103C47.2333 31.6343 47.6505 31.6429 48.0449 31.5352C48.4394 31.4275 48.7943 31.208 49.0668 30.9031C49.3394 30.5983 49.5179 30.2211 49.581 29.8171C49.6441 29.4131 49.589 28.9995 49.4223 28.6261C49.2557 28.2527 48.9846 27.9354 48.6417 27.7126C48.2989 27.4898 47.8989 27.3708 47.49 27.3701L47.5 27.3801ZM47.5 31.3801C47.0449 31.3787 46.6059 31.2114 46.2653 30.9094C45.9248 30.6075 45.706 30.1918 45.65 29.7401C45.6404 29.6604 45.6404 29.5798 45.65 29.5001C45.652 29.1287 45.7639 28.7662 45.9717 28.4584C46.1795 28.1505 46.4738 27.9111 46.8175 27.7704C47.1612 27.6296 47.5389 27.5938 47.9029 27.6675C48.2669 27.7411 48.6009 27.921 48.8629 28.1843C49.1248 28.4476 49.3029 28.7826 49.3746 29.147C49.4463 29.5114 49.4085 29.8889 49.2659 30.2319C49.1233 30.5748 48.8824 30.8678 48.5734 31.074C48.2645 31.2801 47.9014 31.3901 47.53 31.3901L47.5 31.3801Z" fill="#125BC9"/>
<g opacity="0.22">
<path opacity="0.22" d="M25.5 77.74H-4.90248e-06C-0.0166415 77.74 -0.0331084 77.7366 -0.0483599 77.73C-0.0636114 77.7234 -0.0773144 77.7136 -0.0885988 77.7014C-0.0998831 77.6892 -0.108502 77.6747 -0.113909 77.659C-0.119315 77.6433 -0.121391 77.6266 -0.120005 77.61C-0.120005 77.5782 -0.107362 77.5476 -0.0848577 77.5251C-0.0623534 77.5026 -0.0318309 77.49 -4.90248e-06 77.49H25.5C25.5318 77.49 25.5623 77.5026 25.5848 77.5251C25.6074 77.5476 25.62 77.5782 25.62 77.61C25.6214 77.6266 25.6193 77.6433 25.6139 77.659C25.6085 77.6747 25.5999 77.6892 25.5886 77.7014C25.5773 77.7136 25.5636 77.7234 25.5483 77.73C25.5331 77.7366 25.5166 77.74 25.5 77.74Z" fill="#125BC9"/>
</g>
<path d="M25.5 78.5C26.0523 78.5 26.5 78.0523 26.5 77.5C26.5 76.9477 26.0523 76.5 25.5 76.5C24.9477 76.5 24.5 76.9477 24.5 77.5C24.5 78.0523 24.9477 78.5 25.5 78.5Z" fill="#125BC9"/>
<path d="M79 46.5C79.8284 46.5 80.5 45.8284 80.5 45C80.5 44.1716 79.8284 43.5 79 43.5C78.1716 43.5 77.5 44.1716 77.5 45C77.5 45.8284 78.1716 46.5 79 46.5Z" fill="#125BC9"/>
<path d="M21.5 135.5C22.0523 135.5 22.5 135.052 22.5 134.5C22.5 133.948 22.0523 133.5 21.5 133.5C20.9477 133.5 20.5 133.948 20.5 134.5C20.5 135.052 20.9477 135.5 21.5 135.5Z" fill="#125BC9"/>
<g opacity="0.22">
<path opacity="0.22" d="M21.76 170H-4.90248e-06C-0.0318309 170 -0.0623534 169.987 -0.0848577 169.965C-0.107362 169.942 -0.120005 169.912 -0.120005 169.88C-0.121391 169.864 -0.119315 169.847 -0.113909 169.831C-0.108502 169.815 -0.0998831 169.801 -0.0885988 169.789C-0.0773144 169.777 -0.0636114 169.767 -0.0483599 169.76C-0.0331084 169.753 -0.0166415 169.75 -4.90248e-06 169.75H21.51V134.75C21.5086 134.734 21.5107 134.717 21.5161 134.701C21.5215 134.685 21.5301 134.671 21.5414 134.659C21.5527 134.646 21.5664 134.637 21.5816 134.63C21.5969 134.623 21.6134 134.62 21.63 134.62C21.6645 134.62 21.6975 134.634 21.7219 134.658C21.7463 134.683 21.76 134.716 21.76 134.75V170Z" fill="#125BC9"/>
</g>
<path d="M268 134.5C268.552 134.5 269 134.052 269 133.5C269 132.948 268.552 132.5 268 132.5C267.448 132.5 267 132.948 267 133.5C267 134.052 267.448 134.5 268 134.5Z" fill="#125BC9"/>
<g opacity="0.22">
<path opacity="0.22" d="M286.5 169H267.74V133.75C267.74 133.716 267.754 133.683 267.778 133.658C267.802 133.634 267.836 133.62 267.87 133.62C267.887 133.62 267.903 133.623 267.918 133.63C267.934 133.637 267.947 133.646 267.959 133.659C267.97 133.671 267.979 133.685 267.984 133.701C267.989 133.717 267.991 133.734 267.99 133.75V168.75H286.5C286.517 168.75 286.533 168.753 286.548 168.76C286.564 168.767 286.577 168.777 286.589 168.789C286.6 168.801 286.608 168.815 286.614 168.831C286.619 168.847 286.621 168.864 286.62 168.88C286.62 168.912 286.607 168.942 286.585 168.965C286.562 168.987 286.532 169 286.5 169Z" fill="#125BC9"/>
</g>
<path d="M111.29 123.63H81.71C80.4894 123.63 79.5 124.619 79.5 125.84V125.92C79.5 127.14 80.4894 128.13 81.71 128.13H111.29C112.511 128.13 113.5 127.14 113.5 125.92V125.84C113.5 124.619 112.511 123.63 111.29 123.63Z" fill="#EE6C4D"/>
<path d="M66.13 88.5H51.87C51.1134 88.5 50.5 89.1134 50.5 89.87V89.88C50.5 90.6366 51.1134 91.25 51.87 91.25H66.13C66.8866 91.25 67.5 90.6366 67.5 89.88V89.87C67.5 89.1134 66.8866 88.5 66.13 88.5Z" fill="#16A3B9"/>
<path d="M111 127.37C111.828 127.37 112.5 126.699 112.5 125.87C112.5 125.042 111.828 124.37 111 124.37C110.172 124.37 109.5 125.042 109.5 125.87C109.5 126.699 110.172 127.37 111 127.37Z" fill="white"/>
<path d="M245.29 146.63H228.71C227.489 146.63 226.5 147.619 226.5 148.84V148.92C226.5 150.14 227.489 151.13 228.71 151.13H245.29C246.511 151.13 247.5 150.14 247.5 148.92V148.84C247.5 147.619 246.511 146.63 245.29 146.63Z" fill="#125BC9"/>
<path d="M245 150.37C245.828 150.37 246.5 149.699 246.5 148.87C246.5 148.042 245.828 147.37 245 147.37C244.172 147.37 243.5 148.042 243.5 148.87C243.5 149.699 244.172 150.37 245 150.37Z" fill="white"/>
<path d="M232.75 56.1299H217.25C215.179 56.1299 213.5 57.8088 213.5 59.8799C213.5 61.951 215.179 63.6299 217.25 63.6299H232.75C234.821 63.6299 236.5 61.951 236.5 59.8799C236.5 57.8088 234.821 56.1299 232.75 56.1299Z" fill="#293241"/>
<path d="M232.33 62.3701C233.711 62.3701 234.83 61.2508 234.83 59.8701C234.83 58.4894 233.711 57.3701 232.33 57.3701C230.949 57.3701 229.83 58.4894 229.83 59.8701C229.83 61.2508 230.949 62.3701 232.33 62.3701Z" fill="white"/>
<path d="M253.59 136.13H230C229.724 136.13 229.5 136.354 229.5 136.63C229.5 136.906 229.724 137.13 230 137.13H253.59C253.866 137.13 254.09 136.906 254.09 136.63C254.09 136.354 253.866 136.13 253.59 136.13Z" fill="#F9ACA2"/>
<path d="M229.5 137.63C230.052 137.63 230.5 137.182 230.5 136.63C230.5 136.078 230.052 135.63 229.5 135.63C228.948 135.63 228.5 136.078 228.5 136.63C228.5 137.182 228.948 137.63 229.5 137.63Z" fill="#EE6C4D"/>
<path d="M238.5 137.13C238.776 137.13 239 136.906 239 136.63C239 136.354 238.776 136.13 238.5 136.13C238.224 136.13 238 136.354 238 136.63C238 136.906 238.224 137.13 238.5 137.13Z" fill="#EE6C4D"/>
<path d="M248.5 137.13C248.776 137.13 249 136.906 249 136.63C249 136.354 248.776 136.13 248.5 136.13C248.224 136.13 248 136.354 248 136.63C248 136.906 248.224 137.13 248.5 137.13Z" fill="#BF3B21"/>
<g opacity="0.5">
<path opacity="0.5" d="M200.39 146.59C197.209 146.723 194.031 146.276 191.01 145.27C184.16 143.14 179.27 139.27 180.09 136.63C180.91 133.99 187.09 133.63 193.99 135.73C194.93 136.02 195.84 136.35 196.7 136.73C197.58 138.963 198.433 141.217 199.26 143.49C199.64 144.5 200 145.54 200.39 146.59Z" fill="#293241"/>
</g>
<path d="M206.67 135.69L205.82 137.89C205.643 138.215 205.389 138.492 205.081 138.696C204.772 138.9 204.418 139.025 204.05 139.06H203.93C201.836 139.325 199.711 139.185 197.67 138.65H197.56L196.82 138.48H196.72C195.141 138.086 193.589 137.595 192.07 137.01C187.79 135.36 184.29 133.24 182.48 131.37L182.4 131.28C182.26 131.13 182.12 130.97 182 130.82L181.92 130.73C181.816 130.596 181.719 130.455 181.63 130.31C181.603 130.272 181.58 130.232 181.56 130.19C181.472 130.046 181.395 129.896 181.33 129.74L181.27 129.59C181.141 129.228 181.141 128.832 181.27 128.47L182.12 126.27C182.12 126.27 182.12 126.17 182.12 126.12C182.93 124.01 189.12 124.42 195.88 127.03C202.64 129.64 207.51 133.46 206.7 135.56C206.693 135.604 206.683 135.647 206.67 135.69Z" fill="white"/>
<path d="M205.68 132.67L205.51 132.49C205.114 132.09 204.693 131.716 204.25 131.37C201.714 129.487 198.918 127.982 195.95 126.9C189 124.22 182.88 123.85 182.04 126.05L181.15 128.37C181.005 128.76 181.005 129.19 181.15 129.58C181.15 129.58 181.15 129.66 181.15 129.7C181.22 129.858 181.3 130.012 181.39 130.16C181.39 130.16 181.39 130.24 181.46 130.29C181.53 130.34 181.66 130.57 181.77 130.72L181.85 130.81C181.978 130.977 182.115 131.137 182.26 131.29L182.33 131.36C183.504 132.531 184.829 133.54 186.27 134.36C188.087 135.424 189.991 136.334 191.96 137.08C193.488 137.673 195.051 138.171 196.64 138.57H196.73L197.43 138.73H197.48H197.58C198.464 138.929 199.359 139.08 200.26 139.18H200.56C201.11 139.23 201.64 139.26 202.12 139.26C202.713 139.267 203.306 139.216 203.89 139.11H204.01C204.4 139.076 204.776 138.943 205.101 138.724C205.426 138.506 205.691 138.208 205.87 137.86L206.76 135.55C207.15 134.81 206.74 133.8 205.68 132.67ZM206.41 136.03L206.32 136.27L205.72 137.84C205.53 138.36 204.98 138.71 204.11 138.92H204.04H203.92C202.899 139.088 201.859 139.115 200.83 139H200.53C199.589 138.896 198.654 138.739 197.73 138.53H197.65L197.44 138.48L196.93 138.36H196.87C195.294 137.966 193.745 137.475 192.23 136.89C190.416 136.194 188.655 135.369 186.96 134.42C185.406 133.568 183.973 132.512 182.7 131.28V131.23L182.35 130.82L182.3 130.77V130.71C182.21 130.6 182.13 130.49 182.05 130.37C182.039 130.343 182.022 130.319 182 130.3C182.003 130.273 182.003 130.247 182 130.22C181.937 130.103 181.881 129.983 181.83 129.86V129.76C181.822 129.707 181.822 129.653 181.83 129.6C181.734 129.318 181.734 129.012 181.83 128.73L182.43 127.16L182.52 126.92L182.63 126.66C182.639 126.578 182.66 126.497 182.69 126.42C182.731 126.312 182.788 126.211 182.86 126.12L182.98 125.98C183.239 125.724 183.559 125.538 183.91 125.44C184.049 125.387 184.193 125.347 184.34 125.32L184.89 125.22C185.085 125.189 185.282 125.169 185.48 125.16H186.18C187.288 125.174 188.392 125.284 189.48 125.49C189.89 125.56 190.31 125.64 190.74 125.74C191.17 125.84 191.61 125.94 192.06 126.06L193.43 126.45C194.36 126.73 195.31 127.06 196.28 127.45C199.223 128.525 201.995 130.021 204.51 131.89C204.959 132.237 205.383 132.614 205.78 133.02L205.96 133.2C206.597 133.767 207.008 134.545 207.12 135.39C207.119 135.537 207.092 135.682 207.04 135.82C207.021 135.872 206.997 135.922 206.97 135.97L206.91 136.09L206.81 136.34L206.41 136.03Z" fill="#125BC9"/>
<path d="M183.05 126.61L181.64 130.28C181.613 130.242 181.59 130.202 181.57 130.16L182.95 126.57L183.05 126.61Z" fill="#B2B6BF"/>
<path d="M183.27 127.53L182 130.79L181.92 130.7L183.16 127.5L183.27 127.53Z" fill="#B2B6BF"/>
<path d="M183.86 127.76L182.49 131.34L182.41 131.25L183.77 127.73L183.86 127.76Z" fill="#B2B6BF"/>
<path d="M198.75 133.49L196.83 138.49H196.73L198.65 133.49H198.75Z" fill="#B2B6BF"/>
<path d="M182.77 126L181.34 129.71L181.28 129.56L182.67 125.96L182.77 126Z" fill="#B2B6BF"/>
<path d="M199.55 133.79L197.68 138.67H197.57L199.45 133.77L199.55 133.79Z" fill="#B2B6BF"/>
<path d="M206 133.93L204 139.06H203.88L205.88 133.87L206 133.93Z" fill="#B2B6BF"/>
<path d="M206.733 135.537C207.541 133.434 202.692 129.614 195.903 127.005C189.113 124.396 182.954 123.986 182.145 126.089C181.337 128.193 186.186 132.013 192.976 134.622C199.765 137.231 205.924 137.641 206.733 135.537Z" fill="white"/>
<path d="M205.68 132.67L205.51 132.49C205.114 132.09 204.693 131.716 204.25 131.37C201.714 129.487 198.918 127.982 195.95 126.9C189 124.22 182.88 123.85 182.04 126.05C181.975 126.233 181.944 126.426 181.95 126.62C181.94 126.71 181.94 126.8 181.95 126.89C181.983 127.052 182.033 127.209 182.1 127.36C182.111 127.413 182.131 127.464 182.16 127.51C182.225 127.659 182.302 127.803 182.39 127.94L182.46 128.05C182.554 128.194 182.657 128.331 182.77 128.46C182.786 128.498 182.81 128.532 182.84 128.56C182.965 128.717 183.098 128.868 183.24 129.01L183.32 129.09C185.14 130.97 188.61 133.09 192.92 134.72C194.437 135.31 195.99 135.801 197.57 136.19H197.67C197.92 136.26 198.17 136.31 198.41 136.36C198.443 136.369 198.477 136.369 198.51 136.36C199.68 136.634 200.871 136.815 202.07 136.9H202.19H202.49H203.08C203.646 136.904 204.212 136.858 204.77 136.76C204.813 136.769 204.857 136.769 204.9 136.76C205.139 136.722 205.374 136.658 205.6 136.57C205.851 136.478 206.087 136.35 206.3 136.19C206.376 136.141 206.443 136.08 206.5 136.01C206.635 135.88 206.74 135.723 206.81 135.55C207.15 134.81 206.74 133.8 205.68 132.67ZM206.62 135.5C206.601 135.552 206.577 135.602 206.55 135.65C206.368 135.896 206.139 136.104 205.877 136.262C205.614 136.42 205.323 136.525 205.02 136.57H204.9C204.176 136.713 203.437 136.766 202.7 136.73H202.11C200.935 136.643 199.769 136.469 198.62 136.21H198.51L197.78 136.04H197.67C196.094 135.643 194.545 135.149 193.03 134.56C188.72 132.9 185.2 130.77 183.43 128.92L183.36 128.84C183.21 128.68 183.08 128.53 182.96 128.38C182.932 128.35 182.909 128.316 182.89 128.28C182.779 128.145 182.679 128.001 182.59 127.85C182.563 127.812 182.54 127.772 182.52 127.73C182.436 127.578 182.363 127.421 182.3 127.26C182.3 127.2 182.3 127.14 182.25 127.09C182.201 126.873 182.201 126.647 182.25 126.43C182.259 126.348 182.28 126.267 182.31 126.19C182.351 126.082 182.408 125.981 182.48 125.89L182.6 125.75C182.859 125.494 183.179 125.308 183.53 125.21C183.669 125.157 183.813 125.117 183.96 125.09C184.141 125.044 184.325 125.011 184.51 124.99C184.705 124.959 184.902 124.939 185.1 124.93H185.8C186.908 124.944 188.012 125.054 189.1 125.26C189.51 125.33 189.93 125.41 190.36 125.51C190.79 125.61 191.23 125.71 191.68 125.83L193.05 126.22C193.98 126.5 194.93 126.83 195.9 127.22C198.843 128.295 201.615 129.791 204.13 131.66C204.579 132.007 205.003 132.384 205.4 132.79L205.58 132.97C206.216 133.537 206.628 134.315 206.74 135.16C206.717 135.278 206.676 135.393 206.62 135.5Z" fill="#125BC9"/>
<g opacity="0.22">
<path opacity="0.22" d="M195.55 128C190.5 126.06 186.05 125.8 185.44 127.41C184.83 129.02 188.29 131.8 193.34 133.74C194.86 134.333 196.43 134.791 198.03 135.11H198.14L198.89 135.23H199C199.557 135.306 200.118 135.346 200.68 135.35C202.17 135.35 203.18 135 203.45 134.29C204.07 132.67 200.6 129.89 195.55 128ZM203.28 133.93C203.281 134.036 203.26 134.142 203.22 134.24C202.91 135.06 201.3 135.3 199.1 135.02H198.99L198.23 134.9H198.13C196.526 134.593 194.953 134.141 193.43 133.55C188.67 131.72 185.12 128.97 185.67 127.55C185.9 126.95 186.82 126.66 188.16 126.66C190.668 126.782 193.136 127.33 195.46 128.28C199.89 129.88 203.28 132.39 203.28 133.88V133.93Z" fill="#125BC9"/>
</g>
<g opacity="0.26">
<path opacity="0.26" d="M195.53 128C190.53 126.07 186.11 125.81 185.53 127.39C184.95 128.97 188.37 131.73 193.39 133.66C194.909 134.255 196.479 134.71 198.08 135.02H198.18L198.93 135.14H199C201.34 135.45 203 135.14 203.37 134.23C204 132.67 200.55 129.92 195.53 128ZM203.29 134.23C202.97 135.07 201.29 135.31 199.08 135.02H199L198.25 134.9H198.14C196.536 134.589 194.962 134.134 193.44 133.54C188.65 131.7 185.07 128.92 185.63 127.46C186.19 126 190.71 126.34 195.51 128.18C200.31 130.02 203.85 132.77 203.29 134.22V134.23Z" fill="#B2B6BF"/>
</g>
<path d="M260.46 74.3501L261.16 75.9301C261.236 76.1879 261.248 76.4605 261.193 76.7238C261.139 76.9871 261.021 77.2331 260.85 77.4401L260.8 77.5201C259.845 78.7282 258.671 79.7459 257.34 80.5201H257.28L256.81 80.8101H256.74C255.718 81.4208 254.659 81.9685 253.57 82.4501C251.101 83.6296 248.423 84.3093 245.69 84.4501H245.6H245.16H245.07L244.7 84.3801H244.61C244.489 84.3538 244.372 84.3135 244.26 84.2601H244.15C243.889 84.1473 243.676 83.9453 243.55 83.6901L242.86 82.1201C242.837 82.0901 242.82 82.0562 242.81 82.0201C242.14 80.5101 245.54 77.5401 250.4 75.3901C255.26 73.2401 259.74 72.7001 260.4 74.2101C260.428 74.2527 260.449 74.3002 260.46 74.3501Z" fill="white"/>
<path d="M261.28 75.8799L260.54 74.1999C260.19 73.4099 258.93 73.1099 256.97 73.3399C254.955 73.6319 252.988 74.1901 251.12 74.9999L250.64 75.2099L250.36 75.3299C249.298 75.8014 248.263 76.3322 247.26 76.9199L247 76.9999C246.09 77.5481 245.228 78.1702 244.42 78.8599C242.94 80.1599 242.32 81.2999 242.67 82.0799L243.41 83.7399C243.555 84.0258 243.796 84.2521 244.09 84.3799H244.18C244.296 84.4304 244.417 84.4705 244.54 84.4999H244.65L245.03 84.5699H245.12C245.276 84.5812 245.434 84.5812 245.59 84.5699H245.8C246.519 84.5593 247.235 84.4823 247.94 84.3399H248.17C249.378 84.1014 250.565 83.767 251.72 83.3399L252.21 83.1599L253.59 82.5899C254.696 82.1212 255.774 81.5904 256.82 80.9999H256.88L257.36 80.6999H257.42C258.768 79.9125 259.953 78.8737 260.91 77.6399V77.5599C261.114 77.337 261.255 77.0644 261.32 76.7695C261.385 76.4746 261.371 76.1678 261.28 75.8799ZM260.75 77.3799L260.7 77.4499C259.77 78.6589 258.615 79.6775 257.3 80.4499C257.16 80.5299 257.01 80.6199 256.85 80.7299C255.831 81.331 254.779 81.8751 253.7 82.3599L252.4 82.8999L251.91 83.0799C250.755 83.5062 249.568 83.8406 248.36 84.0799H248.13C247.386 84.2285 246.629 84.3022 245.87 84.2999H245.72C245.597 84.3102 245.473 84.3102 245.35 84.2999H245H244.73H244.63H244.53L244.29 84.2199H244.19L244.07 84.1499C243.896 84.058 243.759 83.91 243.68 83.7299L243.22 82.7299L243.13 82.5299L243.04 82.3199C243 82.2622 242.963 82.2021 242.93 82.1399C242.64 81.4799 243.25 80.4099 244.62 79.2099C245.39 78.5494 246.217 77.9572 247.09 77.4399C247.157 77.3874 247.231 77.3437 247.31 77.3099C248.322 76.6936 249.375 76.1457 250.46 75.6699L250.69 75.5699C250.843 75.498 251 75.4346 251.16 75.3799C253.017 74.5224 254.981 73.9203 257 73.5899C257.378 73.5411 257.759 73.5144 258.14 73.5099C259.31 73.5099 260.08 73.7899 260.31 74.2999V74.3899L260.36 74.5199L260.45 74.7299L260.56 74.9599L261.01 75.9599C261.077 76.1839 261.089 76.4207 261.046 76.6504C261.002 76.8801 260.904 77.096 260.76 77.2799L260.75 77.3799Z" fill="#125BC9"/>
<path d="M243.55 81.8601L244.71 84.4901H244.62L243.47 81.9201L243.55 81.8601Z" fill="#B2B6BF"/>
<path d="M244.14 82.23L245.14 84.56H245.05L244.05 82.26L244.14 82.23Z" fill="#B2B6BF"/>
<path d="M244.57 82L245.7 84.56H245.61L244.49 82.03L244.57 82Z" fill="#B2B6BF"/>
<path d="M255.23 77.31L256.82 80.88H256.75L255.16 77.3L255.23 77.31Z" fill="#B2B6BF"/>
<path d="M243.08 81.6899L244.27 84.3499H244.16L243 81.7199L243.08 81.6899Z" fill="#B2B6BF"/>
<path d="M255.8 77.05L257.35 80.55H257.29L255.73 77.04L255.8 77.05Z" fill="#B2B6BF"/>
<path d="M259.23 73.77L260.86 77.44L260.81 77.52L259.16 73.8L259.23 73.77Z" fill="#B2B6BF"/>
<path d="M252.828 80.8672C257.689 78.7091 261.087 75.7361 260.417 74.2268C259.746 72.7175 255.263 73.2435 250.402 75.4017C245.541 77.5598 242.143 80.5328 242.814 82.0421C243.484 83.5514 247.967 83.0254 252.828 80.8672Z" fill="white"/>
<path d="M260.54 74.1999C260.19 73.4099 258.93 73.1099 256.97 73.3399C254.955 73.6319 252.988 74.1901 251.12 74.9999L250.64 75.2099L250.36 75.3299C249.298 75.8014 248.263 76.3322 247.26 76.9199L247 76.9999C246.09 77.5481 245.228 78.1702 244.42 78.8599C242.94 80.1599 242.32 81.2999 242.67 82.0799C242.74 82.2359 242.846 82.373 242.98 82.4799C243.119 82.592 243.274 82.683 243.44 82.7499H243.54C243.648 82.7996 243.762 82.8333 243.88 82.8499H243.98C244.098 82.8812 244.218 82.9013 244.34 82.9099H244.44C244.58 82.9099 244.72 82.9099 244.87 82.9099H245.05C245.441 82.9092 245.832 82.8858 246.22 82.8399C246.71 82.7799 247.22 82.6999 247.76 82.5799L247.99 82.5199C249.193 82.2395 250.373 81.8684 251.52 81.4099L252 81.2199L252.83 80.8699C253.923 80.39 254.985 79.8423 256.01 79.2299H256.08L256.55 78.9399H256.61C257.354 78.4684 258.062 77.9437 258.73 77.3699C259.249 76.973 259.716 76.5128 260.12 75.9999C260.143 75.982 260.161 75.9576 260.17 75.9299C260.373 75.6476 260.519 75.3283 260.6 74.9899C260.615 74.9072 260.615 74.8226 260.6 74.7399C260.637 74.5581 260.616 74.3693 260.54 74.1999ZM260 75.6999C259.617 76.2742 259.152 76.7896 258.62 77.2299C257.969 77.7878 257.277 78.2959 256.55 78.7499H256.49L256.02 79.0499H255.95C254.93 79.6643 253.871 80.2122 252.78 80.6899L252.02 81.0099C251.864 81.0819 251.703 81.1453 251.54 81.1999C250.394 81.6937 249.21 82.095 248 82.3999L247.77 82.4599C247.23 82.5799 246.71 82.6599 246.23 82.7199C245.786 82.7754 245.338 82.7988 244.89 82.7899H244.79C244.647 82.8006 244.503 82.8006 244.36 82.7899H244.26L243.9 82.7199H243.79L243.44 82.5899L243.33 82.5099C243.222 82.4492 243.127 82.3676 243.05 82.2699C243.01 82.2122 242.973 82.1521 242.94 82.0899C242.65 81.4299 243.26 80.3599 244.63 79.1599C245.4 78.4994 246.227 77.9072 247.1 77.3899C247.167 77.3374 247.241 77.2937 247.32 77.2599C248.332 76.6436 249.385 76.0957 250.47 75.6199L250.7 75.5199C250.853 75.448 251.01 75.3846 251.17 75.3299C253.026 74.4905 254.987 73.9052 257 73.5899C257.378 73.5411 257.759 73.5144 258.14 73.5099C259.31 73.5099 260.08 73.7899 260.31 74.2999V74.3899C260.349 74.6039 260.343 74.8235 260.293 75.0352C260.243 75.2468 260.15 75.4459 260.02 75.6199C260.017 75.6473 260.01 75.6741 260 75.6999Z" fill="#125BC9"/>
<g opacity="0.22">
<path opacity="0.22" d="M258.1 75.28C257.85 74.69 256.92 74.47 255.49 74.63C254.034 74.8433 252.611 75.2467 251.26 75.83L250.78 76.03H250.69C249.545 76.5286 248.45 77.1346 247.42 77.84L247.21 77.99C245.65 79.13 244.81 80.26 245.14 80.99C245.35 81.46 245.99 81.68 246.92 81.68C247.176 81.6986 247.434 81.6986 247.69 81.68H247.93C249.144 81.4827 250.332 81.1472 251.47 80.68C251.63 80.63 251.78 80.56 251.95 80.49C252.12 80.42 252.35 80.33 252.55 80.24C253.641 79.7573 254.688 79.1818 255.68 78.52H255.75C255.906 78.4147 256.056 78.3012 256.2 78.18C256.2 78.18 256.2 78.18 256.26 78.18C256.459 78.0411 256.649 77.8909 256.83 77.73C257.91 76.7 258.36 75.86 258.1 75.28ZM256.66 77.46L256.16 77.87H256.1C255.953 77.9879 255.799 78.0981 255.64 78.2L255.58 78.25C254.591 78.9263 253.544 79.512 252.45 80C252.27 80.08 252.09 80.16 251.91 80.22C251.73 80.28 251.59 80.36 251.44 80.42C250.307 80.8924 249.122 81.2281 247.91 81.42H247.67C246.41 81.56 245.57 81.37 245.37 80.92C245.17 80.47 245.81 79.37 247.25 78.3L247.46 78.14C248.506 77.4115 249.621 76.7884 250.79 76.28L251.26 76.07C252.607 75.4863 254.026 75.0861 255.48 74.88C255.78 74.88 256.06 74.88 256.31 74.88C257.13 74.88 257.68 75.07 257.84 75.43C258 75.79 257.64 76.6 256.66 77.46Z" fill="#125BC9"/>
</g>
<g opacity="0.26">
<path opacity="0.26" d="M258 75.31C257.52 74.23 254.6 74.5 251.24 75.9C251.09 75.96 250.93 76.02 250.77 76.1H250.69C249.545 76.6269 248.453 77.2632 247.43 78L247.22 78.16C245.71 79.26 244.9 80.34 245.22 81.05C245.54 81.76 246.39 81.81 247.69 81.66H247.93C249.14 81.4578 250.324 81.1225 251.46 80.66C251.623 80.6019 251.784 80.5352 251.94 80.46L252.52 80.22C253.615 79.7407 254.666 79.1651 255.66 78.5H255.72L256.18 78.17H256.24C257.61 77 258.32 76 258 75.31ZM256.16 77.92H256.1L255.64 78.25H255.58C254.589 78.9253 253.538 79.5078 252.44 79.99L251.89 80.22L251.42 80.41C250.283 80.8816 249.095 81.2172 247.88 81.41H247.64C246.38 81.55 245.48 81.41 245.26 80.88C245.04 80.35 245.78 79.22 247.26 78.16L247.47 78.01C248.513 77.2805 249.625 76.6542 250.79 76.14L251.27 75.94C254.51 74.6 257.49 74.28 257.93 75.27C258.22 75.94 257.5 76.91 256.19 77.92H256.16Z" fill="#B2B6BF"/>
</g>
<path d="M62.46 131.35L63.16 132.93C63.236 133.188 63.2475 133.46 63.1934 133.724C63.1394 133.987 63.0214 134.233 62.85 134.44V134.52C61.895 135.728 60.7212 136.746 59.39 137.52H59.33L58.86 137.81H58.79C57.7677 138.421 56.7091 138.969 55.62 139.45C53.1508 140.63 50.4728 141.309 47.74 141.45H47.65H47.21H47.12L46.75 141.38H46.66C46.5391 141.354 46.4216 141.314 46.31 141.26H46.2C45.9387 141.147 45.7261 140.945 45.6 140.69L44.91 139.12C44.9046 139.087 44.9046 139.053 44.91 139.02C44.24 137.51 47.64 134.54 52.5 132.39C57.36 130.24 61.84 129.7 62.5 131.21C62.4949 131.259 62.4814 131.306 62.46 131.35Z" fill="white"/>
<path d="M63.28 132.88L62.54 131.2C62.19 130.41 60.93 130.11 58.97 130.34C57.2851 130.57 55.6335 131 54.05 131.62L53.82 131.71C53.34 131.89 52.82 132.09 52.36 132.31C51.9 132.53 51.15 132.87 50.57 133.18L50.12 133.42C48.8142 134.108 47.587 134.937 46.46 135.89C44.98 137.19 44.36 138.33 44.71 139.11L45.45 140.77C45.5954 141.056 45.8358 141.282 46.13 141.41H46.22C46.3363 141.46 46.4567 141.501 46.58 141.53H46.69L47.07 141.6H47.16C47.3165 141.611 47.4735 141.611 47.63 141.6H47.84C49.7355 141.509 51.605 141.121 53.38 140.45L53.85 140.28C54.44 140.06 55.03 139.82 55.63 139.56C56.23 139.3 56.63 139.1 57.11 138.85L57.34 138.73C57.85 138.47 58.34 138.19 58.82 137.91H58.88L59.36 137.61H59.42C60.7683 136.822 61.953 135.784 62.91 134.55L62.96 134.47C63.14 134.252 63.2634 133.992 63.3192 133.715C63.375 133.438 63.3615 133.151 63.28 132.88ZM62.75 134.38V134.45C61.8198 135.659 60.6654 136.677 59.35 137.45C59.21 137.53 59.06 137.62 58.9 137.73C58.44 138.01 57.9 138.27 57.45 138.53L57.22 138.65C56.74 138.9 56.22 139.13 55.75 139.36C55.28 139.59 54.55 139.87 53.96 140.08L53.48 140.25C51.7457 140.915 49.9156 141.297 48.06 141.38H47.77C47.6469 141.39 47.5231 141.39 47.4 141.38H47H46.73H46.63H46.53L46.29 141.3L46.19 141.25L46.07 141.18C45.8963 141.088 45.7588 140.94 45.68 140.76L45.22 139.76L45.13 139.56L45.04 139.35C44.9997 139.292 44.963 139.232 44.93 139.17C44.64 138.51 45.25 137.44 46.62 136.24C47.7292 135.308 48.9324 134.493 50.21 133.81L50.66 133.57C51.24 133.27 51.84 132.98 52.46 132.7C52.95 132.48 53.46 132.28 53.91 132.1L54.14 132.01C55.6978 131.345 57.3293 130.868 59 130.59C59.3781 130.541 59.7588 130.514 60.14 130.51C61.31 130.51 62.08 130.79 62.31 131.3V131.39V131.52L62.4 131.73L62.51 131.96L62.96 132.96C63.0271 133.184 63.0394 133.421 62.9958 133.65C62.9523 133.88 62.8543 134.096 62.71 134.28L62.75 134.38Z" fill="#125BC9"/>
<path d="M45.55 138.86L46.71 141.49H46.62L45.47 138.92L45.55 138.86Z" fill="#B2B6BF"/>
<path d="M46.14 139.23L47.14 141.56H47.05L46.05 139.26L46.14 139.23Z" fill="#B2B6BF"/>
<path d="M46.57 139L47.7 141.56H47.61L46.49 139.03L46.57 139Z" fill="#B2B6BF"/>
<path d="M57.23 134.31L58.82 137.88H58.75L57.16 134.3L57.23 134.31Z" fill="#B2B6BF"/>
<path d="M45.08 138.69L46.27 141.35H46.16L45 138.72L45.08 138.69Z" fill="#B2B6BF"/>
<path d="M57.8 134.05L59.35 137.55H59.29L57.73 134.04L57.8 134.05Z" fill="#B2B6BF"/>
<path d="M61.23 130.77L62.86 134.44V134.52L61.21 130.8L61.23 130.77Z" fill="#B2B6BF"/>
<path d="M54.8316 137.878C59.6925 135.72 63.0899 132.747 62.4198 131.238C61.7497 129.728 57.2659 130.254 52.405 132.412C47.544 134.571 44.1467 137.544 44.8167 139.053C45.4868 140.562 49.9706 140.036 54.8316 137.878Z" fill="white"/>
<path d="M62.54 131.2C62.19 130.41 60.93 130.11 58.97 130.34C57.2851 130.57 55.6335 131 54.05 131.62L53.82 131.71C53.34 131.89 52.82 132.09 52.36 132.31C51.9 132.53 51.15 132.87 50.57 133.18L50.12 133.42C48.8142 134.108 47.587 134.937 46.46 135.89C44.98 137.19 44.36 138.33 44.71 139.11C44.7802 139.266 44.8864 139.403 45.02 139.51C45.1592 139.622 45.3142 139.713 45.48 139.78H45.58C45.6879 139.83 45.8024 139.863 45.92 139.88H46.02C46.1378 139.911 46.2584 139.931 46.38 139.94H46.48C46.62 139.94 46.76 139.94 46.91 139.94H47.09C47.481 139.939 47.8717 139.916 48.26 139.87C49.7246 139.675 51.1633 139.32 52.55 138.81L53.03 138.65C53.64 138.42 54.25 138.17 54.87 137.9C55.49 137.63 55.87 137.46 56.29 137.22C56.3715 137.19 56.4489 137.15 56.52 137.1C57.05 136.84 57.52 136.55 58.05 136.26H58.12L58.59 135.97H58.65C59.3936 135.498 60.1021 134.974 60.77 134.4C61.2764 133.991 61.7299 133.521 62.12 133C62.1431 132.982 62.1605 132.958 62.17 132.93C62.3732 132.648 62.5193 132.328 62.6 131.99C62.6146 131.907 62.6146 131.823 62.6 131.74C62.6368 131.558 62.6158 131.369 62.54 131.2ZM62 132.7C61.6167 133.274 61.1518 133.79 60.62 134.23C59.9691 134.788 59.2771 135.296 58.55 135.75H58.49L58.02 136.05H57.95C57.47 136.34 56.95 136.63 56.42 136.9L56.19 137.01C55.74 137.25 55.26 137.47 54.78 137.69C54.3 137.91 53.54 138.22 52.93 138.44L52.45 138.61C51.0859 139.091 49.6747 139.426 48.24 139.61C47.7956 139.665 47.3478 139.689 46.9 139.68H46.8C46.6569 139.691 46.5131 139.691 46.37 139.68H46.27L45.91 139.61H45.8L45.45 139.48L45.34 139.4C45.2317 139.339 45.1366 139.258 45.06 139.16C45.0197 139.102 44.983 139.042 44.95 138.98C44.66 138.32 45.27 137.25 46.64 136.05C47.7492 135.118 48.9524 134.303 50.23 133.62L50.68 133.38C51.26 133.08 51.86 132.79 52.48 132.51C52.97 132.29 53.48 132.09 53.93 131.91L54.16 131.82C55.7195 131.222 57.344 130.809 59 130.59C59.3781 130.541 59.7588 130.514 60.14 130.51C61.31 130.51 62.08 130.79 62.31 131.3V131.39C62.3489 131.604 62.3432 131.824 62.2933 132.035C62.2434 132.247 62.1504 132.446 62.02 132.62C62.0165 132.647 62.0098 132.674 62 132.7Z" fill="#125BC9"/>
<g opacity="0.22">
<path opacity="0.22" d="M60.1 132.28C59.85 131.69 58.92 131.47 57.49 131.63C56.4247 131.776 55.3785 132.037 54.37 132.41L54.14 132.49C53.66 132.66 53.14 132.85 52.69 133.07C52.0744 133.338 51.4735 133.638 50.89 133.97C50.74 134.05 50.59 134.13 50.45 134.22C48.11 135.61 46.74 137.12 47.14 138.03C47.35 138.5 47.99 138.72 48.92 138.72C50.0327 138.682 51.134 138.483 52.19 138.13L52.67 137.97C53.3088 137.759 53.9363 137.516 54.55 137.24C55.03 137.03 55.55 136.8 55.94 136.56L56.16 136.44C56.6849 136.165 57.1925 135.857 57.68 135.52H57.75C57.9059 135.415 58.0561 135.301 58.2 135.18C58.2 135.18 58.2 135.18 58.26 135.18C58.4585 135.041 58.6489 134.891 58.83 134.73C59.91 133.7 60.36 132.86 60.1 132.28ZM57.52 131.88C57.82 131.88 58.1 131.88 58.35 131.88C59.17 131.88 59.72 132.07 59.88 132.43C60.04 132.79 59.64 133.65 58.66 134.51L58.16 134.92H58.1C57.9525 135.038 57.799 135.148 57.64 135.25H57.58C57.0925 135.587 56.5849 135.895 56.06 136.17L55.84 136.3C55.4 136.53 54.93 136.76 54.45 136.97C53.79 137.26 53.16 137.51 52.57 137.71L52.09 137.87C49.52 138.65 47.68 138.59 47.37 137.87C47.06 137.15 48.24 135.77 50.54 134.39L50.98 134.14C51.53 133.83 52.13 133.52 52.79 133.23C53.27 133.02 53.79 132.82 54.23 132.66L54.47 132.57C55.4591 132.232 56.4816 132.001 57.52 131.88Z" fill="#125BC9"/>
</g>
<g opacity="0.26">
<path opacity="0.26" d="M60 132.31C59.57 131.31 57.24 131.45 54.37 132.46L54.13 132.55C53.66 132.72 53.18 132.91 52.69 133.13C52.2 133.35 51.44 133.72 50.88 134.03L50.44 134.28C48.15 135.64 46.8 137.12 47.19 138C47.58 138.88 49.58 138.86 52.13 138.07L52.62 137.91C53.2555 137.699 53.8797 137.456 54.49 137.18C54.98 136.96 55.44 136.74 55.88 136.5L56.11 136.38C56.6333 136.102 57.1407 135.795 57.63 135.46H57.69L58.15 135.13L58.21 135.08C59.61 134 60.32 133 60 132.31ZM58.16 134.92L58.1 134.97L57.64 135.3H57.58C57.0904 135.637 56.583 135.948 56.06 136.23C55.9868 136.279 55.9099 136.323 55.83 136.36C55.39 136.6 54.92 136.82 54.44 137.04C53.8292 137.311 53.2051 137.552 52.57 137.76C52.4 137.82 52.24 137.88 52.08 137.92C49.62 138.67 47.61 138.73 47.26 137.92C46.91 137.11 48.26 135.67 50.49 134.35L50.93 134.09C51.49 133.77 52.1 133.47 52.74 133.18C53.22 132.97 53.74 132.77 54.18 132.61C54.2542 132.574 54.3311 132.544 54.41 132.52C57.18 131.52 59.54 131.42 59.92 132.29C60.22 132.94 59.5 133.91 58.19 134.92H58.16Z" fill="#B2B6BF"/>
</g>
<g opacity="0.2">
<path opacity="0.2" d="M115.17 74.9299C117.43 75.9901 119.622 77.1925 121.73 78.5299C121.293 79.2195 120.79 79.8658 120.23 80.4599C119.685 81.0632 118.997 81.5205 118.23 81.7899C117.864 81.9202 117.468 81.9411 117.09 81.8499C116.628 81.7245 116.215 81.459 115.91 81.0899C114.937 79.6451 114.418 77.942 114.42 76.1999C114.42 75.6999 114.42 75.1999 114.42 74.6399C114.62 74.7099 114.88 74.8099 115.17 74.9299Z" fill="#293241"/>
</g>
<g opacity="0.2">
<path opacity="0.2" d="M125.39 69.43C125.29 69.87 125.17 70.3 125.05 70.72C122.043 67.8843 119.451 64.639 117.35 61.08C119.25 56.81 121.68 54.14 123.64 54.62C126.41 55.28 127.19 61.91 125.39 69.43Z" fill="#293241"/>
</g>
<path d="M115 50.94L117.29 51.49C117.635 51.622 117.943 51.8371 118.185 52.1161C118.428 52.3952 118.598 52.7297 118.68 53.09V53.21C119.21 55.2555 119.35 57.3829 119.09 59.48C119.095 59.5132 119.095 59.5469 119.09 59.58C119.09 59.83 119.09 60.08 119.02 60.34C119.02 60.34 119.02 60.41 119.02 60.44C118.83 62.0592 118.543 63.6655 118.16 65.25C117.1 69.7 115.45 73.45 113.83 75.49L113.76 75.58C113.63 75.75 113.49 75.9 113.36 76.04L113.27 76.13C113.15 76.26 113.02 76.37 112.9 76.48L112.79 76.56C112.659 76.6643 112.522 76.7611 112.38 76.85L112.23 76.92C111.898 77.1126 111.506 77.1766 111.13 77.1L108.84 76.55H108.69C106.49 76.03 106.09 69.87 107.78 62.8C109.47 55.73 112.63 50.42 114.78 50.95L115 50.94Z" fill="white"/>
<path d="M118.83 53.16C118.834 53.1202 118.834 53.0799 118.83 53.04C118.48 52.04 117.98 51.51 117.35 51.36L114.93 50.78C113.81 50.51 112.45 51.62 111.09 53.91C109.554 56.6695 108.425 59.637 107.74 62.72C106.01 69.97 106.44 76.08 108.74 76.63H108.9L111.18 77.18C111.29 77.1947 111.401 77.1947 111.51 77.18C111.814 77.1705 112.111 77.0918 112.38 76.95L112.52 76.88C112.66 76.79 112.81 76.69 112.95 76.58L113.06 76.49C113.18 76.39 113.31 76.27 113.45 76.13L113.53 76.05C113.66 75.9 113.8 75.75 113.93 75.58L114.01 75.49C114.16 75.3 114.31 75.1 114.46 74.88L114.63 74.64C116.377 71.7198 117.636 68.5349 118.36 65.21C118.53 64.52 118.67 63.84 118.8 63.21C118.98 62.2634 119.12 61.3334 119.22 60.42C119.225 60.4003 119.225 60.3798 119.22 60.36C119.22 60.1 119.28 59.85 119.3 59.6V59.5C119.36 58.79 119.39 58.11 119.4 57.5C119.45 56.0319 119.257 54.5656 118.83 53.16ZM119.01 59.44V59.56C119.01 59.8 119.01 60.05 118.93 60.3V60.42C118.83 61.24 118.71 62.08 118.55 62.93C118.39 63.78 118.25 64.44 118.07 65.21C117.07 69.49 115.44 73.3 113.76 75.4V75.45C113.651 75.5898 113.534 75.7233 113.41 75.85L113.36 75.91L113.27 76L112.96 76.28L112.88 76.34L112.8 76.39C112.699 76.4711 112.592 76.5447 112.48 76.61C112.444 76.6378 112.404 76.6582 112.36 76.67L112.23 76.74C111.954 76.8637 111.647 76.8986 111.35 76.84L109.71 76.45L109.46 76.39L109.19 76.32H109.04H108.9C106.78 75.82 106.42 69.71 108.09 62.72C108.723 59.6791 109.783 56.7432 111.24 54C111.617 53.3522 112.053 52.7397 112.54 52.17C112.608 52.0918 112.682 52.0183 112.76 51.95C112.822 51.8727 112.893 51.8023 112.97 51.74C113.377 51.2908 113.937 51.0092 114.54 50.95C114.63 50.9402 114.72 50.9402 114.81 50.95H114.95H115.09L115.35 51.01L115.63 51.08L117.25 51.46C117.78 51.59 118.25 52.08 118.53 52.91V52.98C118.53 52.98 118.53 52.98 118.53 53.03C118.526 53.0532 118.526 53.0769 118.53 53.1C118.95 54.5951 119.116 56.1501 119.02 57.7C119.08 58.35 119.05 58.89 119 59.44H119.01Z" fill="#125BC9"/>
<path d="M109.09 75.55L112.92 76.47L112.81 76.55L109.07 75.66L109.09 75.55Z" fill="#B2B6BF"/>
<path d="M110 75.21L113.4 76.03L113.31 76.12L109.98 75.32L110 75.21Z" fill="#B2B6BF"/>
<path d="M110.13 74.5901L113.85 75.4801L113.78 75.5701L110.11 74.6901L110.13 74.5901Z" fill="#B2B6BF"/>
<path d="M113.85 59.0801L119.05 60.3301C119.05 60.3301 119.05 60.4001 119.05 60.4301L113.83 59.1801L113.85 59.0801Z" fill="#B2B6BF"/>
<path d="M108.52 75.9099L112.4 76.8399L112.25 76.9099L108.5 75.9999L108.52 75.9099Z" fill="#B2B6BF"/>
<path d="M114.05 58.25L119.13 59.47C119.135 59.5032 119.135 59.5368 119.13 59.57L114 58.35L114.05 58.25Z" fill="#B2B6BF"/>
<path d="M113.33 51.8L118.67 53.0801V53.2001L113.26 51.91L113.33 51.8Z" fill="#B2B6BF"/>
<path d="M115.731 64.6531C117.425 57.5796 117.022 51.4199 114.831 50.895C112.639 50.3701 109.49 55.6788 107.795 62.7523C106.101 69.8258 106.504 75.9856 108.695 76.5104C110.887 77.0353 114.036 71.7266 115.731 64.6531Z" fill="white"/>
<path d="M116.87 55.31C116.823 54.409 116.672 53.5164 116.42 52.65V52.53C116.373 52.39 116.323 52.26 116.27 52.14C116.127 51.7996 115.924 51.4879 115.67 51.22C115.6 51.1485 115.523 51.0848 115.44 51.03C115.287 50.9152 115.114 50.8304 114.93 50.78C113.81 50.51 112.45 51.62 111.09 53.91C109.554 56.6695 108.425 59.637 107.74 62.72C106.01 69.97 106.44 76.08 108.74 76.63H108.9H109C109.09 76.6399 109.18 76.6399 109.27 76.63C109.355 76.6195 109.439 76.5994 109.52 76.57C109.683 76.515 109.84 76.4447 109.99 76.36L110.11 76.29C110.24 76.2 110.38 76.11 110.51 76L110.61 75.91C110.741 75.8014 110.864 75.6845 110.98 75.56L111.07 75.47C111.2 75.33 111.33 75.17 111.46 75.01L111.53 74.92C113.16 72.86 114.77 69.15 115.84 64.67C116.224 63.0862 116.508 61.4797 116.69 59.86C116.694 59.8269 116.694 59.7932 116.69 59.76C116.69 59.5 116.75 59.25 116.77 59C116.775 58.9669 116.775 58.9332 116.77 58.9C116.896 57.7078 116.929 56.5075 116.87 55.31ZM116.56 58.85C116.565 58.8865 116.565 58.9235 116.56 58.96C116.56 59.21 116.56 59.46 116.49 59.71C116.495 59.7432 116.495 59.7769 116.49 59.81C116.303 61.429 116.02 63.0352 115.64 64.62C114.56 69.1 112.92 72.87 111.31 74.87L111.24 74.96C111.1 75.12 110.97 75.27 110.83 75.41L110.75 75.5C110.628 75.6249 110.497 75.7418 110.36 75.85L110.25 75.94C110.109 76.0446 109.958 76.135 109.8 76.21L109.65 76.28C109.369 76.41 109.053 76.4451 108.75 76.38C106.63 75.88 106.27 69.77 107.94 62.78C108.615 59.7106 109.726 56.7539 111.24 54C111.617 53.3522 112.053 52.7397 112.54 52.17L112.76 51.95C112.825 51.8751 112.895 51.805 112.97 51.74C113.377 51.2908 113.937 51.0092 114.54 50.95C114.63 50.9402 114.72 50.9402 114.81 50.95C115.33 51.08 115.81 51.57 116.08 52.39C116.08 52.39 116.08 52.47 116.08 52.51C116.367 53.4002 116.532 54.3254 116.57 55.26C116.659 56.4552 116.655 57.6554 116.56 58.85Z" fill="#125BC9"/>
<g opacity="0.22">
<path opacity="0.22" d="M115.5 57.6299C115.37 55.6899 114.85 54.5099 114.02 54.3199C112.34 53.9199 110.02 57.7199 108.78 62.9799C107.54 68.2399 107.85 72.6799 109.52 73.0899H109.77C110.55 73.0899 111.45 72.2799 112.34 70.7699C113.45 68.7699 114.268 66.6215 114.77 64.3899C115.159 62.8019 115.403 61.1819 115.5 59.5499C115.5 59.5499 115.5 59.4799 115.5 59.4499C115.5 59.1799 115.5 58.9299 115.5 58.6799V58.5799C115.53 58.2699 115.52 57.9399 115.5 57.6299ZM115.28 58.6299C115.28 58.8799 115.28 59.1399 115.28 59.3999C115.285 59.433 115.285 59.4667 115.28 59.4999C115.187 61.1324 114.943 62.7527 114.55 64.3399C114.057 66.5461 113.252 68.6708 112.16 70.6499C111.24 72.1999 110.31 72.9899 109.61 72.8199C108.12 72.4699 107.86 67.9799 109.05 63.0199C110.19 58.2799 112.31 54.5199 113.8 54.5199C113.863 54.5101 113.927 54.5101 113.99 54.5199C114.69 54.6899 115.16 55.8099 115.28 57.5999C115.28 57.8899 115.28 58.1999 115.28 58.5099V58.6299Z" fill="#125BC9"/>
</g>
<g opacity="0.26">
<path opacity="0.26" d="M114 54.3799C112.35 53.9899 110.08 57.7699 108.82 62.9899C107.56 68.2099 107.89 72.6199 109.54 72.9899C111.19 73.3599 113.47 69.5999 114.72 64.3799C115.114 62.7927 115.362 61.1725 115.46 59.5399C115.46 59.5399 115.46 59.4699 115.46 59.4399C115.46 59.1699 115.46 58.9199 115.46 58.6699V58.5599C115.49 56.2299 115 54.6199 114 54.3799ZM115.29 59.3799C115.295 59.4131 115.295 59.4468 115.29 59.4799C115.202 61.1116 114.964 62.7317 114.58 64.3199C113.38 69.3199 111.09 73.2299 109.58 72.8599C108.07 72.4899 107.78 67.9999 109 62.9999C110.22 57.9999 112.48 54.0999 114 54.4599C114.86 54.6699 115.32 56.2599 115.33 58.5199V58.6299C115.31 58.9099 115.3 59.1599 115.29 59.4299V59.3799Z" fill="#B2B6BF"/>
</g>
</g>
<defs>
<linearGradient id="paint0_linear_1143_9052" x1="86.5" y1="93.5" x2="208.5" y2="93.5" gradientUnits="userSpaceOnUse">
<stop stop-color="#EE6C4D" stop-opacity="0.2"/>
<stop offset="0.11" stop-color="#E46E52" stop-opacity="0.24"/>
<stop offset="0.29" stop-color="#CA755F" stop-opacity="0.33"/>
<stop offset="0.5" stop-color="#9E8075" stop-opacity="0.49"/>
<stop offset="0.74" stop-color="#629093" stop-opacity="0.72"/>
<stop offset="1" stop-color="#16A3B9"/>
</linearGradient>
<linearGradient id="paint1_linear_1143_9052" x1="148.08" y1="68.04" x2="165.91" y2="158.03" gradientUnits="userSpaceOnUse">
<stop offset="0.0462337" stop-color="#128EC1"/>
<stop offset="0.74" stop-color="#1369C6"/>
<stop offset="1" stop-color="#125BC9"/>
</linearGradient>
<clipPath id="clip0_1143_9052">
<rect width="286" height="180" rx="8" fill="white"/>
</clipPath>
</defs>
</svg>
